<?xml version="1.0" encoding="utf-8" standalone="no"?>
<!DOCTYPE svg PUBLIC "-//W3C//DTD SVG 1.1//EN"
  "http://www.w3.org/Graphics/SVG/1.1/DTD/svg11.dtd">
<svg xmlns:xlink="http://www.w3.org/1999/xlink" width="460.8pt" height="345.6pt" viewBox="0 0 460.8 345.6" xmlns="http://www.w3.org/2000/svg" version="1.1">
 <metadata>
  <rdf:RDF xmlns:dc="http://purl.org/dc/elements/1.1/" xmlns:cc="http://creativecommons.org/ns#" xmlns:rdf="http://www.w3.org/1999/02/22-rdf-syntax-ns#">
   <cc:Work>
    <dc:type rdf:resource="http://purl.org/dc/dcmitype/StillImage"/>
    <dc:date>2024-05-21T15:10:48.859370</dc:date>
    <dc:format>image/svg+xml</dc:format>
    <dc:creator>
     <cc:Agent>
      <dc:title>Matplotlib v3.6.3, https://matplotlib.org/</dc:title>
     </cc:Agent>
    </dc:creator>
   </cc:Work>
  </rdf:RDF>
 </metadata>
 <defs>
  <style type="text/css">*{stroke-linejoin: round; stroke-linecap: butt}</style>
 </defs>
 <g id="figure_1">
  <g id="patch_1">
   <path d="M 0 345.6 
L 460.8 345.6 
L 460.8 0 
L 0 0 
z
" style="fill: #ffffff"/>
  </g>
  <g id="axes_1">
   <g id="patch_2">
    <path d="M 68.059924 139.362689 
L 218.91721 139.362689 
L 218.91721 34.956997 
L 68.059924 34.956997 
z
" style="fill: #ffffff"/>
   </g>
   <g id="matplotlib.axis_1">
    <g id="xtick_1">
     <g id="line2d_1">
      <defs>
       <path id="m6728c854ca" d="M 0 0 
L 0 3.5 
" style="stroke: #000000; stroke-width: 0.8"/>
      </defs>
      <g>
       <use xlink:href="#m6728c854ca" x="139.518639" y="139.362689" style="stroke: #000000; stroke-width: 0.8"/>
      </g>
     </g>
     <g id="text_1">
      <!-- $\mathdefault{10}$ -->
      <g transform="translate(131.673059 156.048565) scale(0.14 -0.14)">
       <defs>
        <path id="CMBX12-31" d="M 2214 4034 
C 2214 4224 2202 4224 1997 4224 
C 1523 3795 813 3795 672 3795 
L 550 3795 
L 550 3520 
L 672 3520 
C 896 3520 1235 3558 1491 3641 
L 1491 275 
L 602 275 
L 602 0 
C 870 12 1542 12 1843 12 
C 2144 12 2822 12 3091 0 
L 3091 275 
L 2214 275 
L 2214 4034 
z
" transform="scale(0.015625)"/>
        <path id="CMBX12-30" d="M 3309 2060 
C 3309 2677 3309 4224 1798 4224 
C 282 4224 282 2683 282 2060 
C 282 1444 282 -64 1792 -64 
C 3302 -64 3309 1424 3309 2060 
z
M 1798 147 
C 1594 147 1440 230 1312 365 
C 1152 526 1050 628 1050 2137 
C 1050 2587 1050 2998 1101 3331 
C 1190 3967 1651 4012 1792 4012 
C 1997 4012 2394 3916 2483 3376 
C 2541 3049 2541 2529 2541 2137 
C 2541 622 2445 532 2253 339 
C 2125 211 1952 147 1798 147 
z
" transform="scale(0.015625)"/>
       </defs>
       <use xlink:href="#CMBX12-31" transform="scale(0.996264)"/>
       <use xlink:href="#CMBX12-30" transform="translate(56.039851 0) scale(0.996264)"/>
      </g>
     </g>
    </g>
    <g id="xtick_2">
     <g id="line2d_2">
      <g>
       <use xlink:href="#m6728c854ca" x="218.91721" y="139.362689" style="stroke: #000000; stroke-width: 0.8"/>
      </g>
     </g>
     <g id="text_2">
      <!-- $\mathdefault{20}$ -->
      <g transform="translate(211.071631 156.048565) scale(0.14 -0.14)">
       <defs>
        <path id="CMBX12-32" d="M 3232 1378 
L 2963 1378 
C 2944 1243 2899 864 2803 800 
C 2752 755 2253 755 2157 755 
L 1165 755 
C 1408 960 1990 1448 2086 1519 
C 2797 2052 3232 2379 3232 2995 
C 3232 3759 2547 4224 1702 4224 
C 979 4224 358 3806 358 3187 
C 358 2848 634 2752 781 2752 
C 979 2752 1210 2886 1210 3180 
C 1210 3449 1011 3584 813 3610 
C 1069 3921 1408 3948 1542 3948 
C 2131 3948 2413 3449 2413 2988 
C 2413 2488 2074 2026 1811 1750 
L 422 294 
C 358 236 358 224 358 108 
L 358 0 
L 3046 0 
L 3232 1378 
z
" transform="scale(0.015625)"/>
       </defs>
       <use xlink:href="#CMBX12-32" transform="scale(0.996264)"/>
       <use xlink:href="#CMBX12-30" transform="translate(56.039851 0) scale(0.996264)"/>
      </g>
     </g>
    </g>
    <g id="text_3">
     <!-- Column Number -->
     <g transform="translate(93.605081 172.44647) scale(0.14 -0.14)">
      <defs>
       <path id="CMR17-43" d="M 3974 4351 
C 3974 4467 3968 4473 3930 4473 
C 3904 4473 3898 4467 3853 4390 
L 3571 3849 
C 3258 4249 2874 4480 2381 4480 
C 1286 4480 294 3507 294 2179 
C 294 837 1286 -128 2387 -128 
C 3366 -128 3974 741 3974 1482 
C 3974 1547 3974 1573 3917 1573 
C 3866 1573 3866 1553 3859 1495 
C 3808 592 3168 38 2477 38 
C 1824 38 781 502 781 2179 
C 781 3862 1843 4313 2464 4313 
C 3187 4313 3712 3681 3834 2785 
C 3846 2707 3846 2695 3904 2695 
C 3974 2695 3974 2707 3974 2824 
L 3974 4351 
z
" transform="scale(0.015625)"/>
       <path id="CMR17-6f" d="M 2758 1356 
C 2758 2176 2163 2816 1466 2816 
C 768 2816 173 2176 173 1356 
C 173 550 768 -64 1466 -64 
C 2163 -64 2758 550 2758 1356 
z
M 1466 51 
C 1165 51 909 230 762 480 
C 602 768 582 1126 582 1408 
C 582 1676 595 2009 762 2297 
C 890 2508 1139 2713 1466 2713 
C 1754 2713 1997 2553 2150 2329 
C 2349 2028 2349 1606 2349 1408 
C 2349 1158 2336 774 2163 467 
C 1984 172 1709 51 1466 51 
z
" transform="scale(0.015625)"/>
       <path id="CMR17-6c" d="M 979 4416 
L 218 4345 
L 218 4179 
C 595 4179 653 4141 653 3835 
L 653 439 
C 653 198 627 166 218 166 
L 218 0 
C 371 12 653 12 813 12 
C 979 12 1261 12 1414 0 
L 1414 166 
C 1005 166 979 191 979 439 
L 979 4416 
z
" transform="scale(0.015625)"/>
       <path id="CMR17-75" d="M 1882 2745 
L 1882 2579 
C 2259 2579 2317 2540 2317 2229 
L 2317 1053 
C 2317 510 2029 38 1555 38 
C 1030 38 986 355 986 691 
L 986 2816 
L 211 2745 
L 211 2579 
C 467 2579 640 2579 646 2320 
L 646 1079 
C 646 646 646 368 813 187 
C 896 103 1056 -64 1517 -64 
C 2061 -64 2272 400 2323 536 
L 2330 536 
L 2330 -64 
L 3091 -13 
L 3091 154 
C 2714 154 2656 193 2656 503 
L 2656 2816 
L 1882 2745 
z
" transform="scale(0.015625)"/>
       <path id="CMR17-6d" d="M 4326 1954 
C 4326 2276 4269 2816 3507 2816 
C 3072 2816 2771 2520 2656 2173 
L 2650 2173 
C 2573 2700 2195 2816 1837 2816 
C 1331 2816 1069 2424 973 2166 
L 966 2166 
L 966 2816 
L 211 2745 
L 211 2578 
C 589 2578 646 2540 646 2231 
L 646 443 
C 646 198 621 166 211 166 
L 211 0 
C 365 12 646 12 813 12 
C 979 12 1267 12 1421 0 
L 1421 166 
C 1011 166 986 192 986 443 
L 986 1678 
C 986 2269 1344 2713 1792 2713 
C 2266 2713 2317 2289 2317 1980 
L 2317 443 
C 2317 198 2291 166 1882 166 
L 1882 0 
C 2035 12 2317 12 2483 12 
C 2650 12 2938 12 3091 0 
L 3091 166 
C 2682 166 2656 192 2656 443 
L 2656 1678 
C 2656 2269 3014 2713 3462 2713 
C 3936 2713 3987 2289 3987 1980 
L 3987 443 
C 3987 198 3962 166 3552 166 
L 3552 0 
C 3706 12 3987 12 4154 12 
C 4320 12 4608 12 4762 0 
L 4762 166 
C 4352 166 4326 192 4326 443 
L 4326 1954 
z
" transform="scale(0.015625)"/>
       <path id="CMR17-6e" d="M 2656 1954 
C 2656 2282 2592 2816 1837 2816 
C 1331 2816 1069 2424 973 2166 
L 966 2166 
L 966 2816 
L 211 2745 
L 211 2578 
C 589 2578 646 2540 646 2231 
L 646 443 
C 646 198 621 166 211 166 
L 211 0 
C 365 12 646 12 813 12 
C 979 12 1267 12 1421 0 
L 1421 166 
C 1011 166 986 192 986 443 
L 986 1678 
C 986 2269 1344 2713 1792 2713 
C 2266 2713 2317 2289 2317 1980 
L 2317 443 
C 2317 198 2291 166 1882 166 
L 1882 0 
C 2035 12 2317 12 2483 12 
C 2650 12 2938 12 3091 0 
L 3091 166 
C 2682 166 2656 192 2656 443 
L 2656 1954 
z
" transform="scale(0.015625)"/>
       <path id="CMR17-4e" d="M 1312 4275 
C 1267 4345 1261 4352 1139 4352 
L 326 4352 
L 326 4185 
L 448 4185 
C 704 4185 819 4153 838 4147 
L 838 624 
C 838 465 838 166 326 166 
L 326 0 
C 474 12 742 12 902 12 
C 1062 12 1331 12 1478 0 
L 1478 166 
C 966 166 966 465 966 624 
L 966 4057 
C 1011 4019 1011 4007 1056 3943 
L 3430 76 
C 3475 0 3494 0 3526 0 
C 3590 0 3590 19 3590 140 
L 3590 3726 
C 3590 3885 3590 4185 4102 4185 
L 4102 4352 
C 3955 4339 3686 4339 3526 4339 
C 3366 4339 3098 4339 2950 4352 
L 2950 4185 
C 3462 4185 3462 3885 3462 3726 
L 3462 777 
L 1312 4275 
z
" transform="scale(0.015625)"/>
       <path id="CMR17-62" d="M 960 4416 
L 198 4345 
L 198 4179 
C 576 4179 634 4141 634 3843 
L 634 -13 
L 749 -13 
L 934 445 
C 1120 141 1395 -64 1766 -64 
C 2406 -64 3053 503 3053 1382 
C 3053 2209 2477 2816 1830 2816 
C 1434 2816 1152 2603 960 2351 
L 960 4416 
z
M 973 2022 
C 973 2138 973 2157 1062 2293 
C 1312 2681 1670 2713 1792 2713 
C 1984 2713 2643 2610 2643 1388 
C 2643 109 1888 38 1734 38 
C 1536 38 1248 115 1043 490 
C 973 613 973 626 973 742 
L 973 2022 
z
" transform="scale(0.015625)"/>
       <path id="CMR17-65" d="M 2438 1503 
C 2464 1529 2464 1542 2464 1606 
C 2464 2251 2118 2816 1389 2816 
C 710 2816 173 2175 173 1394 
C 173 554 781 -64 1459 -64 
C 2176 -64 2458 619 2458 755 
C 2458 800 2419 800 2406 800 
C 2362 800 2355 787 2330 709 
C 2189 270 1837 51 1504 51 
C 1229 51 954 206 781 490 
C 582 819 582 1200 582 1503 
L 2438 1503 
z
M 589 1600 
C 634 2511 1126 2713 1382 2713 
C 1818 2713 2112 2308 2118 1600 
L 589 1600 
z
" transform="scale(0.015625)"/>
       <path id="CMR17-72" d="M 960 1517 
C 960 2134 1222 2713 1702 2713 
C 1747 2713 1792 2707 1837 2687 
C 1837 2687 1696 2642 1696 2475 
C 1696 2321 1818 2257 1914 2257 
C 1990 2257 2131 2302 2131 2482 
C 2131 2687 1926 2816 1709 2816 
C 1222 2816 1011 2340 947 2115 
L 941 2115 
L 941 2816 
L 198 2745 
L 198 2578 
C 576 2578 634 2540 634 2231 
L 634 443 
C 634 198 608 166 198 166 
L 198 0 
C 352 12 646 12 813 12 
C 998 12 1325 12 1498 0 
L 1498 166 
C 1037 166 960 166 960 455 
L 960 1517 
z
" transform="scale(0.015625)"/>
      </defs>
      <use xlink:href="#CMR17-43" transform="scale(0.996264)"/>
      <use xlink:href="#CMR17-6f" transform="translate(66.509881 0) scale(0.996264)"/>
      <use xlink:href="#CMR17-6c" transform="translate(112.200358 0) scale(0.996264)"/>
      <use xlink:href="#CMR17-75" transform="translate(137.071416 0) scale(0.996264)"/>
      <use xlink:href="#CMR17-6d" transform="translate(187.966786 0) scale(0.996264)"/>
      <use xlink:href="#CMR17-6e" transform="translate(264.886376 0) scale(0.996264)"/>
      <use xlink:href="#CMR17-4e" transform="translate(345.857712 0) scale(0.996264)"/>
      <use xlink:href="#CMR17-75" transform="translate(414.930142 0) scale(0.996264)"/>
      <use xlink:href="#CMR17-6d" transform="translate(465.825512 0) scale(0.996264)"/>
      <use xlink:href="#CMR17-62" transform="translate(540.142647 0) scale(0.996264)"/>
      <use xlink:href="#CMR17-65" transform="translate(593.640456 0) scale(0.996264)"/>
      <use xlink:href="#CMR17-72" transform="translate(634.126116 0) scale(0.996264)"/>
     </g>
    </g>
   </g>
   <g id="matplotlib.axis_2">
    <g id="ytick_1">
     <g id="line2d_3">
      <defs>
       <path id="maecc94a0cf" d="M 0 0 
L -3.5 0 
" style="stroke: #000000; stroke-width: 0.8"/>
      </defs>
      <g>
       <use xlink:href="#maecc94a0cf" x="68.059924" y="102.635047" style="stroke: #000000; stroke-width: 0.8"/>
      </g>
     </g>
     <g id="text_4">
      <!-- $\mathdefault{1.0}$ -->
      <g transform="translate(40.913275 107.477985) scale(0.14 -0.14)">
       <defs>
        <path id="CMMIB10-3a" d="M 1517 499 
C 1517 774 1293 998 1018 998 
C 742 998 518 774 518 499 
C 518 224 742 0 1018 0 
C 1293 0 1517 224 1517 499 
z
" transform="scale(0.015625)"/>
       </defs>
       <use xlink:href="#CMBX12-31" transform="scale(0.996264)"/>
       <use xlink:href="#CMMIB10-3a" transform="translate(56.039851 0) scale(0.996264)"/>
       <use xlink:href="#CMBX12-30" transform="translate(87.864782 0) scale(0.996264)"/>
      </g>
     </g>
    </g>
    <g id="ytick_2">
     <g id="line2d_4">
      <g>
       <use xlink:href="#maecc94a0cf" x="68.059924" y="57.653636" style="stroke: #000000; stroke-width: 0.8"/>
      </g>
     </g>
     <g id="text_5">
      <!-- $\mathdefault{1.5}$ -->
      <g transform="translate(40.913275 62.496574) scale(0.14 -0.14)">
       <defs>
        <path id="CMBX12-35" d="M 986 3359 
C 1203 3308 1376 3308 1472 3308 
C 1626 3308 1990 3308 2419 3571 
C 2618 3692 2950 3980 2950 4115 
C 2950 4147 2950 4224 2874 4224 
C 2867 4224 2854 4224 2790 4191 
C 2496 4090 2182 4032 1824 4032 
C 1459 4032 1152 4090 851 4198 
C 806 4211 787 4224 768 4224 
C 691 4224 691 4159 691 4058 
L 691 2179 
C 691 2055 691 1984 819 1984 
C 883 1984 896 1991 947 2055 
C 1024 2146 1254 2432 1798 2432 
C 2387 2432 2387 1822 2387 1312 
C 2387 851 2387 192 1600 192 
C 1363 192 960 280 742 640 
C 1082 640 1165 896 1165 1036 
C 1165 1267 998 1440 762 1440 
C 570 1440 358 1324 358 1024 
C 358 469 864 -64 1626 -64 
C 2611 -64 3232 501 3232 1292 
C 3232 2081 2701 2643 1824 2643 
C 1568 2643 1261 2592 986 2386 
L 986 3359 
z
" transform="scale(0.015625)"/>
       </defs>
       <use xlink:href="#CMBX12-31" transform="scale(0.996264)"/>
       <use xlink:href="#CMMIB10-3a" transform="translate(56.039851 0) scale(0.996264)"/>
       <use xlink:href="#CMBX12-35" transform="translate(87.864782 0) scale(0.996264)"/>
      </g>
     </g>
    </g>
    <g id="text_6">
     <!-- Width [cm] -->
     <g transform="translate(33.426351 121.110189) rotate(-90) scale(0.14 -0.14)">
      <defs>
       <path id="CMR17-57" d="M 5523 3775 
C 5581 3948 5677 4173 6048 4185 
L 6048 4352 
C 5939 4345 5715 4339 5600 4339 
C 5440 4339 5158 4339 5005 4352 
L 5005 4185 
C 5293 4179 5414 4019 5414 3865 
C 5414 3820 5408 3794 5382 3724 
L 4390 557 
L 3347 3890 
C 3328 3955 3322 3980 3322 4006 
C 3322 4185 3603 4185 3725 4185 
L 3725 4352 
C 3539 4339 3219 4339 3021 4339 
C 2861 4339 2573 4339 2426 4352 
L 2426 4185 
C 2720 4185 2797 4166 2861 4051 
C 2886 3993 2989 3660 2989 3640 
C 2989 3615 2976 3576 2970 3557 
L 2029 564 
L 986 3890 
C 954 3980 954 3993 954 4006 
C 954 4185 1235 4185 1363 4185 
L 1363 4352 
C 1178 4339 858 4339 659 4339 
C 493 4339 211 4339 58 4352 
L 58 4185 
C 442 4185 467 4147 531 3942 
L 1779 -20 
C 1811 -116 1811 -128 1869 -128 
C 1920 -128 1939 -116 1965 -26 
L 3053 3448 
L 4141 -26 
C 4166 -116 4186 -128 4237 -128 
C 4294 -128 4294 -116 4326 -20 
L 5523 3775 
z
" transform="scale(0.015625)"/>
       <path id="CMR17-69" d="M 992 3961 
C 992 4102 877 4224 730 4224 
C 589 4224 467 4108 467 3961 
C 467 3820 582 3699 730 3699 
C 870 3699 992 3814 992 3961 
z
M 243 2745 
L 243 2579 
C 602 2579 653 2540 653 2231 
L 653 443 
C 653 198 627 166 218 166 
L 218 0 
C 371 12 646 12 806 12 
C 960 12 1222 12 1370 0 
L 1370 166 
C 992 166 979 205 979 436 
L 979 2816 
L 243 2745 
z
" transform="scale(0.015625)"/>
       <path id="CMR17-64" d="M 1869 4345 
L 1869 4179 
C 2246 4179 2304 4141 2304 3843 
L 2304 2371 
C 2278 2403 2016 2816 1498 2816 
C 845 2816 211 2228 211 1376 
C 211 529 806 -64 1434 -64 
C 1978 -64 2259 361 2291 406 
L 2291 -64 
L 3066 -13 
L 3066 154 
C 2688 154 2630 193 2630 503 
L 2630 4416 
L 1869 4345 
z
M 2291 762 
C 2291 568 2176 393 2029 264 
C 1811 70 1594 38 1472 38 
C 1286 38 621 135 621 1369 
C 621 2636 1363 2713 1530 2713 
C 1824 2713 2061 2545 2208 2313 
C 2291 2177 2291 2157 2291 2041 
L 2291 762 
z
" transform="scale(0.015625)"/>
       <path id="CMR17-74" d="M 966 2585 
L 1862 2585 
L 1862 2752 
L 966 2752 
L 966 3968 
L 851 3968 
C 838 3292 614 2700 70 2687 
L 70 2585 
L 627 2585 
L 627 778 
C 627 655 627 -64 1370 -64 
C 1747 -64 1965 308 1965 784 
L 1965 1151 
L 1850 1151 
L 1850 790 
C 1850 347 1677 51 1408 51 
C 1222 51 966 179 966 765 
L 966 2585 
z
" transform="scale(0.015625)"/>
       <path id="CMR17-68" d="M 2656 1954 
C 2656 2282 2592 2816 1837 2816 
C 1312 2816 1056 2392 979 2179 
L 973 2179 
L 973 4416 
L 211 4345 
L 211 4179 
C 589 4179 646 4141 646 3843 
L 646 443 
C 646 198 621 166 211 166 
L 211 0 
C 365 12 646 12 813 12 
C 979 12 1267 12 1421 0 
L 1421 166 
C 1011 166 986 192 986 443 
L 986 1678 
C 986 2269 1344 2713 1792 2713 
C 2266 2713 2317 2289 2317 1980 
L 2317 443 
C 2317 198 2291 166 1882 166 
L 1882 0 
C 2035 12 2317 12 2483 12 
C 2650 12 2938 12 3091 0 
L 3091 166 
C 2682 166 2656 192 2656 443 
L 2656 1954 
z
" transform="scale(0.015625)"/>
       <path id="CMR17-5b" d="M 1504 -1600 
L 1504 -1376 
L 902 -1376 
L 902 4575 
L 1504 4575 
L 1504 4800 
L 678 4800 
L 678 -1600 
L 1504 -1600 
z
" transform="scale(0.015625)"/>
       <path id="CMR17-63" d="M 2234 2240 
C 2112 2240 1933 2240 1933 2015 
C 1933 1836 2080 1785 2163 1785 
C 2208 1785 2394 1804 2394 2028 
C 2394 2476 1958 2816 1466 2816 
C 787 2816 211 2201 211 1379 
C 211 521 813 -64 1466 -64 
C 2259 -64 2458 676 2458 747 
C 2458 773 2451 792 2406 792 
C 2362 792 2355 786 2330 702 
C 2163 180 1798 51 1523 51 
C 1114 51 621 431 621 1385 
C 621 2358 1094 2700 1472 2700 
C 1722 2700 2093 2582 2234 2240 
z
" transform="scale(0.015625)"/>
       <path id="CMR17-5d" d="M 915 4800 
L 90 4800 
L 90 4575 
L 691 4575 
L 691 -1376 
L 90 -1376 
L 90 -1600 
L 915 -1600 
L 915 4800 
z
" transform="scale(0.015625)"/>
      </defs>
      <use xlink:href="#CMR17-57" transform="scale(0.996264)"/>
      <use xlink:href="#CMR17-69" transform="translate(95.09665 0) scale(0.996264)"/>
      <use xlink:href="#CMR17-64" transform="translate(119.967708 0) scale(0.996264)"/>
      <use xlink:href="#CMR17-74" transform="translate(170.863078 0) scale(0.996264)"/>
      <use xlink:href="#CMR17-68" transform="translate(206.143846 0) scale(0.996264)"/>
      <use xlink:href="#CMR17-5b" transform="translate(287.115182 0) scale(0.996264)"/>
      <use xlink:href="#CMR17-63" transform="translate(311.986241 0) scale(0.996264)"/>
      <use xlink:href="#CMR17-6d" transform="translate(352.471901 0) scale(0.996264)"/>
      <use xlink:href="#CMR17-5d" transform="translate(429.391491 0) scale(0.996264)"/>
     </g>
    </g>
   </g>
   <g id="line2d_5">
    <path d="M 91.879495 48.780875 
L 99.819353 50.52813 
L 107.75921 48.444623 
L 115.699067 46.614715 
L 123.638924 47.162506 
L 131.578781 46.384928 
L 139.518639 46.677885 
L 147.458496 44.596353 
L 155.398353 43.835722 
L 163.33821 42.909614 
L 171.278067 41.230683 
L 179.217924 41.888226 
L 187.157782 41.814007 
L 195.097639 40.414875 
L 203.037496 39.70271 
L 210.977353 39.88748 
L 218.91721 40.361566 
" clip-path="url(#p0700c113b2)" style="fill: none; stroke: #1f77b4; stroke-width: 1.5; stroke-linecap: square"/>
   </g>
   <g id="line2d_6">
    <path d="M 91.879495 128.59246 
L 99.819353 123.572817 
L 107.75921 120.34175 
L 115.699067 117.778053 
L 123.638924 114.990134 
L 131.578781 113.435307 
L 139.518639 112.130795 
L 147.458496 113.763678 
L 155.398353 112.925568 
L 163.33821 115.525538 
L 171.278067 116.318284 
L 179.217924 119.999082 
L 187.157782 122.428984 
L 195.097639 126.318659 
L 203.037496 129.046156 
L 210.977353 132.220144 
L 218.91721 134.616975 
" clip-path="url(#p0700c113b2)" style="fill: none; stroke: #ff7f0e; stroke-width: 1.5; stroke-linecap: square"/>
   </g>
   <g id="patch_3">
    <path d="M 68.059924 139.362689 
L 68.059924 34.956997 
" style="fill: none; stroke: #000000; stroke-width: 1.75; stroke-linejoin: miter; stroke-linecap: square"/>
   </g>
   <g id="patch_4">
    <path d="M 218.91721 139.362689 
L 218.91721 34.956997 
" style="fill: none; stroke: #000000; stroke-width: 1.75; stroke-linejoin: miter; stroke-linecap: square"/>
   </g>
   <g id="patch_5">
    <path d="M 68.059924 139.362689 
L 218.91721 139.362689 
" style="fill: none; stroke: #000000; stroke-width: 1.75; stroke-linejoin: miter; stroke-linecap: square"/>
   </g>
   <g id="patch_6">
    <path d="M 68.059924 34.956997 
L 218.91721 34.956997 
" style="fill: none; stroke: #000000; stroke-width: 1.75; stroke-linejoin: miter; stroke-linecap: square"/>
   </g>
   <g id="text_7">
    <!-- Monochromator 1 -->
    <g transform="translate(72.094187 28.956997) scale(0.2 -0.2)">
     <defs>
      <path id="CMR17-4d" d="M 1338 4249 
C 1299 4345 1293 4352 1158 4352 
L 339 4352 
L 339 4185 
C 781 4185 851 4185 851 3898 
L 851 624 
C 851 465 851 166 339 166 
L 339 0 
C 486 12 755 12 915 12 
C 1075 12 1344 12 1491 0 
L 1491 166 
C 979 166 979 465 979 624 
L 979 4159 
L 986 4159 
L 2490 102 
C 2515 38 2528 0 2579 0 
C 2630 0 2643 38 2669 102 
L 4186 4191 
L 4192 4191 
L 4192 453 
C 4192 166 4122 166 3680 166 
L 3680 0 
C 3853 12 4198 12 4384 12 
C 4570 12 4922 12 5094 0 
L 5094 166 
C 4653 166 4582 166 4582 453 
L 4582 3898 
C 4582 4185 4653 4185 5094 4185 
L 5094 4352 
L 4282 4352 
C 4147 4352 4141 4345 4102 4249 
L 2720 516 
L 1338 4249 
z
" transform="scale(0.015625)"/>
      <path id="CMR17-61" d="M 2304 1656 
C 2304 2048 2304 2275 2035 2534 
C 1798 2751 1523 2816 1306 2816 
C 800 2816 435 2408 435 1977 
C 435 1740 627 1728 666 1728 
C 749 1728 896 1779 896 1958 
C 896 2118 774 2188 666 2188 
C 640 2188 608 2182 589 2176 
C 723 2594 1069 2713 1293 2713 
C 1613 2713 1965 2421 1965 1875 
L 1965 1632 
C 1587 1619 1133 1568 774 1373 
C 371 1147 256 822 256 576 
C 256 77 832 -64 1171 -64 
C 1523 -64 1850 135 1990 505 
C 2003 219 2182 -39 2464 -39 
C 2598 -39 2938 51 2938 563 
L 2938 926 
L 2822 926 
L 2822 557 
C 2822 161 2650 109 2566 109 
C 2304 109 2304 446 2304 732 
L 2304 1656 
z
M 1965 887 
C 1965 323 1568 38 1216 38 
C 896 38 646 278 646 576 
C 646 771 730 1114 1101 1322 
C 1408 1497 1760 1523 1965 1536 
L 1965 887 
z
" transform="scale(0.015625)"/>
      <path id="CMR17-31" d="M 1702 4083 
C 1702 4217 1696 4224 1606 4224 
C 1357 3927 979 3833 621 3820 
C 602 3820 570 3820 563 3808 
C 557 3795 557 3782 557 3648 
C 755 3648 1088 3686 1344 3839 
L 1344 467 
C 1344 243 1331 166 781 166 
L 589 166 
L 589 0 
C 896 6 1216 12 1523 12 
C 1830 12 2150 6 2458 0 
L 2458 166 
L 2266 166 
C 1715 166 1702 236 1702 467 
L 1702 4083 
z
" transform="scale(0.015625)"/>
     </defs>
     <use xlink:href="#CMR17-4d" transform="scale(0.996264)"/>
     <use xlink:href="#CMR17-6f" transform="translate(84.686941 0) scale(0.996264)"/>
     <use xlink:href="#CMR17-6e" transform="translate(130.377418 0) scale(0.996264)"/>
     <use xlink:href="#CMR17-6f" transform="translate(181.272787 0) scale(0.996264)"/>
     <use xlink:href="#CMR17-63" transform="translate(229.565703 0) scale(0.996264)"/>
     <use xlink:href="#CMR17-68" transform="translate(267.44891 0) scale(0.996264)"/>
     <use xlink:href="#CMR17-72" transform="translate(318.34428 0) scale(0.996264)"/>
     <use xlink:href="#CMR17-6f" transform="translate(353.625047 0) scale(0.996264)"/>
     <use xlink:href="#CMR17-6d" transform="translate(399.315525 0) scale(0.996264)"/>
     <use xlink:href="#CMR17-61" transform="translate(476.235114 0) scale(0.996264)"/>
     <use xlink:href="#CMR17-74" transform="translate(521.925592 0) scale(0.996264)"/>
     <use xlink:href="#CMR17-6f" transform="translate(557.206359 0) scale(0.996264)"/>
     <use xlink:href="#CMR17-72" transform="translate(602.896836 0) scale(0.996264)"/>
     <use xlink:href="#CMR17-31" transform="translate(668.253571 0) scale(0.996264)"/>
    </g>
   </g>
   <g id="legend_1">
    <g id="patch_7">
     <path d="M 165.939054 105.684438 
L 210.51721 105.684438 
Q 212.91721 105.684438 212.91721 103.284438 
L 212.91721 71.035247 
Q 212.91721 68.635247 210.51721 68.635247 
L 165.939054 68.635247 
Q 163.539054 68.635247 163.539054 71.035247 
L 163.539054 103.284438 
Q 163.539054 105.684438 165.939054 105.684438 
z
" style="fill: #ffffff; opacity: 0.8; stroke: #333333; stroke-linejoin: miter"/>
    </g>
    <g id="line2d_7">
     <path d="M 168.339054 77.635247 
L 180.339054 77.635247 
L 192.339054 77.635247 
" style="fill: none; stroke: #1f77b4; stroke-width: 1.5; stroke-linecap: square"/>
    </g>
    <g id="text_8">
     <!-- x -->
     <g transform="translate(201.939054 81.835247) scale(0.12 -0.12)">
      <defs>
       <path id="CMR17-78" d="M 1664 1491 
C 1856 1740 2074 2022 2253 2233 
C 2464 2476 2707 2579 2989 2585 
L 2989 2752 
C 2880 2745 2656 2739 2541 2739 
C 2368 2739 2170 2739 2022 2752 
L 2022 2585 
C 2112 2572 2163 2508 2163 2419 
C 2163 2304 2099 2233 2067 2188 
L 1594 1587 
L 1030 2323 
C 973 2393 973 2406 973 2438 
C 973 2515 1037 2579 1146 2585 
L 1146 2752 
C 992 2739 717 2739 557 2739 
C 384 2739 179 2739 38 2752 
L 38 2585 
C 384 2585 461 2560 614 2368 
L 1350 1414 
C 1363 1401 1395 1363 1395 1344 
C 1395 1318 838 633 768 544 
C 480 198 179 172 6 166 
L 6 0 
C 115 6 339 12 454 12 
C 582 12 864 12 979 0 
L 979 166 
C 941 172 838 185 838 332 
C 838 448 890 518 947 595 
L 1478 1248 
L 2035 524 
C 2086 454 2163 358 2163 313 
C 2163 224 2086 172 1984 166 
L 1984 0 
C 2138 12 2413 12 2573 12 
C 2746 12 2950 12 3091 0 
L 3091 166 
C 2771 166 2675 179 2522 377 
L 1664 1491 
z
" transform="scale(0.015625)"/>
      </defs>
      <use xlink:href="#CMR17-78" transform="scale(0.996264)"/>
     </g>
    </g>
    <g id="line2d_8">
     <path d="M 168.339054 94.359843 
L 180.339054 94.359843 
L 192.339054 94.359843 
" style="fill: none; stroke: #ff7f0e; stroke-width: 1.5; stroke-linecap: square"/>
    </g>
    <g id="text_9">
     <!-- y -->
     <g transform="translate(201.939054 98.559843) scale(0.12 -0.12)">
      <defs>
       <path id="CMR17-79" d="M 2496 2183 
C 2656 2579 2944 2585 3034 2585 
L 3034 2752 
C 2912 2745 2752 2739 2630 2739 
C 2496 2739 2285 2739 2157 2752 
L 2157 2585 
C 2400 2566 2406 2384 2406 2332 
C 2406 2268 2394 2235 2362 2158 
L 1664 409 
L 902 2300 
C 870 2378 870 2423 870 2430 
C 870 2572 1018 2585 1171 2585 
L 1171 2752 
C 1018 2739 742 2739 582 2739 
C 410 2739 205 2739 64 2752 
L 64 2585 
C 410 2585 448 2553 531 2345 
L 1485 -31 
C 1197 -795 1030 -1242 627 -1242 
C 557 -1242 397 -1223 282 -1106 
C 429 -1093 493 -1002 493 -892 
C 493 -782 416 -685 288 -685 
C 147 -685 77 -782 77 -899 
C 77 -1158 339 -1344 627 -1344 
C 998 -1344 1229 -983 1357 -659 
L 2496 2183 
z
" transform="scale(0.015625)"/>
      </defs>
      <use xlink:href="#CMR17-79" transform="scale(0.996264)"/>
     </g>
    </g>
   </g>
  </g>
  <g id="axes_2">
   <g id="patch_8">
    <path d="M 286.977134 139.362689 
L 437.834421 139.362689 
L 437.834421 34.956997 
L 286.977134 34.956997 
z
" style="fill: #ffffff"/>
   </g>
   <g id="matplotlib.axis_3">
    <g id="xtick_3">
     <g id="line2d_9">
      <g>
       <use xlink:href="#m6728c854ca" x="358.435849" y="139.362689" style="stroke: #000000; stroke-width: 0.8"/>
      </g>
     </g>
     <g id="text_10">
      <!-- $\mathdefault{10}$ -->
      <g transform="translate(350.59027 156.048565) scale(0.14 -0.14)">
       <use xlink:href="#CMBX12-31" transform="scale(0.996264)"/>
       <use xlink:href="#CMBX12-30" transform="translate(56.039851 0) scale(0.996264)"/>
      </g>
     </g>
    </g>
    <g id="xtick_4">
     <g id="line2d_10">
      <g>
       <use xlink:href="#m6728c854ca" x="437.834421" y="139.362689" style="stroke: #000000; stroke-width: 0.8"/>
      </g>
     </g>
     <g id="text_11">
      <!-- $\mathdefault{20}$ -->
      <g transform="translate(429.988842 156.048565) scale(0.14 -0.14)">
       <use xlink:href="#CMBX12-32" transform="scale(0.996264)"/>
       <use xlink:href="#CMBX12-30" transform="translate(56.039851 0) scale(0.996264)"/>
      </g>
     </g>
    </g>
    <g id="text_12">
     <!-- Column Number -->
     <g transform="translate(312.522292 172.44647) scale(0.14 -0.14)">
      <use xlink:href="#CMR17-43" transform="scale(0.996264)"/>
      <use xlink:href="#CMR17-6f" transform="translate(66.509881 0) scale(0.996264)"/>
      <use xlink:href="#CMR17-6c" transform="translate(112.200358 0) scale(0.996264)"/>
      <use xlink:href="#CMR17-75" transform="translate(137.071416 0) scale(0.996264)"/>
      <use xlink:href="#CMR17-6d" transform="translate(187.966786 0) scale(0.996264)"/>
      <use xlink:href="#CMR17-6e" transform="translate(264.886376 0) scale(0.996264)"/>
      <use xlink:href="#CMR17-4e" transform="translate(345.857712 0) scale(0.996264)"/>
      <use xlink:href="#CMR17-75" transform="translate(414.930142 0) scale(0.996264)"/>
      <use xlink:href="#CMR17-6d" transform="translate(465.825512 0) scale(0.996264)"/>
      <use xlink:href="#CMR17-62" transform="translate(540.142647 0) scale(0.996264)"/>
      <use xlink:href="#CMR17-65" transform="translate(593.640456 0) scale(0.996264)"/>
      <use xlink:href="#CMR17-72" transform="translate(634.126116 0) scale(0.996264)"/>
     </g>
    </g>
   </g>
   <g id="matplotlib.axis_4">
    <g id="ytick_3">
     <g id="line2d_11">
      <g>
       <use xlink:href="#maecc94a0cf" x="286.977134" y="119.776966" style="stroke: #000000; stroke-width: 0.8"/>
      </g>
     </g>
     <g id="text_13">
      <!-- $\mathdefault{0.5}$ -->
      <g transform="translate(259.830486 124.619904) scale(0.14 -0.14)">
       <use xlink:href="#CMBX12-30" transform="scale(0.996264)"/>
       <use xlink:href="#CMMIB10-3a" transform="translate(56.039851 0) scale(0.996264)"/>
       <use xlink:href="#CMBX12-35" transform="translate(87.864782 0) scale(0.996264)"/>
      </g>
     </g>
    </g>
    <g id="ytick_4">
     <g id="line2d_12">
      <g>
       <use xlink:href="#maecc94a0cf" x="286.977134" y="86.471158" style="stroke: #000000; stroke-width: 0.8"/>
      </g>
     </g>
     <g id="text_14">
      <!-- $\mathdefault{1.0}$ -->
      <g transform="translate(259.830486 91.314096) scale(0.14 -0.14)">
       <use xlink:href="#CMBX12-31" transform="scale(0.996264)"/>
       <use xlink:href="#CMMIB10-3a" transform="translate(56.039851 0) scale(0.996264)"/>
       <use xlink:href="#CMBX12-30" transform="translate(87.864782 0) scale(0.996264)"/>
      </g>
     </g>
    </g>
    <g id="ytick_5">
     <g id="line2d_13">
      <g>
       <use xlink:href="#maecc94a0cf" x="286.977134" y="53.16535" style="stroke: #000000; stroke-width: 0.8"/>
      </g>
     </g>
     <g id="text_15">
      <!-- $\mathdefault{1.5}$ -->
      <g transform="translate(259.830486 58.008288) scale(0.14 -0.14)">
       <use xlink:href="#CMBX12-31" transform="scale(0.996264)"/>
       <use xlink:href="#CMMIB10-3a" transform="translate(56.039851 0) scale(0.996264)"/>
       <use xlink:href="#CMBX12-35" transform="translate(87.864782 0) scale(0.996264)"/>
      </g>
     </g>
    </g>
    <g id="text_16">
     <!-- Width [cm] -->
     <g transform="translate(252.343562 121.110189) rotate(-90) scale(0.14 -0.14)">
      <use xlink:href="#CMR17-57" transform="scale(0.996264)"/>
      <use xlink:href="#CMR17-69" transform="translate(95.09665 0) scale(0.996264)"/>
      <use xlink:href="#CMR17-64" transform="translate(119.967708 0) scale(0.996264)"/>
      <use xlink:href="#CMR17-74" transform="translate(170.863078 0) scale(0.996264)"/>
      <use xlink:href="#CMR17-68" transform="translate(206.143846 0) scale(0.996264)"/>
      <use xlink:href="#CMR17-5b" transform="translate(287.115182 0) scale(0.996264)"/>
      <use xlink:href="#CMR17-63" transform="translate(311.986241 0) scale(0.996264)"/>
      <use xlink:href="#CMR17-6d" transform="translate(352.471901 0) scale(0.996264)"/>
      <use xlink:href="#CMR17-5d" transform="translate(429.391491 0) scale(0.996264)"/>
     </g>
    </g>
   </g>
   <g id="line2d_14">
    <path d="M 334.616277 39.70271 
L 342.556135 39.9061 
L 350.495992 41.079278 
L 358.435849 42.551511 
L 366.375706 43.517068 
L 374.315563 44.744934 
L 382.255421 46.28405 
L 390.195278 46.937082 
" clip-path="url(#pdd15ee9ee4)" style="fill: none; stroke: #1f77b4; stroke-width: 1.5; stroke-linecap: square"/>
   </g>
   <g id="line2d_15">
    <path d="M 334.616277 132.066539 
L 342.556135 122.551559 
L 350.495992 121.292787 
L 358.435849 122.038359 
L 366.375706 122.048037 
L 374.315563 122.157908 
L 382.255421 124.175974 
L 390.195278 134.616975 
" clip-path="url(#pdd15ee9ee4)" style="fill: none; stroke: #ff7f0e; stroke-width: 1.5; stroke-linecap: square"/>
   </g>
   <g id="patch_9">
    <path d="M 286.977134 139.362689 
L 286.977134 34.956997 
" style="fill: none; stroke: #000000; stroke-width: 1.75; stroke-linejoin: miter; stroke-linecap: square"/>
   </g>
   <g id="patch_10">
    <path d="M 437.834421 139.362689 
L 437.834421 34.956997 
" style="fill: none; stroke: #000000; stroke-width: 1.75; stroke-linejoin: miter; stroke-linecap: square"/>
   </g>
   <g id="patch_11">
    <path d="M 286.977134 139.362689 
L 437.834421 139.362689 
" style="fill: none; stroke: #000000; stroke-width: 1.75; stroke-linejoin: miter; stroke-linecap: square"/>
   </g>
   <g id="patch_12">
    <path d="M 286.977134 34.956997 
L 437.834421 34.956997 
" style="fill: none; stroke: #000000; stroke-width: 1.75; stroke-linejoin: miter; stroke-linecap: square"/>
   </g>
   <g id="text_17">
    <!-- Monochromator 2 -->
    <g transform="translate(291.011397 28.956997) scale(0.2 -0.2)">
     <defs>
      <path id="CMR17-32" d="M 2669 990 
L 2554 990 
C 2490 537 2438 460 2413 422 
C 2381 371 1920 371 1830 371 
L 602 371 
C 832 620 1280 1073 1824 1596 
C 2214 1966 2669 2400 2669 3033 
C 2669 3788 2067 4224 1395 4224 
C 691 4224 262 3603 262 3027 
C 262 2777 448 2745 525 2745 
C 589 2745 781 2783 781 3007 
C 781 3206 614 3264 525 3264 
C 486 3264 448 3257 422 3244 
C 544 3788 915 4057 1306 4057 
C 1862 4057 2227 3616 2227 3033 
C 2227 2477 1901 1998 1536 1583 
L 262 147 
L 262 0 
L 2515 0 
L 2669 990 
z
" transform="scale(0.015625)"/>
     </defs>
     <use xlink:href="#CMR17-4d" transform="scale(0.996264)"/>
     <use xlink:href="#CMR17-6f" transform="translate(84.686941 0) scale(0.996264)"/>
     <use xlink:href="#CMR17-6e" transform="translate(130.377418 0) scale(0.996264)"/>
     <use xlink:href="#CMR17-6f" transform="translate(181.272787 0) scale(0.996264)"/>
     <use xlink:href="#CMR17-63" transform="translate(229.565703 0) scale(0.996264)"/>
     <use xlink:href="#CMR17-68" transform="translate(267.44891 0) scale(0.996264)"/>
     <use xlink:href="#CMR17-72" transform="translate(318.34428 0) scale(0.996264)"/>
     <use xlink:href="#CMR17-6f" transform="translate(353.625047 0) scale(0.996264)"/>
     <use xlink:href="#CMR17-6d" transform="translate(399.315525 0) scale(0.996264)"/>
     <use xlink:href="#CMR17-61" transform="translate(476.235114 0) scale(0.996264)"/>
     <use xlink:href="#CMR17-74" transform="translate(521.925592 0) scale(0.996264)"/>
     <use xlink:href="#CMR17-6f" transform="translate(557.206359 0) scale(0.996264)"/>
     <use xlink:href="#CMR17-72" transform="translate(602.896836 0) scale(0.996264)"/>
     <use xlink:href="#CMR17-32" transform="translate(668.253571 0) scale(0.996264)"/>
    </g>
   </g>
   <g id="legend_2">
    <g id="patch_13">
     <path d="M 295.377134 78.006188 
L 339.955291 78.006188 
Q 342.355291 78.006188 342.355291 75.606188 
L 342.355291 43.356997 
Q 342.355291 40.956997 339.955291 40.956997 
L 295.377134 40.956997 
Q 292.977134 40.956997 292.977134 43.356997 
L 292.977134 75.606188 
Q 292.977134 78.006188 295.377134 78.006188 
z
" style="fill: #ffffff; opacity: 0.8; stroke: #333333; stroke-linejoin: miter"/>
    </g>
    <g id="line2d_16">
     <path d="M 297.777134 49.956997 
L 309.777134 49.956997 
L 321.777134 49.956997 
" style="fill: none; stroke: #1f77b4; stroke-width: 1.5; stroke-linecap: square"/>
    </g>
    <g id="text_18">
     <!-- x -->
     <g transform="translate(331.377134 54.156997) scale(0.12 -0.12)">
      <use xlink:href="#CMR17-78" transform="scale(0.996264)"/>
     </g>
    </g>
    <g id="line2d_17">
     <path d="M 297.777134 66.681593 
L 309.777134 66.681593 
L 321.777134 66.681593 
" style="fill: none; stroke: #ff7f0e; stroke-width: 1.5; stroke-linecap: square"/>
    </g>
    <g id="text_19">
     <!-- y -->
     <g transform="translate(331.377134 70.881593) scale(0.12 -0.12)">
      <use xlink:href="#CMR17-79" transform="scale(0.996264)"/>
     </g>
    </g>
   </g>
  </g>
  <g id="axes_3">
   <g id="patch_14">
    <path d="M 68.059924 294.68419 
L 218.91721 294.68419 
L 218.91721 190.278498 
L 68.059924 190.278498 
z
" style="fill: #ffffff"/>
   </g>
   <g id="matplotlib.axis_5">
    <g id="xtick_5">
     <g id="line2d_18">
      <g>
       <use xlink:href="#m6728c854ca" x="96.345665" y="294.68419" style="stroke: #000000; stroke-width: 0.8"/>
      </g>
     </g>
     <g id="text_20">
      <!-- $\mathdefault{2.5}$ -->
      <g transform="translate(86.272341 311.370067) scale(0.14 -0.14)">
       <use xlink:href="#CMBX12-32" transform="scale(0.996264)"/>
       <use xlink:href="#CMMIB10-3a" transform="translate(56.039851 0) scale(0.996264)"/>
       <use xlink:href="#CMBX12-35" transform="translate(87.864782 0) scale(0.996264)"/>
      </g>
     </g>
    </g>
    <g id="xtick_6">
     <g id="line2d_19">
      <g>
       <use xlink:href="#m6728c854ca" x="143.488567" y="294.68419" style="stroke: #000000; stroke-width: 0.8"/>
      </g>
     </g>
     <g id="text_21">
      <!-- $\mathdefault{5.0}$ -->
      <g transform="translate(133.415243 311.370067) scale(0.14 -0.14)">
       <use xlink:href="#CMBX12-35" transform="scale(0.996264)"/>
       <use xlink:href="#CMMIB10-3a" transform="translate(56.039851 0) scale(0.996264)"/>
       <use xlink:href="#CMBX12-30" transform="translate(87.864782 0) scale(0.996264)"/>
      </g>
     </g>
    </g>
    <g id="xtick_7">
     <g id="line2d_20">
      <g>
       <use xlink:href="#m6728c854ca" x="190.631469" y="294.68419" style="stroke: #000000; stroke-width: 0.8"/>
      </g>
     </g>
     <g id="text_22">
      <!-- $\mathdefault{7.5}$ -->
      <g transform="translate(180.558145 311.370067) scale(0.14 -0.14)">
       <defs>
        <path id="CMBX12-37" d="M 3430 3859 
C 3488 3923 3488 3936 3488 4147 
L 2138 4147 
C 2093 4147 1139 4179 1062 4192 
C 902 4217 890 4287 877 4352 
L 608 4352 
L 397 2768 
L 666 2768 
C 672 2833 723 3282 832 3353 
C 890 3392 1421 3392 1523 3392 
L 2682 3392 
C 1939 2486 1856 2383 1658 2004 
C 1280 1258 1222 680 1222 365 
C 1222 -64 1549 -64 1600 -64 
C 1760 -64 1850 19 1894 64 
C 1978 166 1978 243 1978 526 
C 1978 1509 2067 2229 2470 2711 
L 3430 3859 
z
" transform="scale(0.015625)"/>
       </defs>
       <use xlink:href="#CMBX12-37" transform="scale(0.996264)"/>
       <use xlink:href="#CMMIB10-3a" transform="translate(56.039851 0) scale(0.996264)"/>
       <use xlink:href="#CMBX12-35" transform="translate(87.864782 0) scale(0.996264)"/>
      </g>
     </g>
    </g>
    <g id="text_23">
     <!-- Row Number -->
     <g transform="translate(103.943859 327.767972) scale(0.14 -0.14)">
      <defs>
       <path id="CMR17-52" d="M 2509 2156 
C 3117 2278 3629 2689 3629 3203 
C 3629 3806 2950 4352 2054 4352 
L 333 4352 
L 333 4185 
C 774 4185 845 4185 845 3896 
L 845 428 
C 845 140 774 140 333 140 
L 333 -26 
C 518 -13 851 -13 1050 -13 
C 1248 -13 1581 -13 1766 -26 
L 1766 140 
C 1325 140 1254 140 1254 428 
L 1254 2112 
L 2003 2112 
C 2368 2112 2573 1964 2662 1881 
C 2918 1632 2918 1459 2918 1024 
C 2918 595 2918 377 3110 160 
C 3354 -103 3680 -128 3821 -128 
C 4294 -128 4365 403 4365 512 
C 4365 550 4365 595 4307 595 
C 4256 595 4250 556 4250 531 
C 4218 115 4032 -26 3834 -26 
C 3482 -26 3443 377 3405 768 
C 3386 902 3373 998 3360 1139 
C 3322 1459 3270 1926 2509 2156 
z
M 1984 2214 
L 1254 2214 
L 1254 3935 
C 1254 4153 1267 4185 1523 4185 
L 1990 4185 
C 2522 4185 3142 3999 3142 3203 
C 3142 2374 2464 2214 1984 2214 
z
" transform="scale(0.015625)"/>
       <path id="CMR17-77" d="M 3725 2186 
C 3853 2566 4109 2579 4205 2585 
L 4205 2752 
C 4077 2745 3949 2739 3821 2739 
C 3699 2739 3424 2739 3315 2752 
L 3315 2585 
C 3514 2572 3622 2456 3622 2296 
C 3622 2251 3610 2193 3597 2148 
L 2995 398 
L 2342 2296 
C 2330 2341 2310 2392 2310 2418 
C 2310 2585 2528 2585 2630 2585 
L 2630 2752 
C 2483 2739 2214 2739 2061 2739 
C 1901 2739 1734 2739 1587 2752 
L 1587 2585 
C 1939 2585 1939 2572 2074 2167 
L 1485 443 
L 851 2302 
C 819 2386 819 2399 819 2418 
C 819 2585 1037 2585 1139 2585 
L 1139 2752 
C 986 2739 717 2739 557 2739 
C 416 2739 198 2739 64 2752 
L 64 2585 
C 346 2585 416 2566 486 2353 
L 1274 38 
C 1299 -45 1318 -64 1370 -64 
C 1414 -64 1440 -52 1472 44 
L 2131 1987 
L 2797 44 
C 2829 -52 2854 -64 2899 -64 
C 2950 -64 2970 -45 2995 38 
L 3725 2186 
z
" transform="scale(0.015625)"/>
      </defs>
      <use xlink:href="#CMR17-52" transform="scale(0.996264)"/>
      <use xlink:href="#CMR17-6f" transform="translate(67.791102 0) scale(0.996264)"/>
      <use xlink:href="#CMR17-77" transform="translate(110.879125 0) scale(0.996264)"/>
      <use xlink:href="#CMR17-4e" transform="translate(207.464972 0) scale(0.996264)"/>
      <use xlink:href="#CMR17-75" transform="translate(276.537402 0) scale(0.996264)"/>
      <use xlink:href="#CMR17-6d" transform="translate(327.432772 0) scale(0.996264)"/>
      <use xlink:href="#CMR17-62" transform="translate(401.749908 0) scale(0.996264)"/>
      <use xlink:href="#CMR17-65" transform="translate(455.247716 0) scale(0.996264)"/>
      <use xlink:href="#CMR17-72" transform="translate(495.733377 0) scale(0.996264)"/>
     </g>
    </g>
   </g>
   <g id="matplotlib.axis_6">
    <g id="ytick_6">
     <g id="line2d_21">
      <g>
       <use xlink:href="#maecc94a0cf" x="68.059924" y="288.28447" style="stroke: #000000; stroke-width: 0.8"/>
      </g>
     </g>
     <g id="text_24">
      <!-- $\mathdefault{1.00}$ -->
      <g transform="translate(33.067696 293.127408) scale(0.14 -0.14)">
       <use xlink:href="#CMBX12-31" transform="scale(0.996264)"/>
       <use xlink:href="#CMMIB10-3a" transform="translate(56.039851 0) scale(0.996264)"/>
       <use xlink:href="#CMBX12-30" transform="translate(87.864782 0) scale(0.996264)"/>
       <use xlink:href="#CMBX12-30" transform="translate(143.904633 0) scale(0.996264)"/>
      </g>
     </g>
    </g>
    <g id="ytick_7">
     <g id="line2d_22">
      <g>
       <use xlink:href="#maecc94a0cf" x="68.059924" y="251.358218" style="stroke: #000000; stroke-width: 0.8"/>
      </g>
     </g>
     <g id="text_25">
      <!-- $\mathdefault{1.25}$ -->
      <g transform="translate(33.067696 256.201156) scale(0.14 -0.14)">
       <use xlink:href="#CMBX12-31" transform="scale(0.996264)"/>
       <use xlink:href="#CMMIB10-3a" transform="translate(56.039851 0) scale(0.996264)"/>
       <use xlink:href="#CMBX12-32" transform="translate(87.864782 0) scale(0.996264)"/>
       <use xlink:href="#CMBX12-35" transform="translate(143.904633 0) scale(0.996264)"/>
      </g>
     </g>
    </g>
    <g id="ytick_8">
     <g id="line2d_23">
      <g>
       <use xlink:href="#maecc94a0cf" x="68.059924" y="214.431966" style="stroke: #000000; stroke-width: 0.8"/>
      </g>
     </g>
     <g id="text_26">
      <!-- $\mathdefault{1.50}$ -->
      <g transform="translate(33.067696 219.274904) scale(0.14 -0.14)">
       <use xlink:href="#CMBX12-31" transform="scale(0.996264)"/>
       <use xlink:href="#CMMIB10-3a" transform="translate(56.039851 0) scale(0.996264)"/>
       <use xlink:href="#CMBX12-35" transform="translate(87.864782 0) scale(0.996264)"/>
       <use xlink:href="#CMBX12-30" transform="translate(143.904633 0) scale(0.996264)"/>
      </g>
     </g>
    </g>
    <g id="text_27">
     <!-- Width [cm] -->
     <g transform="translate(25.580772 276.43169) rotate(-90) scale(0.14 -0.14)">
      <use xlink:href="#CMR17-57" transform="scale(0.996264)"/>
      <use xlink:href="#CMR17-69" transform="translate(95.09665 0) scale(0.996264)"/>
      <use xlink:href="#CMR17-64" transform="translate(119.967708 0) scale(0.996264)"/>
      <use xlink:href="#CMR17-74" transform="translate(170.863078 0) scale(0.996264)"/>
      <use xlink:href="#CMR17-68" transform="translate(206.143846 0) scale(0.996264)"/>
      <use xlink:href="#CMR17-5b" transform="translate(287.115182 0) scale(0.996264)"/>
      <use xlink:href="#CMR17-63" transform="translate(311.986241 0) scale(0.996264)"/>
      <use xlink:href="#CMR17-6d" transform="translate(352.471901 0) scale(0.996264)"/>
      <use xlink:href="#CMR17-5d" transform="translate(429.391491 0) scale(0.996264)"/>
     </g>
    </g>
   </g>
   <g id="line2d_24">
    <path d="M 68.059924 223.104785 
L 86.917085 211.304474 
L 105.774245 201.926979 
L 124.631406 196.622886 
L 143.488567 195.024212 
L 162.345728 198.474789 
L 181.202889 204.6228 
L 200.06005 211.317226 
L 218.91721 218.557441 
" clip-path="url(#pc2404b940a)" style="fill: none; stroke: #1f77b4; stroke-width: 1.5; stroke-linecap: square"/>
   </g>
   <g id="line2d_25">
    <path d="M 68.059924 288.984555 
L 86.917085 289.149469 
L 105.774245 288.677307 
L 124.631406 289.33385 
L 143.488567 289.684598 
L 162.345728 288.768814 
L 181.202889 288.891267 
L 200.06005 289.079298 
L 218.91721 289.938477 
" clip-path="url(#pc2404b940a)" style="fill: none; stroke: #ff7f0e; stroke-width: 1.5; stroke-linecap: square"/>
   </g>
   <g id="patch_15">
    <path d="M 68.059924 294.68419 
L 68.059924 190.278498 
" style="fill: none; stroke: #000000; stroke-width: 1.75; stroke-linejoin: miter; stroke-linecap: square"/>
   </g>
   <g id="patch_16">
    <path d="M 218.91721 294.68419 
L 218.91721 190.278498 
" style="fill: none; stroke: #000000; stroke-width: 1.75; stroke-linejoin: miter; stroke-linecap: square"/>
   </g>
   <g id="patch_17">
    <path d="M 68.059924 294.68419 
L 218.91721 294.68419 
" style="fill: none; stroke: #000000; stroke-width: 1.75; stroke-linejoin: miter; stroke-linecap: square"/>
   </g>
   <g id="patch_18">
    <path d="M 68.059924 190.278498 
L 218.91721 190.278498 
" style="fill: none; stroke: #000000; stroke-width: 1.75; stroke-linejoin: miter; stroke-linecap: square"/>
   </g>
   <g id="legend_3">
    <g id="patch_19">
     <path d="M 165.939054 288.68419 
L 210.51721 288.68419 
Q 212.91721 288.68419 212.91721 286.28419 
L 212.91721 254.034999 
Q 212.91721 251.634999 210.51721 251.634999 
L 165.939054 251.634999 
Q 163.539054 251.634999 163.539054 254.034999 
L 163.539054 286.28419 
Q 163.539054 288.68419 165.939054 288.68419 
z
" style="fill: #ffffff; opacity: 0.8; stroke: #333333; stroke-linejoin: miter"/>
    </g>
    <g id="line2d_26">
     <path d="M 168.339054 260.634999 
L 180.339054 260.634999 
L 192.339054 260.634999 
" style="fill: none; stroke: #1f77b4; stroke-width: 1.5; stroke-linecap: square"/>
    </g>
    <g id="text_28">
     <!-- x -->
     <g transform="translate(201.939054 264.834999) scale(0.12 -0.12)">
      <use xlink:href="#CMR17-78" transform="scale(0.996264)"/>
     </g>
    </g>
    <g id="line2d_27">
     <path d="M 168.339054 277.359595 
L 180.339054 277.359595 
L 192.339054 277.359595 
" style="fill: none; stroke: #ff7f0e; stroke-width: 1.5; stroke-linecap: square"/>
    </g>
    <g id="text_29">
     <!-- y -->
     <g transform="translate(201.939054 281.559595) scale(0.12 -0.12)">
      <use xlink:href="#CMR17-79" transform="scale(0.996264)"/>
     </g>
    </g>
   </g>
  </g>
  <g id="axes_4">
   <g id="patch_20">
    <path d="M 286.977134 294.68419 
L 437.834421 294.68419 
L 437.834421 190.278498 
L 286.977134 190.278498 
z
" style="fill: #ffffff"/>
   </g>
   <g id="matplotlib.axis_7">
    <g id="xtick_8">
     <g id="line2d_28">
      <g>
       <use xlink:href="#m6728c854ca" x="315.262875" y="294.68419" style="stroke: #000000; stroke-width: 0.8"/>
      </g>
     </g>
     <g id="text_30">
      <!-- $\mathdefault{2.5}$ -->
      <g transform="translate(305.189551 311.370067) scale(0.14 -0.14)">
       <use xlink:href="#CMBX12-32" transform="scale(0.996264)"/>
       <use xlink:href="#CMMIB10-3a" transform="translate(56.039851 0) scale(0.996264)"/>
       <use xlink:href="#CMBX12-35" transform="translate(87.864782 0) scale(0.996264)"/>
      </g>
     </g>
    </g>
    <g id="xtick_9">
     <g id="line2d_29">
      <g>
       <use xlink:href="#m6728c854ca" x="362.405778" y="294.68419" style="stroke: #000000; stroke-width: 0.8"/>
      </g>
     </g>
     <g id="text_31">
      <!-- $\mathdefault{5.0}$ -->
      <g transform="translate(352.332453 311.370067) scale(0.14 -0.14)">
       <use xlink:href="#CMBX12-35" transform="scale(0.996264)"/>
       <use xlink:href="#CMMIB10-3a" transform="translate(56.039851 0) scale(0.996264)"/>
       <use xlink:href="#CMBX12-30" transform="translate(87.864782 0) scale(0.996264)"/>
      </g>
     </g>
    </g>
    <g id="xtick_10">
     <g id="line2d_30">
      <g>
       <use xlink:href="#m6728c854ca" x="409.54868" y="294.68419" style="stroke: #000000; stroke-width: 0.8"/>
      </g>
     </g>
     <g id="text_32">
      <!-- $\mathdefault{7.5}$ -->
      <g transform="translate(399.475355 311.370067) scale(0.14 -0.14)">
       <use xlink:href="#CMBX12-37" transform="scale(0.996264)"/>
       <use xlink:href="#CMMIB10-3a" transform="translate(56.039851 0) scale(0.996264)"/>
       <use xlink:href="#CMBX12-35" transform="translate(87.864782 0) scale(0.996264)"/>
      </g>
     </g>
    </g>
    <g id="text_33">
     <!-- Row Number -->
     <g transform="translate(322.861069 327.767972) scale(0.14 -0.14)">
      <use xlink:href="#CMR17-52" transform="scale(0.996264)"/>
      <use xlink:href="#CMR17-6f" transform="translate(67.791102 0) scale(0.996264)"/>
      <use xlink:href="#CMR17-77" transform="translate(110.879125 0) scale(0.996264)"/>
      <use xlink:href="#CMR17-4e" transform="translate(207.464972 0) scale(0.996264)"/>
      <use xlink:href="#CMR17-75" transform="translate(276.537402 0) scale(0.996264)"/>
      <use xlink:href="#CMR17-6d" transform="translate(327.432772 0) scale(0.996264)"/>
      <use xlink:href="#CMR17-62" transform="translate(401.749908 0) scale(0.996264)"/>
      <use xlink:href="#CMR17-65" transform="translate(455.247716 0) scale(0.996264)"/>
      <use xlink:href="#CMR17-72" transform="translate(495.733377 0) scale(0.996264)"/>
     </g>
    </g>
   </g>
   <g id="matplotlib.axis_8">
    <g id="ytick_9">
     <g id="line2d_31">
      <g>
       <use xlink:href="#maecc94a0cf" x="286.977134" y="287.588509" style="stroke: #000000; stroke-width: 0.8"/>
      </g>
     </g>
     <g id="text_34">
      <!-- $\mathdefault{1.0}$ -->
      <g transform="translate(259.830486 292.431448) scale(0.14 -0.14)">
       <use xlink:href="#CMBX12-31" transform="scale(0.996264)"/>
       <use xlink:href="#CMMIB10-3a" transform="translate(56.039851 0) scale(0.996264)"/>
       <use xlink:href="#CMBX12-30" transform="translate(87.864782 0) scale(0.996264)"/>
      </g>
     </g>
    </g>
    <g id="ytick_10">
     <g id="line2d_32">
      <g>
       <use xlink:href="#maecc94a0cf" x="286.977134" y="251.82773" style="stroke: #000000; stroke-width: 0.8"/>
      </g>
     </g>
     <g id="text_35">
      <!-- $\mathdefault{1.2}$ -->
      <g transform="translate(259.830486 256.670668) scale(0.14 -0.14)">
       <use xlink:href="#CMBX12-31" transform="scale(0.996264)"/>
       <use xlink:href="#CMMIB10-3a" transform="translate(56.039851 0) scale(0.996264)"/>
       <use xlink:href="#CMBX12-32" transform="translate(87.864782 0) scale(0.996264)"/>
      </g>
     </g>
    </g>
    <g id="ytick_11">
     <g id="line2d_33">
      <g>
       <use xlink:href="#maecc94a0cf" x="286.977134" y="216.06695" style="stroke: #000000; stroke-width: 0.8"/>
      </g>
     </g>
     <g id="text_36">
      <!-- $\mathdefault{1.4}$ -->
      <g transform="translate(259.830486 220.909888) scale(0.14 -0.14)">
       <defs>
        <path id="CMBX12-34" d="M 2771 1004 
L 3392 1004 
L 3392 1280 
L 2771 1280 
L 2771 4038 
C 2771 4198 2765 4224 2605 4224 
C 2490 4224 2477 4224 2400 4127 
L 198 1280 
L 198 1004 
L 2016 1004 
L 2016 275 
L 1318 275 
L 1318 0 
C 1504 12 2138 12 2368 12 
C 2586 12 3219 12 3392 0 
L 3392 275 
L 2771 275 
L 2771 1004 
z
M 2074 3324 
L 2074 1280 
L 493 1280 
L 2074 3324 
z
" transform="scale(0.015625)"/>
       </defs>
       <use xlink:href="#CMBX12-31" transform="scale(0.996264)"/>
       <use xlink:href="#CMMIB10-3a" transform="translate(56.039851 0) scale(0.996264)"/>
       <use xlink:href="#CMBX12-34" transform="translate(87.864782 0) scale(0.996264)"/>
      </g>
     </g>
    </g>
    <g id="text_37">
     <!-- Width [cm] -->
     <g transform="translate(252.343562 276.43169) rotate(-90) scale(0.14 -0.14)">
      <use xlink:href="#CMR17-57" transform="scale(0.996264)"/>
      <use xlink:href="#CMR17-69" transform="translate(95.09665 0) scale(0.996264)"/>
      <use xlink:href="#CMR17-64" transform="translate(119.967708 0) scale(0.996264)"/>
      <use xlink:href="#CMR17-74" transform="translate(170.863078 0) scale(0.996264)"/>
      <use xlink:href="#CMR17-68" transform="translate(206.143846 0) scale(0.996264)"/>
      <use xlink:href="#CMR17-5b" transform="translate(287.115182 0) scale(0.996264)"/>
      <use xlink:href="#CMR17-63" transform="translate(311.986241 0) scale(0.996264)"/>
      <use xlink:href="#CMR17-6d" transform="translate(352.471901 0) scale(0.996264)"/>
      <use xlink:href="#CMR17-5d" transform="translate(429.391491 0) scale(0.996264)"/>
     </g>
    </g>
   </g>
   <g id="line2d_34">
    <path d="M 286.977134 236.929654 
L 305.834295 218.077637 
L 324.691456 206.006915 
L 343.548617 198.675427 
L 362.405778 195.024212 
L 381.262938 199.073257 
L 400.120099 204.137855 
L 418.97726 217.168922 
L 437.834421 229.394694 
" clip-path="url(#p4cfe4c8e5e)" style="fill: none; stroke: #1f77b4; stroke-width: 1.5; stroke-linecap: square"/>
   </g>
   <g id="line2d_35">
    <path d="M 286.977134 286.891637 
L 305.834295 286.651113 
L 324.691456 288.049925 
L 343.548617 287.369016 
L 362.405778 289.938477 
L 381.262938 289.59869 
L 400.120099 286.914448 
L 418.97726 287.134132 
L 437.834421 289.065438 
" clip-path="url(#p4cfe4c8e5e)" style="fill: none; stroke: #ff7f0e; stroke-width: 1.5; stroke-linecap: square"/>
   </g>
   <g id="patch_21">
    <path d="M 286.977134 294.68419 
L 286.977134 190.278498 
" style="fill: none; stroke: #000000; stroke-width: 1.75; stroke-linejoin: miter; stroke-linecap: square"/>
   </g>
   <g id="patch_22">
    <path d="M 437.834421 294.68419 
L 437.834421 190.278498 
" style="fill: none; stroke: #000000; stroke-width: 1.75; stroke-linejoin: miter; stroke-linecap: square"/>
   </g>
   <g id="patch_23">
    <path d="M 286.977134 294.68419 
L 437.834421 294.68419 
" style="fill: none; stroke: #000000; stroke-width: 1.75; stroke-linejoin: miter; stroke-linecap: square"/>
   </g>
   <g id="patch_24">
    <path d="M 286.977134 190.278498 
L 437.834421 190.278498 
" style="fill: none; stroke: #000000; stroke-width: 1.75; stroke-linejoin: miter; stroke-linecap: square"/>
   </g>
   <g id="legend_4">
    <g id="patch_25">
     <path d="M 340.116699 261.00594 
L 384.694856 261.00594 
Q 387.094856 261.00594 387.094856 258.60594 
L 387.094856 226.356749 
Q 387.094856 223.956749 384.694856 223.956749 
L 340.116699 223.956749 
Q 337.716699 223.956749 337.716699 226.356749 
L 337.716699 258.60594 
Q 337.716699 261.00594 340.116699 261.00594 
z
" style="fill: #ffffff; opacity: 0.8; stroke: #333333; stroke-linejoin: miter"/>
    </g>
    <g id="line2d_36">
     <path d="M 342.516699 232.956749 
L 354.516699 232.956749 
L 366.516699 232.956749 
" style="fill: none; stroke: #1f77b4; stroke-width: 1.5; stroke-linecap: square"/>
    </g>
    <g id="text_38">
     <!-- x -->
     <g transform="translate(376.116699 237.156749) scale(0.12 -0.12)">
      <use xlink:href="#CMR17-78" transform="scale(0.996264)"/>
     </g>
    </g>
    <g id="line2d_37">
     <path d="M 342.516699 249.681344 
L 354.516699 249.681344 
L 366.516699 249.681344 
" style="fill: none; stroke: #ff7f0e; stroke-width: 1.5; stroke-linecap: square"/>
    </g>
    <g id="text_39">
     <!-- y -->
     <g transform="translate(376.116699 253.881344) scale(0.12 -0.12)">
      <use xlink:href="#CMR17-79" transform="scale(0.996264)"/>
     </g>
    </g>
   </g>
  </g>
 </g>
 <defs>
  <clipPath id="p0700c113b2">
   <rect x="68.059924" y="34.956997" width="150.857287" height="104.405692"/>
  </clipPath>
  <clipPath id="pdd15ee9ee4">
   <rect x="286.977134" y="34.956997" width="150.857287" height="104.405692"/>
  </clipPath>
  <clipPath id="pc2404b940a">
   <rect x="68.059924" y="190.278498" width="150.857287" height="104.405692"/>
  </clipPath>
  <clipPath id="p4cfe4c8e5e">
   <rect x="286.977134" y="190.278498" width="150.857287" height="104.405692"/>
  </clipPath>
 </defs>
</svg>
