<?xml version="1.0" encoding="utf-8" standalone="no"?>
<!DOCTYPE svg PUBLIC "-//W3C//DTD SVG 1.1//EN"
  "http://www.w3.org/Graphics/SVG/1.1/DTD/svg11.dtd">
<svg xmlns:xlink="http://www.w3.org/1999/xlink" width="329.76pt" height="300.96pt" viewBox="0 0 329.76 300.96" xmlns="http://www.w3.org/2000/svg" version="1.1">
 <metadata>
  <rdf:RDF xmlns:dc="http://purl.org/dc/elements/1.1/" xmlns:cc="http://creativecommons.org/ns#" xmlns:rdf="http://www.w3.org/1999/02/22-rdf-syntax-ns#">
   <cc:Work>
    <dc:type rdf:resource="http://purl.org/dc/dcmitype/StillImage"/>
    <dc:date>2024-05-17T21:11:13.071380</dc:date>
    <dc:format>image/svg+xml</dc:format>
    <dc:creator>
     <cc:Agent>
      <dc:title>Matplotlib v3.6.3, https://matplotlib.org/</dc:title>
     </cc:Agent>
    </dc:creator>
   </cc:Work>
  </rdf:RDF>
 </metadata>
 <defs>
  <style type="text/css">*{stroke-linejoin: round; stroke-linecap: butt}</style>
 </defs>
 <g id="figure_1">
  <g id="patch_1">
   <path d="M 0 300.96 
L 329.76 300.96 
L 329.76 0 
L 0 0 
z
" style="fill: #ffffff"/>
  </g>
  <g id="axes_1">
   <g id="patch_2">
    <path d="M 52.294345 256.414399 
L 322.56 256.414399 
L 322.56 20.701072 
L 52.294345 20.701072 
z
" style="fill: #ffffff"/>
   </g>
   <g id="matplotlib.axis_1">
    <g id="xtick_1">
     <g id="line2d_1">
      <defs>
       <path id="m86dee72e53" d="M 0 0 
L 0 3.5 
" style="stroke: #000000; stroke-width: 0.8"/>
      </defs>
      <g>
       <use xlink:href="#m86dee72e53" x="89.148752" y="256.414399" style="stroke: #000000; stroke-width: 0.8"/>
      </g>
     </g>
     <g id="text_1">
      <!-- $\mathdefault{−4}$ -->
      <g transform="translate(78.988276 273.100275) scale(0.14 -0.14)">
       <defs>
        <path id="CMBSY10-0" d="M 4813 1408 
C 4909 1408 5101 1408 5101 1600 
C 5101 1798 4915 1798 4813 1798 
L 902 1798 
C 806 1798 614 1798 614 1606 
C 614 1408 800 1408 902 1408 
L 4813 1408 
z
" transform="scale(0.015625)"/>
        <path id="CMBX12-34" d="M 2771 1004 
L 3392 1004 
L 3392 1280 
L 2771 1280 
L 2771 4038 
C 2771 4198 2765 4224 2605 4224 
C 2490 4224 2477 4224 2400 4127 
L 198 1280 
L 198 1004 
L 2016 1004 
L 2016 275 
L 1318 275 
L 1318 0 
C 1504 12 2138 12 2368 12 
C 2586 12 3219 12 3392 0 
L 3392 275 
L 2771 275 
L 2771 1004 
z
M 2074 3324 
L 2074 1280 
L 493 1280 
L 2074 3324 
z
" transform="scale(0.015625)"/>
       </defs>
       <use xlink:href="#CMBSY10-0" transform="scale(0.996264)"/>
       <use xlink:href="#CMBX12-34" transform="translate(89.109808 0) scale(0.996264)"/>
      </g>
     </g>
    </g>
    <g id="xtick_2">
     <g id="line2d_2">
      <g>
       <use xlink:href="#m86dee72e53" x="138.287962" y="256.414399" style="stroke: #000000; stroke-width: 0.8"/>
      </g>
     </g>
     <g id="text_2">
      <!-- $\mathdefault{−2}$ -->
      <g transform="translate(128.127486 273.100275) scale(0.14 -0.14)">
       <defs>
        <path id="CMBX12-32" d="M 3232 1378 
L 2963 1378 
C 2944 1243 2899 864 2803 800 
C 2752 755 2253 755 2157 755 
L 1165 755 
C 1408 960 1990 1448 2086 1519 
C 2797 2052 3232 2379 3232 2995 
C 3232 3759 2547 4224 1702 4224 
C 979 4224 358 3806 358 3187 
C 358 2848 634 2752 781 2752 
C 979 2752 1210 2886 1210 3180 
C 1210 3449 1011 3584 813 3610 
C 1069 3921 1408 3948 1542 3948 
C 2131 3948 2413 3449 2413 2988 
C 2413 2488 2074 2026 1811 1750 
L 422 294 
C 358 236 358 224 358 108 
L 358 0 
L 3046 0 
L 3232 1378 
z
" transform="scale(0.015625)"/>
       </defs>
       <use xlink:href="#CMBSY10-0" transform="scale(0.996264)"/>
       <use xlink:href="#CMBX12-32" transform="translate(89.109808 0) scale(0.996264)"/>
      </g>
     </g>
    </g>
    <g id="xtick_3">
     <g id="line2d_3">
      <g>
       <use xlink:href="#m86dee72e53" x="187.427172" y="256.414399" style="stroke: #000000; stroke-width: 0.8"/>
      </g>
     </g>
     <g id="text_3">
      <!-- $\mathdefault{0}$ -->
      <g transform="translate(183.504383 273.100275) scale(0.14 -0.14)">
       <defs>
        <path id="CMBX12-30" d="M 3309 2060 
C 3309 2677 3309 4224 1798 4224 
C 282 4224 282 2683 282 2060 
C 282 1444 282 -64 1792 -64 
C 3302 -64 3309 1424 3309 2060 
z
M 1798 147 
C 1594 147 1440 230 1312 365 
C 1152 526 1050 628 1050 2137 
C 1050 2587 1050 2998 1101 3331 
C 1190 3967 1651 4012 1792 4012 
C 1997 4012 2394 3916 2483 3376 
C 2541 3049 2541 2529 2541 2137 
C 2541 622 2445 532 2253 339 
C 2125 211 1952 147 1798 147 
z
" transform="scale(0.015625)"/>
       </defs>
       <use xlink:href="#CMBX12-30" transform="scale(0.996264)"/>
      </g>
     </g>
    </g>
    <g id="xtick_4">
     <g id="line2d_4">
      <g>
       <use xlink:href="#m86dee72e53" x="236.566382" y="256.414399" style="stroke: #000000; stroke-width: 0.8"/>
      </g>
     </g>
     <g id="text_4">
      <!-- $\mathdefault{2}$ -->
      <g transform="translate(232.643593 273.100275) scale(0.14 -0.14)">
       <use xlink:href="#CMBX12-32" transform="scale(0.996264)"/>
      </g>
     </g>
    </g>
    <g id="xtick_5">
     <g id="line2d_5">
      <g>
       <use xlink:href="#m86dee72e53" x="285.705592" y="256.414399" style="stroke: #000000; stroke-width: 0.8"/>
      </g>
     </g>
     <g id="text_5">
      <!-- $\mathdefault{4}$ -->
      <g transform="translate(281.782803 273.100275) scale(0.14 -0.14)">
       <use xlink:href="#CMBX12-34" transform="scale(0.996264)"/>
      </g>
     </g>
    </g>
    <g id="text_6">
     <!-- $\epsilon$ [deg] -->
     <g transform="translate(167.743996 290.273076) scale(0.14 -0.14)">
      <defs>
       <path id="CMMIB10-f" d="M 2298 1344 
C 2394 1344 2547 1344 2547 1504 
C 2547 1644 2426 1644 2304 1644 
L 1210 1644 
C 1312 2038 1549 2515 2310 2515 
L 2579 2515 
C 2669 2515 2842 2515 2842 2681 
C 2842 2732 2810 2809 2714 2816 
L 2445 2816 
C 2099 2816 1421 2816 864 2318 
C 563 2051 320 1632 320 1127 
C 320 261 1056 -64 1805 -64 
C 1894 -64 2106 -64 2406 44 
C 2432 51 2790 185 2790 287 
C 2790 357 2752 478 2669 478 
C 2643 478 2630 478 2566 433 
C 2182 204 1984 166 1824 166 
C 1664 166 1062 198 1062 860 
C 1062 1025 1094 1184 1133 1344 
L 2298 1344 
z
" transform="scale(0.015625)"/>
       <path id="CMR17-5b" d="M 1504 -1600 
L 1504 -1376 
L 902 -1376 
L 902 4575 
L 1504 4575 
L 1504 4800 
L 678 4800 
L 678 -1600 
L 1504 -1600 
z
" transform="scale(0.015625)"/>
       <path id="CMR17-64" d="M 1869 4345 
L 1869 4179 
C 2246 4179 2304 4141 2304 3843 
L 2304 2371 
C 2278 2403 2016 2816 1498 2816 
C 845 2816 211 2228 211 1376 
C 211 529 806 -64 1434 -64 
C 1978 -64 2259 361 2291 406 
L 2291 -64 
L 3066 -13 
L 3066 154 
C 2688 154 2630 193 2630 503 
L 2630 4416 
L 1869 4345 
z
M 2291 762 
C 2291 568 2176 393 2029 264 
C 1811 70 1594 38 1472 38 
C 1286 38 621 135 621 1369 
C 621 2636 1363 2713 1530 2713 
C 1824 2713 2061 2545 2208 2313 
C 2291 2177 2291 2157 2291 2041 
L 2291 762 
z
" transform="scale(0.015625)"/>
       <path id="CMR17-65" d="M 2438 1503 
C 2464 1529 2464 1542 2464 1606 
C 2464 2251 2118 2816 1389 2816 
C 710 2816 173 2175 173 1394 
C 173 554 781 -64 1459 -64 
C 2176 -64 2458 619 2458 755 
C 2458 800 2419 800 2406 800 
C 2362 800 2355 787 2330 709 
C 2189 270 1837 51 1504 51 
C 1229 51 954 206 781 490 
C 582 819 582 1200 582 1503 
L 2438 1503 
z
M 589 1600 
C 634 2511 1126 2713 1382 2713 
C 1818 2713 2112 2308 2118 1600 
L 589 1600 
z
" transform="scale(0.015625)"/>
       <path id="CMR17-67" d="M 710 1165 
C 832 1068 1043 960 1299 960 
C 1805 960 2240 1359 2240 1895 
C 2240 2063 2189 2321 1997 2521 
C 2176 2713 2438 2777 2586 2777 
C 2611 2777 2650 2777 2682 2758 
C 2656 2751 2598 2726 2598 2623 
C 2598 2540 2656 2483 2739 2483 
C 2835 2483 2886 2547 2886 2630 
C 2886 2751 2790 2880 2586 2880 
C 2330 2880 2106 2758 1926 2591 
C 1734 2764 1504 2828 1299 2828 
C 794 2828 358 2431 358 1895 
C 358 1527 570 1294 634 1230 
C 442 1004 442 742 442 710 
C 442 544 506 300 723 166 
C 390 82 128 -184 128 -517 
C 128 -996 736 -1344 1466 -1344 
C 2170 -1344 2803 -1009 2803 -510 
C 2803 384 1856 384 1363 384 
C 1216 384 954 384 922 390 
C 723 422 589 601 589 825 
C 589 883 589 1024 710 1165 
z
M 1299 1068 
C 736 1068 736 1766 736 1895 
C 736 2024 736 2719 1299 2719 
C 1862 2719 1862 2024 1862 1895 
C 1862 1766 1862 1068 1299 1068 
z
M 1466 -1236 
C 826 -1236 384 -883 384 -517 
C 384 -311 493 -118 634 -11 
C 794 102 858 102 1293 102 
C 1818 102 2547 102 2547 -517 
C 2547 -883 2106 -1236 1466 -1236 
z
" transform="scale(0.015625)"/>
       <path id="CMR17-5d" d="M 915 4800 
L 90 4800 
L 90 4575 
L 691 4575 
L 691 -1376 
L 90 -1376 
L 90 -1600 
L 915 -1600 
L 915 4800 
z
" transform="scale(0.015625)"/>
      </defs>
      <use xlink:href="#CMMIB10-f" transform="scale(0.996264)"/>
      <use xlink:href="#CMR17-5b" transform="translate(78.228555 0) scale(0.996264)"/>
      <use xlink:href="#CMR17-64" transform="translate(103.099613 0) scale(0.996264)"/>
      <use xlink:href="#CMR17-65" transform="translate(153.994983 0) scale(0.996264)"/>
      <use xlink:href="#CMR17-67" transform="translate(194.480643 0) scale(0.996264)"/>
      <use xlink:href="#CMR17-5d" transform="translate(240.17112 0) scale(0.996264)"/>
     </g>
    </g>
   </g>
   <g id="matplotlib.axis_2">
    <g id="ytick_1">
     <g id="line2d_6">
      <defs>
       <path id="m90157c54dc" d="M 0 0 
L -3.5 0 
" style="stroke: #000000; stroke-width: 0.8"/>
      </defs>
      <g>
       <use xlink:href="#m90157c54dc" x="52.294345" y="245.703022" style="stroke: #000000; stroke-width: 0.8"/>
      </g>
     </g>
     <g id="text_7">
      <!-- $\mathdefault{0.0}$ -->
      <g transform="translate(25.147696 250.54596) scale(0.14 -0.14)">
       <defs>
        <path id="CMMIB10-3a" d="M 1517 499 
C 1517 774 1293 998 1018 998 
C 742 998 518 774 518 499 
C 518 224 742 0 1018 0 
C 1293 0 1517 224 1517 499 
z
" transform="scale(0.015625)"/>
       </defs>
       <use xlink:href="#CMBX12-30" transform="scale(0.996264)"/>
       <use xlink:href="#CMMIB10-3a" transform="translate(56.039851 0) scale(0.996264)"/>
       <use xlink:href="#CMBX12-30" transform="translate(87.864782 0) scale(0.996264)"/>
      </g>
     </g>
    </g>
    <g id="ytick_2">
     <g id="line2d_7">
      <g>
       <use xlink:href="#m90157c54dc" x="52.294345" y="208.617774" style="stroke: #000000; stroke-width: 0.8"/>
      </g>
     </g>
     <g id="text_8">
      <!-- $\mathdefault{0.5}$ -->
      <g transform="translate(25.147696 213.460712) scale(0.14 -0.14)">
       <defs>
        <path id="CMBX12-35" d="M 986 3359 
C 1203 3308 1376 3308 1472 3308 
C 1626 3308 1990 3308 2419 3571 
C 2618 3692 2950 3980 2950 4115 
C 2950 4147 2950 4224 2874 4224 
C 2867 4224 2854 4224 2790 4191 
C 2496 4090 2182 4032 1824 4032 
C 1459 4032 1152 4090 851 4198 
C 806 4211 787 4224 768 4224 
C 691 4224 691 4159 691 4058 
L 691 2179 
C 691 2055 691 1984 819 1984 
C 883 1984 896 1991 947 2055 
C 1024 2146 1254 2432 1798 2432 
C 2387 2432 2387 1822 2387 1312 
C 2387 851 2387 192 1600 192 
C 1363 192 960 280 742 640 
C 1082 640 1165 896 1165 1036 
C 1165 1267 998 1440 762 1440 
C 570 1440 358 1324 358 1024 
C 358 469 864 -64 1626 -64 
C 2611 -64 3232 501 3232 1292 
C 3232 2081 2701 2643 1824 2643 
C 1568 2643 1261 2592 986 2386 
L 986 3359 
z
" transform="scale(0.015625)"/>
       </defs>
       <use xlink:href="#CMBX12-30" transform="scale(0.996264)"/>
       <use xlink:href="#CMMIB10-3a" transform="translate(56.039851 0) scale(0.996264)"/>
       <use xlink:href="#CMBX12-35" transform="translate(87.864782 0) scale(0.996264)"/>
      </g>
     </g>
    </g>
    <g id="ytick_3">
     <g id="line2d_8">
      <g>
       <use xlink:href="#m90157c54dc" x="52.294345" y="171.532527" style="stroke: #000000; stroke-width: 0.8"/>
      </g>
     </g>
     <g id="text_9">
      <!-- $\mathdefault{1.0}$ -->
      <g transform="translate(25.147696 176.375465) scale(0.14 -0.14)">
       <defs>
        <path id="CMBX12-31" d="M 2214 4034 
C 2214 4224 2202 4224 1997 4224 
C 1523 3795 813 3795 672 3795 
L 550 3795 
L 550 3520 
L 672 3520 
C 896 3520 1235 3558 1491 3641 
L 1491 275 
L 602 275 
L 602 0 
C 870 12 1542 12 1843 12 
C 2144 12 2822 12 3091 0 
L 3091 275 
L 2214 275 
L 2214 4034 
z
" transform="scale(0.015625)"/>
       </defs>
       <use xlink:href="#CMBX12-31" transform="scale(0.996264)"/>
       <use xlink:href="#CMMIB10-3a" transform="translate(56.039851 0) scale(0.996264)"/>
       <use xlink:href="#CMBX12-30" transform="translate(87.864782 0) scale(0.996264)"/>
      </g>
     </g>
    </g>
    <g id="ytick_4">
     <g id="line2d_9">
      <g>
       <use xlink:href="#m90157c54dc" x="52.294345" y="134.447279" style="stroke: #000000; stroke-width: 0.8"/>
      </g>
     </g>
     <g id="text_10">
      <!-- $\mathdefault{1.5}$ -->
      <g transform="translate(25.147696 139.290217) scale(0.14 -0.14)">
       <use xlink:href="#CMBX12-31" transform="scale(0.996264)"/>
       <use xlink:href="#CMMIB10-3a" transform="translate(56.039851 0) scale(0.996264)"/>
       <use xlink:href="#CMBX12-35" transform="translate(87.864782 0) scale(0.996264)"/>
      </g>
     </g>
    </g>
    <g id="ytick_5">
     <g id="line2d_10">
      <g>
       <use xlink:href="#m90157c54dc" x="52.294345" y="97.362031" style="stroke: #000000; stroke-width: 0.8"/>
      </g>
     </g>
     <g id="text_11">
      <!-- $\mathdefault{2.0}$ -->
      <g transform="translate(25.147696 102.20497) scale(0.14 -0.14)">
       <use xlink:href="#CMBX12-32" transform="scale(0.996264)"/>
       <use xlink:href="#CMMIB10-3a" transform="translate(56.039851 0) scale(0.996264)"/>
       <use xlink:href="#CMBX12-30" transform="translate(87.864782 0) scale(0.996264)"/>
      </g>
     </g>
    </g>
    <g id="ytick_6">
     <g id="line2d_11">
      <g>
       <use xlink:href="#m90157c54dc" x="52.294345" y="60.276784" style="stroke: #000000; stroke-width: 0.8"/>
      </g>
     </g>
     <g id="text_12">
      <!-- $\mathdefault{2.5}$ -->
      <g transform="translate(25.147696 65.119722) scale(0.14 -0.14)">
       <use xlink:href="#CMBX12-32" transform="scale(0.996264)"/>
       <use xlink:href="#CMMIB10-3a" transform="translate(56.039851 0) scale(0.996264)"/>
       <use xlink:href="#CMBX12-35" transform="translate(87.864782 0) scale(0.996264)"/>
      </g>
     </g>
    </g>
    <g id="ytick_7">
     <g id="line2d_12">
      <g>
       <use xlink:href="#m90157c54dc" x="52.294345" y="23.191536" style="stroke: #000000; stroke-width: 0.8"/>
      </g>
     </g>
     <g id="text_13">
      <!-- $\mathdefault{3.0}$ -->
      <g transform="translate(25.147696 28.034474) scale(0.14 -0.14)">
       <defs>
        <path id="CMBX12-33" d="M 1670 2143 
C 2387 2143 2387 1473 2387 1164 
C 2387 876 2387 192 1696 192 
C 1562 192 1139 211 832 434 
C 1107 492 1203 691 1203 883 
C 1203 1145 1018 1331 755 1331 
C 486 1331 301 1145 301 876 
C 301 283 941 -64 1728 -64 
C 2784 -64 3290 524 3290 1164 
C 3290 1479 3130 2092 2138 2265 
C 2701 2436 3091 2824 3091 3327 
C 3091 3812 2630 4224 1741 4224 
C 1024 4224 499 3839 499 3315 
C 499 2995 749 2892 915 2892 
C 1101 2892 1325 3014 1325 3308 
C 1325 3455 1261 3673 960 3718 
C 1229 3993 1664 3993 1702 3993 
C 2272 3993 2272 3539 2272 3347 
C 2272 3155 2246 2861 2042 2605 
C 1875 2392 1709 2380 1466 2368 
C 1389 2361 1261 2355 1235 2342 
C 1197 2323 1197 2278 1197 2252 
C 1197 2143 1235 2143 1363 2143 
L 1670 2143 
z
" transform="scale(0.015625)"/>
       </defs>
       <use xlink:href="#CMBX12-33" transform="scale(0.996264)"/>
       <use xlink:href="#CMMIB10-3a" transform="translate(56.039851 0) scale(0.996264)"/>
       <use xlink:href="#CMBX12-30" transform="translate(87.864782 0) scale(0.996264)"/>
      </g>
     </g>
    </g>
    <g id="text_14">
     <!-- FOM [n/s/deg] -->
     <g transform="translate(17.660772 184.020467) rotate(-90) scale(0.14 -0.14)">
      <defs>
       <path id="CMR17-46" d="M 3482 4339 
L 326 4339 
L 326 4172 
C 768 4172 838 4172 838 3883 
L 838 450 
C 838 166 768 166 326 166 
L 326 0 
C 512 12 870 12 1069 12 
C 1331 12 1638 12 1901 0 
L 1901 166 
L 1760 166 
C 1274 166 1261 229 1261 456 
L 1261 2073 
L 1837 2073 
C 2432 2073 2490 1865 2490 1334 
L 2605 1334 
L 2605 2991 
L 2490 2991 
C 2490 2451 2432 2240 1837 2240 
L 1261 2240 
L 1261 3922 
C 1261 4140 1274 4172 1530 4172 
L 2355 4172 
C 3322 4172 3430 3774 3520 2920 
L 3635 2920 
L 3482 4339 
z
" transform="scale(0.015625)"/>
       <path id="CMR17-4f" d="M 4307 2166 
C 4307 3488 3366 4480 2304 4480 
C 1216 4480 294 3475 294 2166 
C 294 857 1229 -128 2298 -128 
C 3392 -128 4307 876 4307 2166 
z
M 2304 -13 
C 1574 -13 781 722 781 2250 
C 781 3771 1651 4364 2298 4364 
C 2976 4364 3821 3752 3821 2250 
C 3821 696 3008 -13 2304 -13 
z
" transform="scale(0.015625)"/>
       <path id="CMR17-4d" d="M 1338 4249 
C 1299 4345 1293 4352 1158 4352 
L 339 4352 
L 339 4185 
C 781 4185 851 4185 851 3898 
L 851 624 
C 851 465 851 166 339 166 
L 339 0 
C 486 12 755 12 915 12 
C 1075 12 1344 12 1491 0 
L 1491 166 
C 979 166 979 465 979 624 
L 979 4159 
L 986 4159 
L 2490 102 
C 2515 38 2528 0 2579 0 
C 2630 0 2643 38 2669 102 
L 4186 4191 
L 4192 4191 
L 4192 453 
C 4192 166 4122 166 3680 166 
L 3680 0 
C 3853 12 4198 12 4384 12 
C 4570 12 4922 12 5094 0 
L 5094 166 
C 4653 166 4582 166 4582 453 
L 4582 3898 
C 4582 4185 4653 4185 5094 4185 
L 5094 4352 
L 4282 4352 
C 4147 4352 4141 4345 4102 4249 
L 2720 516 
L 1338 4249 
z
" transform="scale(0.015625)"/>
       <path id="CMR17-6e" d="M 2656 1954 
C 2656 2282 2592 2816 1837 2816 
C 1331 2816 1069 2424 973 2166 
L 966 2166 
L 966 2816 
L 211 2745 
L 211 2578 
C 589 2578 646 2540 646 2231 
L 646 443 
C 646 198 621 166 211 166 
L 211 0 
C 365 12 646 12 813 12 
C 979 12 1267 12 1421 0 
L 1421 166 
C 1011 166 986 192 986 443 
L 986 1678 
C 986 2269 1344 2713 1792 2713 
C 2266 2713 2317 2289 2317 1980 
L 2317 443 
C 2317 198 2291 166 1882 166 
L 1882 0 
C 2035 12 2317 12 2483 12 
C 2650 12 2938 12 3091 0 
L 3091 166 
C 2682 166 2656 192 2656 443 
L 2656 1954 
z
" transform="scale(0.015625)"/>
       <path id="CMR17-2f" d="M 2605 4575 
C 2637 4658 2637 4671 2637 4684 
C 2637 4761 2579 4800 2528 4800 
C 2451 4800 2426 4748 2400 4671 
L 326 -1376 
C 294 -1460 294 -1472 294 -1485 
C 294 -1562 352 -1600 403 -1600 
C 480 -1600 506 -1549 531 -1472 
L 2605 4575 
z
" transform="scale(0.015625)"/>
       <path id="CMR17-73" d="M 1978 2688 
C 1978 2803 1971 2809 1933 2809 
C 1907 2809 1901 2803 1824 2707 
C 1805 2681 1747 2617 1728 2592 
C 1523 2809 1235 2816 1126 2816 
C 416 2816 160 2444 160 2073 
C 160 1497 813 1363 998 1324 
C 1402 1241 1542 1216 1677 1100 
C 1760 1024 1901 883 1901 652 
C 1901 384 1747 38 1158 38 
C 602 38 403 460 288 1024 
C 269 1113 269 1120 218 1120 
C 166 1120 160 1113 160 985 
L 160 64 
C 160 -52 166 -58 205 -58 
C 237 -58 243 -52 275 0 
C 314 57 410 211 448 275 
C 576 102 800 -64 1158 -64 
C 1792 -64 2131 281 2131 780 
C 2131 1107 1958 1280 1875 1356 
C 1683 1555 1459 1600 1190 1651 
C 838 1728 390 1817 390 2208 
C 390 2374 480 2726 1126 2726 
C 1811 2726 1850 2086 1862 1881 
C 1869 1849 1901 1843 1920 1843 
C 1978 1843 1978 1862 1978 1971 
L 1978 2688 
z
" transform="scale(0.015625)"/>
      </defs>
      <use xlink:href="#CMR17-46" transform="scale(0.996264)"/>
      <use xlink:href="#CMR17-4f" transform="translate(57.381393 0) scale(0.996264)"/>
      <use xlink:href="#CMR17-4d" transform="translate(129.096181 0) scale(0.996264)"/>
      <use xlink:href="#CMR17-5b" transform="translate(243.859088 0) scale(0.996264)"/>
      <use xlink:href="#CMR17-6e" transform="translate(268.730146 0) scale(0.996264)"/>
      <use xlink:href="#CMR17-2f" transform="translate(319.625516 0) scale(0.996264)"/>
      <use xlink:href="#CMR17-73" transform="translate(365.315993 0) scale(0.996264)"/>
      <use xlink:href="#CMR17-2f" transform="translate(401.117331 0) scale(0.996264)"/>
      <use xlink:href="#CMR17-64" transform="translate(446.807808 0) scale(0.996264)"/>
      <use xlink:href="#CMR17-65" transform="translate(497.703178 0) scale(0.996264)"/>
      <use xlink:href="#CMR17-67" transform="translate(538.188838 0) scale(0.996264)"/>
      <use xlink:href="#CMR17-5d" transform="translate(583.879315 0) scale(0.996264)"/>
     </g>
    </g>
    <g id="text_15">
     <!-- $\times\mathdefault{10^{11}}\mathdefault{}$ -->
     <g transform="translate(52.294345 17.701072) scale(0.14 -0.14)">
      <defs>
       <path id="CMBSY10-2" d="M 2586 1603 
L 1165 179 
C 1114 128 1069 77 1069 6 
C 1069 -103 1158 -192 1267 -192 
C 1344 -192 1382 -154 1453 -84 
L 2861 1321 
L 4333 -154 
C 4352 -167 4378 -192 4454 -192 
C 4544 -192 4646 -116 4646 6 
C 4646 38 4634 77 4621 102 
C 4589 141 4397 333 4282 448 
L 3136 1596 
C 3462 1930 4563 3020 4595 3058 
C 4627 3103 4646 3142 4646 3193 
C 4646 3315 4544 3392 4454 3392 
C 4378 3392 4346 3360 4282 3296 
L 2861 1878 
C 2528 2205 1440 3308 1402 3340 
C 1357 3372 1318 3392 1267 3392 
C 1158 3392 1069 3302 1069 3193 
C 1069 3122 1101 3090 1165 3026 
L 2586 1603 
z
" transform="scale(0.015625)"/>
      </defs>
      <use xlink:href="#CMBSY10-2" transform="scale(0.996264)"/>
      <use xlink:href="#CMBX12-31" transform="translate(89.109808 0) scale(0.996264)"/>
      <use xlink:href="#CMBX12-30" transform="translate(145.149659 0) scale(0.996264)"/>
      <use xlink:href="#CMBX12-31" transform="translate(201.189509 36.153639) scale(0.697382)"/>
      <use xlink:href="#CMBX12-31" transform="translate(240.417222 36.153639) scale(0.697382)"/>
     </g>
    </g>
   </g>
   <g id="line2d_13">
    <path d="M 64.579147 245.379838 
L 67.036108 245.288951 
L 69.493068 245.172672 
L 71.950029 245.022024 
L 74.406989 244.829109 
L 76.86395 244.592036 
L 79.32091 244.285982 
L 81.777871 243.907914 
L 84.234831 243.421849 
L 86.691792 242.824942 
L 89.148752 242.080347 
L 91.605713 241.125977 
L 94.062673 239.966926 
L 96.519634 238.594993 
L 98.976594 236.918857 
L 101.433555 234.833284 
L 103.890515 232.324163 
L 106.347476 229.405686 
L 108.804436 225.915248 
L 111.261397 221.911866 
L 113.718357 217.182045 
L 116.175318 211.781503 
L 118.632278 205.479126 
L 121.089239 198.31536 
L 123.546199 190.259622 
L 126.00316 181.425096 
L 128.46012 171.337422 
L 130.917081 160.599692 
L 133.374041 148.907528 
L 135.831002 135.948265 
L 138.287962 122.583634 
L 140.744923 108.943672 
L 143.201883 94.543411 
L 145.658844 80.469811 
L 148.115804 66.80553 
L 150.572765 54.956174 
L 153.029725 44.359923 
L 155.486686 36.887969 
L 157.943646 32.484915 
L 160.400607 31.415314 
L 162.857567 32.955621 
L 165.314528 36.539405 
L 167.771488 42.896143 
L 170.228449 50.096021 
L 172.685409 57.600045 
L 175.14237 64.694502 
L 177.59933 72.105282 
L 180.056291 79.237218 
L 182.513251 86.227118 
L 184.970212 92.476628 
L 187.427172 98.004654 
L 189.884133 104.083436 
L 192.341093 109.327264 
L 194.798054 115.434566 
L 197.255014 121.251091 
L 199.711975 126.514235 
L 202.168935 132.670182 
L 204.625896 139.376139 
L 207.082856 146.156621 
L 209.539817 153.345096 
L 211.996777 161.068579 
L 214.453738 168.944336 
L 216.910698 176.847529 
L 219.367659 184.572989 
L 221.824619 192.170117 
L 224.28158 199.673734 
L 226.73854 206.542029 
L 229.195501 213.073607 
L 231.652461 218.763813 
L 234.109422 224.113368 
L 236.566382 228.544177 
L 239.023343 232.316405 
L 241.480303 235.398371 
L 243.937264 237.920427 
L 246.394224 239.848411 
L 248.851185 241.345799 
L 251.308145 242.513546 
L 253.765106 243.371167 
L 256.222066 244.004108 
L 258.679027 244.463638 
L 261.135987 244.799804 
L 263.592948 245.031541 
L 266.049908 245.208771 
L 268.506869 245.337577 
L 270.963829 245.430998 
L 273.42079 245.499812 
L 275.87775 245.550172 
L 278.334711 245.588145 
L 280.791671 245.616349 
L 283.248632 245.637708 
L 285.705592 245.65373 
L 288.162553 245.665834 
L 290.619513 245.67483 
L 293.076474 245.681654 
L 295.533434 245.686854 
L 297.990395 245.690815 
L 300.447355 245.693876 
L 302.904316 245.696184 
L 305.361276 245.697889 
L 307.818237 245.699177 
L 310.275197 245.700157 
" clip-path="url(#paada27b9b6)" style="fill: none; stroke: #1f77b4; stroke-width: 1.5; stroke-linecap: square"/>
   </g>
   <g id="LineCollection_1">
    <path d="M 160.400607 245.700157 
L 160.400607 31.415314 
" clip-path="url(#paada27b9b6)" style="fill: none; stroke-dasharray: 5.55,2.4; stroke-dashoffset: 0; stroke: #000000; stroke-width: 1.5"/>
   </g>
   <g id="patch_3">
    <path d="M 52.294345 256.414399 
L 52.294345 20.701072 
" style="fill: none; stroke: #000000; stroke-width: 1.75; stroke-linejoin: miter; stroke-linecap: square"/>
   </g>
   <g id="patch_4">
    <path d="M 322.56 256.414399 
L 322.56 20.701072 
" style="fill: none; stroke: #000000; stroke-width: 1.75; stroke-linejoin: miter; stroke-linecap: square"/>
   </g>
   <g id="patch_5">
    <path d="M 52.294345 256.414399 
L 322.56 256.414399 
" style="fill: none; stroke: #000000; stroke-width: 1.75; stroke-linejoin: miter; stroke-linecap: square"/>
   </g>
   <g id="patch_6">
    <path d="M 52.294345 20.701072 
L 322.56 20.701072 
" style="fill: none; stroke: #000000; stroke-width: 1.75; stroke-linejoin: miter; stroke-linecap: square"/>
   </g>
   <g id="text_16">
    <!-- $\epsilon=-1.10$ -->
    <g transform="translate(168.242215 245.703022) scale(0.14 -0.14)">
     <defs>
      <path id="CMBX12-3d" d="M 4934 2112 
C 5030 2112 5197 2112 5197 2291 
C 5197 2464 5024 2464 4941 2464 
L 653 2464 
C 570 2464 397 2464 397 2291 
C 397 2112 563 2112 659 2112 
L 4934 2112 
z
M 4941 735 
C 5024 735 5197 735 5197 908 
C 5197 1088 5030 1088 4934 1088 
L 659 1088 
C 563 1088 397 1088 397 908 
C 397 735 570 735 653 735 
L 4941 735 
z
" transform="scale(0.015625)"/>
     </defs>
     <use xlink:href="#CMMIB10-f" transform="scale(0.996264)"/>
     <use xlink:href="#CMBX12-3d" transform="translate(79.97752 0) scale(0.996264)"/>
     <use xlink:href="#CMBSY10-0" transform="translate(198.975552 0) scale(0.996264)"/>
     <use xlink:href="#CMBX12-31" transform="translate(288.08536 0) scale(0.996264)"/>
     <use xlink:href="#CMMIB10-3a" transform="translate(344.12521 0) scale(0.996264)"/>
     <use xlink:href="#CMBX12-31" transform="translate(375.950142 0) scale(0.996264)"/>
     <use xlink:href="#CMBX12-30" transform="translate(431.989992 0) scale(0.996264)"/>
    </g>
   </g>
  </g>
 </g>
 <defs>
  <clipPath id="paada27b9b6">
   <rect x="52.294345" y="20.701072" width="270.265655" height="235.713327"/>
  </clipPath>
 </defs>
</svg>
