<?xml version="1.0" encoding="utf-8" standalone="no"?>
<!DOCTYPE svg PUBLIC "-//W3C//DTD SVG 1.1//EN"
  "http://www.w3.org/Graphics/SVG/1.1/DTD/svg11.dtd">
<svg xmlns:xlink="http://www.w3.org/1999/xlink" width="329.76pt" height="300.96pt" viewBox="0 0 329.76 300.96" xmlns="http://www.w3.org/2000/svg" version="1.1">
 <metadata>
  <rdf:RDF xmlns:dc="http://purl.org/dc/elements/1.1/" xmlns:cc="http://creativecommons.org/ns#" xmlns:rdf="http://www.w3.org/1999/02/22-rdf-syntax-ns#">
   <cc:Work>
    <dc:type rdf:resource="http://purl.org/dc/dcmitype/StillImage"/>
    <dc:date>2024-05-22T11:59:07.623601</dc:date>
    <dc:format>image/svg+xml</dc:format>
    <dc:creator>
     <cc:Agent>
      <dc:title>Matplotlib v3.6.3, https://matplotlib.org/</dc:title>
     </cc:Agent>
    </dc:creator>
   </cc:Work>
  </rdf:RDF>
 </metadata>
 <defs>
  <style type="text/css">*{stroke-linejoin: round; stroke-linecap: butt}</style>
 </defs>
 <g id="figure_1">
  <g id="patch_1">
   <path d="M 0 300.96 
L 329.76 300.96 
L 329.76 0 
L 0 0 
z
" style="fill: #ffffff"/>
  </g>
  <g id="axes_1">
   <g id="patch_2">
    <path d="M 60.139924 256.414399 
L 322.56 256.414399 
L 322.56 7.2 
L 60.139924 7.2 
z
" style="fill: #ffffff"/>
   </g>
   <g id="matplotlib.axis_1">
    <g id="xtick_1">
     <g id="line2d_1">
      <defs>
       <path id="m4c655a99a7" d="M 0 0 
L 0 3.5 
" style="stroke: #000000; stroke-width: 0.8"/>
      </defs>
      <g>
       <use xlink:href="#m4c655a99a7" x="101.888572" y="256.414399" style="stroke: #000000; stroke-width: 0.8"/>
      </g>
     </g>
     <g id="text_1">
      <!-- $\mathdefault{1}$ -->
      <g transform="translate(97.965783 273.100275) scale(0.14 -0.14)">
       <defs>
        <path id="CMBX12-31" d="M 2214 4034 
C 2214 4224 2202 4224 1997 4224 
C 1523 3795 813 3795 672 3795 
L 550 3795 
L 550 3520 
L 672 3520 
C 896 3520 1235 3558 1491 3641 
L 1491 275 
L 602 275 
L 602 0 
C 870 12 1542 12 1843 12 
C 2144 12 2822 12 3091 0 
L 3091 275 
L 2214 275 
L 2214 4034 
z
" transform="scale(0.015625)"/>
       </defs>
       <use xlink:href="#CMBX12-31" transform="scale(0.996264)"/>
      </g>
     </g>
    </g>
    <g id="xtick_2">
     <g id="line2d_2">
      <g>
       <use xlink:href="#m4c655a99a7" x="161.529499" y="256.414399" style="stroke: #000000; stroke-width: 0.8"/>
      </g>
     </g>
     <g id="text_2">
      <!-- $\mathdefault{2}$ -->
      <g transform="translate(157.606709 273.100275) scale(0.14 -0.14)">
       <defs>
        <path id="CMBX12-32" d="M 3232 1378 
L 2963 1378 
C 2944 1243 2899 864 2803 800 
C 2752 755 2253 755 2157 755 
L 1165 755 
C 1408 960 1990 1448 2086 1519 
C 2797 2052 3232 2379 3232 2995 
C 3232 3759 2547 4224 1702 4224 
C 979 4224 358 3806 358 3187 
C 358 2848 634 2752 781 2752 
C 979 2752 1210 2886 1210 3180 
C 1210 3449 1011 3584 813 3610 
C 1069 3921 1408 3948 1542 3948 
C 2131 3948 2413 3449 2413 2988 
C 2413 2488 2074 2026 1811 1750 
L 422 294 
C 358 236 358 224 358 108 
L 358 0 
L 3046 0 
L 3232 1378 
z
" transform="scale(0.015625)"/>
       </defs>
       <use xlink:href="#CMBX12-32" transform="scale(0.996264)"/>
      </g>
     </g>
    </g>
    <g id="xtick_3">
     <g id="line2d_3">
      <g>
       <use xlink:href="#m4c655a99a7" x="221.170425" y="256.414399" style="stroke: #000000; stroke-width: 0.8"/>
      </g>
     </g>
     <g id="text_3">
      <!-- $\mathdefault{3}$ -->
      <g transform="translate(217.247636 273.100275) scale(0.14 -0.14)">
       <defs>
        <path id="CMBX12-33" d="M 1670 2143 
C 2387 2143 2387 1473 2387 1164 
C 2387 876 2387 192 1696 192 
C 1562 192 1139 211 832 434 
C 1107 492 1203 691 1203 883 
C 1203 1145 1018 1331 755 1331 
C 486 1331 301 1145 301 876 
C 301 283 941 -64 1728 -64 
C 2784 -64 3290 524 3290 1164 
C 3290 1479 3130 2092 2138 2265 
C 2701 2436 3091 2824 3091 3327 
C 3091 3812 2630 4224 1741 4224 
C 1024 4224 499 3839 499 3315 
C 499 2995 749 2892 915 2892 
C 1101 2892 1325 3014 1325 3308 
C 1325 3455 1261 3673 960 3718 
C 1229 3993 1664 3993 1702 3993 
C 2272 3993 2272 3539 2272 3347 
C 2272 3155 2246 2861 2042 2605 
C 1875 2392 1709 2380 1466 2368 
C 1389 2361 1261 2355 1235 2342 
C 1197 2323 1197 2278 1197 2252 
C 1197 2143 1235 2143 1363 2143 
L 1670 2143 
z
" transform="scale(0.015625)"/>
       </defs>
       <use xlink:href="#CMBX12-33" transform="scale(0.996264)"/>
      </g>
     </g>
    </g>
    <g id="xtick_4">
     <g id="line2d_4">
      <g>
       <use xlink:href="#m4c655a99a7" x="280.811352" y="256.414399" style="stroke: #000000; stroke-width: 0.8"/>
      </g>
     </g>
     <g id="text_4">
      <!-- $\mathdefault{4}$ -->
      <g transform="translate(276.888562 273.100275) scale(0.14 -0.14)">
       <defs>
        <path id="CMBX12-34" d="M 2771 1004 
L 3392 1004 
L 3392 1280 
L 2771 1280 
L 2771 4038 
C 2771 4198 2765 4224 2605 4224 
C 2490 4224 2477 4224 2400 4127 
L 198 1280 
L 198 1004 
L 2016 1004 
L 2016 275 
L 1318 275 
L 1318 0 
C 1504 12 2138 12 2368 12 
C 2586 12 3219 12 3392 0 
L 3392 275 
L 2771 275 
L 2771 1004 
z
M 2074 3324 
L 2074 1280 
L 493 1280 
L 2074 3324 
z
" transform="scale(0.015625)"/>
       </defs>
       <use xlink:href="#CMBX12-34" transform="scale(0.996264)"/>
      </g>
     </g>
    </g>
    <g id="text_5">
     <!-- $L_2$ [m] -->
     <g transform="translate(171.183338 290.273076) scale(0.14 -0.14)">
      <defs>
       <path id="CMMIB10-4c" d="M 2822 3979 
C 2848 4070 2854 4076 2867 4083 
C 2880 4089 2989 4115 3322 4115 
L 3533 4115 
C 3661 4115 3763 4115 3763 4300 
C 3763 4416 3642 4416 3616 4416 
C 3430 4416 3238 4403 3046 4403 
C 2867 4403 2688 4396 2509 4396 
C 2330 4396 2150 4403 1978 4403 
C 1811 4403 1645 4416 1485 4416 
C 1427 4416 1299 4416 1299 4230 
C 1299 4115 1382 4115 1568 4115 
C 1702 4115 1824 4108 1958 4102 
L 1043 429 
C 1018 326 1011 320 896 307 
C 787 300 659 300 557 300 
C 390 300 378 300 352 288 
C 275 243 275 140 275 115 
C 275 0 390 0 493 0 
L 3731 0 
C 3904 0 3910 0 3962 140 
C 4032 320 4525 1589 4525 1647 
C 4525 1744 4429 1763 4371 1763 
C 4262 1763 4250 1737 4198 1602 
C 4019 1151 3667 300 2579 300 
L 2067 300 
C 1971 300 1958 300 1914 307 
L 2822 3979 
z
" transform="scale(0.015625)"/>
       <path id="CMR17-5b" d="M 1504 -1600 
L 1504 -1376 
L 902 -1376 
L 902 4575 
L 1504 4575 
L 1504 4800 
L 678 4800 
L 678 -1600 
L 1504 -1600 
z
" transform="scale(0.015625)"/>
       <path id="CMR17-6d" d="M 4326 1954 
C 4326 2276 4269 2816 3507 2816 
C 3072 2816 2771 2520 2656 2173 
L 2650 2173 
C 2573 2700 2195 2816 1837 2816 
C 1331 2816 1069 2424 973 2166 
L 966 2166 
L 966 2816 
L 211 2745 
L 211 2578 
C 589 2578 646 2540 646 2231 
L 646 443 
C 646 198 621 166 211 166 
L 211 0 
C 365 12 646 12 813 12 
C 979 12 1267 12 1421 0 
L 1421 166 
C 1011 166 986 192 986 443 
L 986 1678 
C 986 2269 1344 2713 1792 2713 
C 2266 2713 2317 2289 2317 1980 
L 2317 443 
C 2317 198 2291 166 1882 166 
L 1882 0 
C 2035 12 2317 12 2483 12 
C 2650 12 2938 12 3091 0 
L 3091 166 
C 2682 166 2656 192 2656 443 
L 2656 1678 
C 2656 2269 3014 2713 3462 2713 
C 3936 2713 3987 2289 3987 1980 
L 3987 443 
C 3987 198 3962 166 3552 166 
L 3552 0 
C 3706 12 3987 12 4154 12 
C 4320 12 4608 12 4762 0 
L 4762 166 
C 4352 166 4326 192 4326 443 
L 4326 1954 
z
" transform="scale(0.015625)"/>
       <path id="CMR17-5d" d="M 915 4800 
L 90 4800 
L 90 4575 
L 691 4575 
L 691 -1376 
L 90 -1376 
L 90 -1600 
L 915 -1600 
L 915 4800 
z
" transform="scale(0.015625)"/>
      </defs>
      <use xlink:href="#CMMIB10-4c" transform="scale(0.996264)"/>
      <use xlink:href="#CMBX12-32" transform="translate(75.272857 -14.943915) scale(0.697382)"/>
      <use xlink:href="#CMR17-5b" transform="translate(145.074668 0) scale(0.996264)"/>
      <use xlink:href="#CMR17-6d" transform="translate(169.945727 0) scale(0.996264)"/>
      <use xlink:href="#CMR17-5d" transform="translate(246.865316 0) scale(0.996264)"/>
     </g>
    </g>
   </g>
   <g id="matplotlib.axis_2">
    <g id="ytick_1">
     <g id="line2d_5">
      <defs>
       <path id="mb82eacf94e" d="M 0 0 
L -3.5 0 
" style="stroke: #000000; stroke-width: 0.8"/>
      </defs>
      <g>
       <use xlink:href="#mb82eacf94e" x="60.139924" y="233.449021" style="stroke: #000000; stroke-width: 0.8"/>
      </g>
     </g>
     <g id="text_6">
      <!-- $\mathdefault{0.06}$ -->
      <g transform="translate(25.147696 238.291959) scale(0.14 -0.14)">
       <defs>
        <path id="CMBX12-30" d="M 3309 2060 
C 3309 2677 3309 4224 1798 4224 
C 282 4224 282 2683 282 2060 
C 282 1444 282 -64 1792 -64 
C 3302 -64 3309 1424 3309 2060 
z
M 1798 147 
C 1594 147 1440 230 1312 365 
C 1152 526 1050 628 1050 2137 
C 1050 2587 1050 2998 1101 3331 
C 1190 3967 1651 4012 1792 4012 
C 1997 4012 2394 3916 2483 3376 
C 2541 3049 2541 2529 2541 2137 
C 2541 622 2445 532 2253 339 
C 2125 211 1952 147 1798 147 
z
" transform="scale(0.015625)"/>
        <path id="CMMIB10-3a" d="M 1517 499 
C 1517 774 1293 998 1018 998 
C 742 998 518 774 518 499 
C 518 224 742 0 1018 0 
C 1293 0 1517 224 1517 499 
z
" transform="scale(0.015625)"/>
        <path id="CMBX12-36" d="M 1114 2335 
C 1114 2727 1133 3142 1312 3488 
C 1453 3756 1779 3993 2195 3993 
C 2317 3993 2547 3975 2701 3827 
C 2458 3801 2355 3622 2355 3449 
C 2355 3219 2528 3072 2733 3072 
C 2899 3072 3110 3180 3110 3462 
C 3110 3845 2854 4224 2182 4224 
C 1382 4224 301 3737 301 2046 
C 301 1616 301 -64 1818 -64 
C 2662 -64 3290 435 3290 1334 
C 3290 2232 2669 2707 1907 2707 
C 1779 2707 1370 2707 1114 2162 
L 1114 2335 
z
M 1811 192 
C 1402 192 1242 538 1216 589 
C 1126 801 1126 1315 1126 1372 
C 1126 2162 1466 2496 1843 2496 
C 2477 2496 2477 1982 2477 1340 
C 2477 705 2477 192 1811 192 
z
" transform="scale(0.015625)"/>
       </defs>
       <use xlink:href="#CMBX12-30" transform="scale(0.996264)"/>
       <use xlink:href="#CMMIB10-3a" transform="translate(56.039851 0) scale(0.996264)"/>
       <use xlink:href="#CMBX12-30" transform="translate(87.864782 0) scale(0.996264)"/>
       <use xlink:href="#CMBX12-36" transform="translate(143.904633 0) scale(0.996264)"/>
      </g>
     </g>
    </g>
    <g id="ytick_2">
     <g id="line2d_6">
      <g>
       <use xlink:href="#mb82eacf94e" x="60.139924" y="192.478608" style="stroke: #000000; stroke-width: 0.8"/>
      </g>
     </g>
     <g id="text_7">
      <!-- $\mathdefault{0.08}$ -->
      <g transform="translate(25.147696 197.321546) scale(0.14 -0.14)">
       <defs>
        <path id="CMBX12-38" d="M 2413 2375 
C 2733 2542 3091 2780 3091 3280 
C 3091 3942 2502 4224 1805 4224 
C 954 4224 499 3736 499 3113 
C 499 2767 672 2381 1146 2131 
C 422 1810 301 1367 301 1033 
C 301 294 941 -64 1786 -64 
C 2733 -64 3290 448 3290 1193 
C 3290 1893 2739 2195 2413 2375 
z
M 1261 3036 
C 1133 3107 954 3255 954 3467 
C 954 3980 1638 3993 1786 3993 
C 2330 3993 2637 3704 2637 3280 
C 2637 3017 2522 2741 2157 2529 
L 1261 3036 
z
M 1408 1977 
L 2291 1469 
C 2502 1347 2778 1193 2778 866 
C 2778 352 2266 192 1805 192 
C 1171 192 813 532 813 1039 
C 813 1508 1101 1803 1408 1977 
z
" transform="scale(0.015625)"/>
       </defs>
       <use xlink:href="#CMBX12-30" transform="scale(0.996264)"/>
       <use xlink:href="#CMMIB10-3a" transform="translate(56.039851 0) scale(0.996264)"/>
       <use xlink:href="#CMBX12-30" transform="translate(87.864782 0) scale(0.996264)"/>
       <use xlink:href="#CMBX12-38" transform="translate(143.904633 0) scale(0.996264)"/>
      </g>
     </g>
    </g>
    <g id="ytick_3">
     <g id="line2d_7">
      <g>
       <use xlink:href="#mb82eacf94e" x="60.139924" y="151.508195" style="stroke: #000000; stroke-width: 0.8"/>
      </g>
     </g>
     <g id="text_8">
      <!-- $\mathdefault{0.10}$ -->
      <g transform="translate(25.147696 156.351133) scale(0.14 -0.14)">
       <use xlink:href="#CMBX12-30" transform="scale(0.996264)"/>
       <use xlink:href="#CMMIB10-3a" transform="translate(56.039851 0) scale(0.996264)"/>
       <use xlink:href="#CMBX12-31" transform="translate(87.864782 0) scale(0.996264)"/>
       <use xlink:href="#CMBX12-30" transform="translate(143.904633 0) scale(0.996264)"/>
      </g>
     </g>
    </g>
    <g id="ytick_4">
     <g id="line2d_8">
      <g>
       <use xlink:href="#mb82eacf94e" x="60.139924" y="110.537782" style="stroke: #000000; stroke-width: 0.8"/>
      </g>
     </g>
     <g id="text_9">
      <!-- $\mathdefault{0.12}$ -->
      <g transform="translate(25.147696 115.38072) scale(0.14 -0.14)">
       <use xlink:href="#CMBX12-30" transform="scale(0.996264)"/>
       <use xlink:href="#CMMIB10-3a" transform="translate(56.039851 0) scale(0.996264)"/>
       <use xlink:href="#CMBX12-31" transform="translate(87.864782 0) scale(0.996264)"/>
       <use xlink:href="#CMBX12-32" transform="translate(143.904633 0) scale(0.996264)"/>
      </g>
     </g>
    </g>
    <g id="ytick_5">
     <g id="line2d_9">
      <g>
       <use xlink:href="#mb82eacf94e" x="60.139924" y="69.567369" style="stroke: #000000; stroke-width: 0.8"/>
      </g>
     </g>
     <g id="text_10">
      <!-- $\mathdefault{0.14}$ -->
      <g transform="translate(25.147696 74.410307) scale(0.14 -0.14)">
       <use xlink:href="#CMBX12-30" transform="scale(0.996264)"/>
       <use xlink:href="#CMMIB10-3a" transform="translate(56.039851 0) scale(0.996264)"/>
       <use xlink:href="#CMBX12-31" transform="translate(87.864782 0) scale(0.996264)"/>
       <use xlink:href="#CMBX12-34" transform="translate(143.904633 0) scale(0.996264)"/>
      </g>
     </g>
    </g>
    <g id="ytick_6">
     <g id="line2d_10">
      <g>
       <use xlink:href="#mb82eacf94e" x="60.139924" y="28.596955" style="stroke: #000000; stroke-width: 0.8"/>
      </g>
     </g>
     <g id="text_11">
      <!-- $\mathdefault{0.16}$ -->
      <g transform="translate(25.147696 33.439894) scale(0.14 -0.14)">
       <use xlink:href="#CMBX12-30" transform="scale(0.996264)"/>
       <use xlink:href="#CMMIB10-3a" transform="translate(56.039851 0) scale(0.996264)"/>
       <use xlink:href="#CMBX12-31" transform="translate(87.864782 0) scale(0.996264)"/>
       <use xlink:href="#CMBX12-36" transform="translate(143.904633 0) scale(0.996264)"/>
      </g>
     </g>
    </g>
    <g id="text_12">
     <!-- Resolution [meV] -->
     <g transform="translate(17.660772 183.339699) rotate(-90) scale(0.14 -0.14)">
      <defs>
       <path id="CMR17-52" d="M 2509 2156 
C 3117 2278 3629 2689 3629 3203 
C 3629 3806 2950 4352 2054 4352 
L 333 4352 
L 333 4185 
C 774 4185 845 4185 845 3896 
L 845 428 
C 845 140 774 140 333 140 
L 333 -26 
C 518 -13 851 -13 1050 -13 
C 1248 -13 1581 -13 1766 -26 
L 1766 140 
C 1325 140 1254 140 1254 428 
L 1254 2112 
L 2003 2112 
C 2368 2112 2573 1964 2662 1881 
C 2918 1632 2918 1459 2918 1024 
C 2918 595 2918 377 3110 160 
C 3354 -103 3680 -128 3821 -128 
C 4294 -128 4365 403 4365 512 
C 4365 550 4365 595 4307 595 
C 4256 595 4250 556 4250 531 
C 4218 115 4032 -26 3834 -26 
C 3482 -26 3443 377 3405 768 
C 3386 902 3373 998 3360 1139 
C 3322 1459 3270 1926 2509 2156 
z
M 1984 2214 
L 1254 2214 
L 1254 3935 
C 1254 4153 1267 4185 1523 4185 
L 1990 4185 
C 2522 4185 3142 3999 3142 3203 
C 3142 2374 2464 2214 1984 2214 
z
" transform="scale(0.015625)"/>
       <path id="CMR17-65" d="M 2438 1503 
C 2464 1529 2464 1542 2464 1606 
C 2464 2251 2118 2816 1389 2816 
C 710 2816 173 2175 173 1394 
C 173 554 781 -64 1459 -64 
C 2176 -64 2458 619 2458 755 
C 2458 800 2419 800 2406 800 
C 2362 800 2355 787 2330 709 
C 2189 270 1837 51 1504 51 
C 1229 51 954 206 781 490 
C 582 819 582 1200 582 1503 
L 2438 1503 
z
M 589 1600 
C 634 2511 1126 2713 1382 2713 
C 1818 2713 2112 2308 2118 1600 
L 589 1600 
z
" transform="scale(0.015625)"/>
       <path id="CMR17-73" d="M 1978 2688 
C 1978 2803 1971 2809 1933 2809 
C 1907 2809 1901 2803 1824 2707 
C 1805 2681 1747 2617 1728 2592 
C 1523 2809 1235 2816 1126 2816 
C 416 2816 160 2444 160 2073 
C 160 1497 813 1363 998 1324 
C 1402 1241 1542 1216 1677 1100 
C 1760 1024 1901 883 1901 652 
C 1901 384 1747 38 1158 38 
C 602 38 403 460 288 1024 
C 269 1113 269 1120 218 1120 
C 166 1120 160 1113 160 985 
L 160 64 
C 160 -52 166 -58 205 -58 
C 237 -58 243 -52 275 0 
C 314 57 410 211 448 275 
C 576 102 800 -64 1158 -64 
C 1792 -64 2131 281 2131 780 
C 2131 1107 1958 1280 1875 1356 
C 1683 1555 1459 1600 1190 1651 
C 838 1728 390 1817 390 2208 
C 390 2374 480 2726 1126 2726 
C 1811 2726 1850 2086 1862 1881 
C 1869 1849 1901 1843 1920 1843 
C 1978 1843 1978 1862 1978 1971 
L 1978 2688 
z
" transform="scale(0.015625)"/>
       <path id="CMR17-6f" d="M 2758 1356 
C 2758 2176 2163 2816 1466 2816 
C 768 2816 173 2176 173 1356 
C 173 550 768 -64 1466 -64 
C 2163 -64 2758 550 2758 1356 
z
M 1466 51 
C 1165 51 909 230 762 480 
C 602 768 582 1126 582 1408 
C 582 1676 595 2009 762 2297 
C 890 2508 1139 2713 1466 2713 
C 1754 2713 1997 2553 2150 2329 
C 2349 2028 2349 1606 2349 1408 
C 2349 1158 2336 774 2163 467 
C 1984 172 1709 51 1466 51 
z
" transform="scale(0.015625)"/>
       <path id="CMR17-6c" d="M 979 4416 
L 218 4345 
L 218 4179 
C 595 4179 653 4141 653 3835 
L 653 439 
C 653 198 627 166 218 166 
L 218 0 
C 371 12 653 12 813 12 
C 979 12 1261 12 1414 0 
L 1414 166 
C 1005 166 979 191 979 439 
L 979 4416 
z
" transform="scale(0.015625)"/>
       <path id="CMR17-75" d="M 1882 2745 
L 1882 2579 
C 2259 2579 2317 2540 2317 2229 
L 2317 1053 
C 2317 510 2029 38 1555 38 
C 1030 38 986 355 986 691 
L 986 2816 
L 211 2745 
L 211 2579 
C 467 2579 640 2579 646 2320 
L 646 1079 
C 646 646 646 368 813 187 
C 896 103 1056 -64 1517 -64 
C 2061 -64 2272 400 2323 536 
L 2330 536 
L 2330 -64 
L 3091 -13 
L 3091 154 
C 2714 154 2656 193 2656 503 
L 2656 2816 
L 1882 2745 
z
" transform="scale(0.015625)"/>
       <path id="CMR17-74" d="M 966 2585 
L 1862 2585 
L 1862 2752 
L 966 2752 
L 966 3968 
L 851 3968 
C 838 3292 614 2700 70 2687 
L 70 2585 
L 627 2585 
L 627 778 
C 627 655 627 -64 1370 -64 
C 1747 -64 1965 308 1965 784 
L 1965 1151 
L 1850 1151 
L 1850 790 
C 1850 347 1677 51 1408 51 
C 1222 51 966 179 966 765 
L 966 2585 
z
" transform="scale(0.015625)"/>
       <path id="CMR17-69" d="M 992 3961 
C 992 4102 877 4224 730 4224 
C 589 4224 467 4108 467 3961 
C 467 3820 582 3699 730 3699 
C 870 3699 992 3814 992 3961 
z
M 243 2745 
L 243 2579 
C 602 2579 653 2540 653 2231 
L 653 443 
C 653 198 627 166 218 166 
L 218 0 
C 371 12 646 12 806 12 
C 960 12 1222 12 1370 0 
L 1370 166 
C 992 166 979 205 979 436 
L 979 2816 
L 243 2745 
z
" transform="scale(0.015625)"/>
       <path id="CMR17-6e" d="M 2656 1954 
C 2656 2282 2592 2816 1837 2816 
C 1331 2816 1069 2424 973 2166 
L 966 2166 
L 966 2816 
L 211 2745 
L 211 2578 
C 589 2578 646 2540 646 2231 
L 646 443 
C 646 198 621 166 211 166 
L 211 0 
C 365 12 646 12 813 12 
C 979 12 1267 12 1421 0 
L 1421 166 
C 1011 166 986 192 986 443 
L 986 1678 
C 986 2269 1344 2713 1792 2713 
C 2266 2713 2317 2289 2317 1980 
L 2317 443 
C 2317 198 2291 166 1882 166 
L 1882 0 
C 2035 12 2317 12 2483 12 
C 2650 12 2938 12 3091 0 
L 3091 166 
C 2682 166 2656 192 2656 443 
L 2656 1954 
z
" transform="scale(0.015625)"/>
       <path id="CMR17-56" d="M 3776 3762 
C 3834 3903 3936 4179 4365 4185 
L 4365 4352 
C 4218 4339 4051 4339 3891 4339 
C 3738 4339 3475 4339 3328 4352 
L 3328 4185 
C 3648 4166 3661 3942 3661 3903 
C 3661 3833 3642 3788 3622 3737 
L 2362 448 
L 1043 3903 
C 1024 3948 1011 3980 1011 4012 
C 1011 4185 1267 4185 1402 4185 
L 1402 4352 
C 1197 4339 896 4339 685 4339 
C 518 4339 218 4339 64 4352 
L 64 4185 
C 435 4185 506 4160 582 3955 
L 2106 -26 
C 2138 -116 2144 -128 2214 -128 
C 2285 -128 2291 -116 2323 -26 
L 3776 3762 
z
" transform="scale(0.015625)"/>
      </defs>
      <use xlink:href="#CMR17-52" transform="scale(0.996264)"/>
      <use xlink:href="#CMR17-65" transform="translate(67.791102 0) scale(0.996264)"/>
      <use xlink:href="#CMR17-73" transform="translate(108.276762 0) scale(0.996264)"/>
      <use xlink:href="#CMR17-6f" transform="translate(144.0781 0) scale(0.996264)"/>
      <use xlink:href="#CMR17-6c" transform="translate(189.768577 0) scale(0.996264)"/>
      <use xlink:href="#CMR17-75" transform="translate(214.639636 0) scale(0.996264)"/>
      <use xlink:href="#CMR17-74" transform="translate(265.535005 0) scale(0.996264)"/>
      <use xlink:href="#CMR17-69" transform="translate(300.815773 0) scale(0.996264)"/>
      <use xlink:href="#CMR17-6f" transform="translate(325.686832 0) scale(0.996264)"/>
      <use xlink:href="#CMR17-6e" transform="translate(371.377309 0) scale(0.996264)"/>
      <use xlink:href="#CMR17-5b" transform="translate(452.348645 0) scale(0.996264)"/>
      <use xlink:href="#CMR17-6d" transform="translate(477.219703 0) scale(0.996264)"/>
      <use xlink:href="#CMR17-65" transform="translate(554.139293 0) scale(0.996264)"/>
      <use xlink:href="#CMR17-56" transform="translate(594.624954 0) scale(0.996264)"/>
      <use xlink:href="#CMR17-5d" transform="translate(663.697384 0) scale(0.996264)"/>
     </g>
    </g>
   </g>
   <g id="line2d_11">
    <path d="M 72.068109 18.527927 
L 78.032202 39.612119 
L 83.996294 51.281998 
L 89.960387 56.605739 
L 95.92448 75.796043 
L 101.888572 85.979855 
L 107.852665 96.702348 
L 113.816758 105.621953 
L 119.78085 120.335085 
L 125.744943 124.435578 
L 131.709035 130.631757 
L 137.673128 139.969909 
L 143.637221 145.681365 
L 149.601313 151.269135 
L 155.565406 147.893052 
L 161.529499 164.168673 
L 167.493591 164.161204 
L 173.457684 176.597547 
L 179.421777 181.313503 
L 185.385869 179.25707 
L 191.349962 185.172268 
L 197.314055 188.928235 
L 203.278147 191.252046 
L 209.24224 202.908012 
L 215.206332 207.645355 
L 221.170425 208.927897 
L 227.134518 204.322997 
L 233.09861 212.75083 
L 239.062703 219.908001 
L 245.026796 215.635901 
L 250.990888 216.849745 
L 256.954981 219.791635 
L 262.919074 228.631012 
L 268.883166 226.323397 
L 274.847259 237.621335 
L 280.811352 234.563925 
L 286.775444 234.058671 
L 292.739537 239.419172 
L 298.703629 245.086472 
L 304.667722 244.592773 
L 310.631815 238.091589 
" clip-path="url(#pe05da642de)" style="fill: none; stroke: #1f77b4; stroke-width: 1.5; stroke-linecap: square"/>
   </g>
   <g id="LineCollection_1">
    <path d="M 72.068109 245.086472 
L 72.068109 18.527927 
" clip-path="url(#pe05da642de)" style="fill: none; stroke-dasharray: 5.55,2.4; stroke-dashoffset: 0; stroke: #000000; stroke-width: 1.5"/>
   </g>
   <g id="patch_3">
    <path d="M 60.139924 256.414399 
L 60.139924 7.2 
" style="fill: none; stroke: #000000; stroke-width: 1.75; stroke-linejoin: miter; stroke-linecap: square"/>
   </g>
   <g id="patch_4">
    <path d="M 322.56 256.414399 
L 322.56 7.2 
" style="fill: none; stroke: #000000; stroke-width: 1.75; stroke-linejoin: miter; stroke-linecap: square"/>
   </g>
   <g id="patch_5">
    <path d="M 60.139924 256.414399 
L 322.56 256.414399 
" style="fill: none; stroke: #000000; stroke-width: 1.75; stroke-linejoin: miter; stroke-linecap: square"/>
   </g>
   <g id="patch_6">
    <path d="M 60.139924 7.2 
L 322.56 7.2 
" style="fill: none; stroke: #000000; stroke-width: 1.75; stroke-linejoin: miter; stroke-linecap: square"/>
   </g>
   <g id="text_13">
    <!-- $L_2=0.50$ -->
    <g transform="translate(75.050155 245.086472) scale(0.14 -0.14)">
     <defs>
      <path id="CMBX12-3d" d="M 4934 2112 
C 5030 2112 5197 2112 5197 2291 
C 5197 2464 5024 2464 4941 2464 
L 653 2464 
C 570 2464 397 2464 397 2291 
C 397 2112 563 2112 659 2112 
L 4934 2112 
z
M 4941 735 
C 5024 735 5197 735 5197 908 
C 5197 1088 5030 1088 4934 1088 
L 659 1088 
C 563 1088 397 1088 397 908 
C 397 735 570 735 653 735 
L 4941 735 
z
" transform="scale(0.015625)"/>
      <path id="CMBX12-35" d="M 986 3359 
C 1203 3308 1376 3308 1472 3308 
C 1626 3308 1990 3308 2419 3571 
C 2618 3692 2950 3980 2950 4115 
C 2950 4147 2950 4224 2874 4224 
C 2867 4224 2854 4224 2790 4191 
C 2496 4090 2182 4032 1824 4032 
C 1459 4032 1152 4090 851 4198 
C 806 4211 787 4224 768 4224 
C 691 4224 691 4159 691 4058 
L 691 2179 
C 691 2055 691 1984 819 1984 
C 883 1984 896 1991 947 2055 
C 1024 2146 1254 2432 1798 2432 
C 2387 2432 2387 1822 2387 1312 
C 2387 851 2387 192 1600 192 
C 1363 192 960 280 742 640 
C 1082 640 1165 896 1165 1036 
C 1165 1267 998 1440 762 1440 
C 570 1440 358 1324 358 1024 
C 358 469 864 -64 1626 -64 
C 2611 -64 3232 501 3232 1292 
C 3232 2081 2701 2643 1824 2643 
C 1568 2643 1261 2592 986 2386 
L 986 3359 
z
" transform="scale(0.015625)"/>
     </defs>
     <use xlink:href="#CMMIB10-4c" transform="scale(0.996264)"/>
     <use xlink:href="#CMBX12-32" transform="translate(75.272857 -14.943915) scale(0.697382)"/>
     <use xlink:href="#CMBX12-3d" transform="translate(146.823633 0) scale(0.996264)"/>
     <use xlink:href="#CMBX12-30" transform="translate(265.821665 0) scale(0.996264)"/>
     <use xlink:href="#CMMIB10-3a" transform="translate(321.861516 0) scale(0.996264)"/>
     <use xlink:href="#CMBX12-35" transform="translate(353.686447 0) scale(0.996264)"/>
     <use xlink:href="#CMBX12-30" transform="translate(409.726298 0) scale(0.996264)"/>
    </g>
   </g>
  </g>
 </g>
 <defs>
  <clipPath id="pe05da642de">
   <rect x="60.139924" y="7.2" width="262.420076" height="249.214399"/>
  </clipPath>
 </defs>
</svg>
