<?xml version="1.0" encoding="utf-8" standalone="no"?>
<!DOCTYPE svg PUBLIC "-//W3C//DTD SVG 1.1//EN"
  "http://www.w3.org/Graphics/SVG/1.1/DTD/svg11.dtd">
<svg xmlns:xlink="http://www.w3.org/1999/xlink" width="329.76pt" height="300.96pt" viewBox="0 0 329.76 300.96" xmlns="http://www.w3.org/2000/svg" version="1.1">
 <metadata>
  <rdf:RDF xmlns:dc="http://purl.org/dc/elements/1.1/" xmlns:cc="http://creativecommons.org/ns#" xmlns:rdf="http://www.w3.org/1999/02/22-rdf-syntax-ns#">
   <cc:Work>
    <dc:type rdf:resource="http://purl.org/dc/dcmitype/StillImage"/>
    <dc:date>2024-05-22T11:59:08.200355</dc:date>
    <dc:format>image/svg+xml</dc:format>
    <dc:creator>
     <cc:Agent>
      <dc:title>Matplotlib v3.6.3, https://matplotlib.org/</dc:title>
     </cc:Agent>
    </dc:creator>
   </cc:Work>
  </rdf:RDF>
 </metadata>
 <defs>
  <style type="text/css">*{stroke-linejoin: round; stroke-linecap: butt}</style>
 </defs>
 <g id="figure_1">
  <g id="patch_1">
   <path d="M 0 300.96 
L 329.76 300.96 
L 329.76 0 
L 0 0 
z
" style="fill: #ffffff"/>
  </g>
  <g id="axes_1">
   <g id="patch_2">
    <path d="M 53.187009 256.414399 
L 322.56 256.414399 
L 322.56 20.701072 
L 53.187009 20.701072 
z
" style="fill: #ffffff"/>
   </g>
   <g id="matplotlib.axis_1">
    <g id="xtick_1">
     <g id="line2d_1">
      <defs>
       <path id="m6bc99ad37e" d="M 0 0 
L 0 3.5 
" style="stroke: #000000; stroke-width: 0.8"/>
      </defs>
      <g>
       <use xlink:href="#m6bc99ad37e" x="96.041803" y="256.414399" style="stroke: #000000; stroke-width: 0.8"/>
      </g>
     </g>
     <g id="text_1">
      <!-- $\mathdefault{1}$ -->
      <g transform="translate(92.119013 273.100275) scale(0.14 -0.14)">
       <defs>
        <path id="CMBX12-31" d="M 2214 4034 
C 2214 4224 2202 4224 1997 4224 
C 1523 3795 813 3795 672 3795 
L 550 3795 
L 550 3520 
L 672 3520 
C 896 3520 1235 3558 1491 3641 
L 1491 275 
L 602 275 
L 602 0 
C 870 12 1542 12 1843 12 
C 2144 12 2822 12 3091 0 
L 3091 275 
L 2214 275 
L 2214 4034 
z
" transform="scale(0.015625)"/>
       </defs>
       <use xlink:href="#CMBX12-31" transform="scale(0.996264)"/>
      </g>
     </g>
    </g>
    <g id="xtick_2">
     <g id="line2d_2">
      <g>
       <use xlink:href="#m6bc99ad37e" x="157.262937" y="256.414399" style="stroke: #000000; stroke-width: 0.8"/>
      </g>
     </g>
     <g id="text_2">
      <!-- $\mathdefault{2}$ -->
      <g transform="translate(153.340148 273.100275) scale(0.14 -0.14)">
       <defs>
        <path id="CMBX12-32" d="M 3232 1378 
L 2963 1378 
C 2944 1243 2899 864 2803 800 
C 2752 755 2253 755 2157 755 
L 1165 755 
C 1408 960 1990 1448 2086 1519 
C 2797 2052 3232 2379 3232 2995 
C 3232 3759 2547 4224 1702 4224 
C 979 4224 358 3806 358 3187 
C 358 2848 634 2752 781 2752 
C 979 2752 1210 2886 1210 3180 
C 1210 3449 1011 3584 813 3610 
C 1069 3921 1408 3948 1542 3948 
C 2131 3948 2413 3449 2413 2988 
C 2413 2488 2074 2026 1811 1750 
L 422 294 
C 358 236 358 224 358 108 
L 358 0 
L 3046 0 
L 3232 1378 
z
" transform="scale(0.015625)"/>
       </defs>
       <use xlink:href="#CMBX12-32" transform="scale(0.996264)"/>
      </g>
     </g>
    </g>
    <g id="xtick_3">
     <g id="line2d_3">
      <g>
       <use xlink:href="#m6bc99ad37e" x="218.484071" y="256.414399" style="stroke: #000000; stroke-width: 0.8"/>
      </g>
     </g>
     <g id="text_3">
      <!-- $\mathdefault{3}$ -->
      <g transform="translate(214.561282 273.100275) scale(0.14 -0.14)">
       <defs>
        <path id="CMBX12-33" d="M 1670 2143 
C 2387 2143 2387 1473 2387 1164 
C 2387 876 2387 192 1696 192 
C 1562 192 1139 211 832 434 
C 1107 492 1203 691 1203 883 
C 1203 1145 1018 1331 755 1331 
C 486 1331 301 1145 301 876 
C 301 283 941 -64 1728 -64 
C 2784 -64 3290 524 3290 1164 
C 3290 1479 3130 2092 2138 2265 
C 2701 2436 3091 2824 3091 3327 
C 3091 3812 2630 4224 1741 4224 
C 1024 4224 499 3839 499 3315 
C 499 2995 749 2892 915 2892 
C 1101 2892 1325 3014 1325 3308 
C 1325 3455 1261 3673 960 3718 
C 1229 3993 1664 3993 1702 3993 
C 2272 3993 2272 3539 2272 3347 
C 2272 3155 2246 2861 2042 2605 
C 1875 2392 1709 2380 1466 2368 
C 1389 2361 1261 2355 1235 2342 
C 1197 2323 1197 2278 1197 2252 
C 1197 2143 1235 2143 1363 2143 
L 1670 2143 
z
" transform="scale(0.015625)"/>
       </defs>
       <use xlink:href="#CMBX12-33" transform="scale(0.996264)"/>
      </g>
     </g>
    </g>
    <g id="xtick_4">
     <g id="line2d_4">
      <g>
       <use xlink:href="#m6bc99ad37e" x="279.705206" y="256.414399" style="stroke: #000000; stroke-width: 0.8"/>
      </g>
     </g>
     <g id="text_4">
      <!-- $\mathdefault{4}$ -->
      <g transform="translate(275.782416 273.100275) scale(0.14 -0.14)">
       <defs>
        <path id="CMBX12-34" d="M 2771 1004 
L 3392 1004 
L 3392 1280 
L 2771 1280 
L 2771 4038 
C 2771 4198 2765 4224 2605 4224 
C 2490 4224 2477 4224 2400 4127 
L 198 1280 
L 198 1004 
L 2016 1004 
L 2016 275 
L 1318 275 
L 1318 0 
C 1504 12 2138 12 2368 12 
C 2586 12 3219 12 3392 0 
L 3392 275 
L 2771 275 
L 2771 1004 
z
M 2074 3324 
L 2074 1280 
L 493 1280 
L 2074 3324 
z
" transform="scale(0.015625)"/>
       </defs>
       <use xlink:href="#CMBX12-34" transform="scale(0.996264)"/>
      </g>
     </g>
    </g>
    <g id="text_5">
     <!-- $L_2$ [m] -->
     <g transform="translate(167.706881 290.273076) scale(0.14 -0.14)">
      <defs>
       <path id="CMMIB10-4c" d="M 2822 3979 
C 2848 4070 2854 4076 2867 4083 
C 2880 4089 2989 4115 3322 4115 
L 3533 4115 
C 3661 4115 3763 4115 3763 4300 
C 3763 4416 3642 4416 3616 4416 
C 3430 4416 3238 4403 3046 4403 
C 2867 4403 2688 4396 2509 4396 
C 2330 4396 2150 4403 1978 4403 
C 1811 4403 1645 4416 1485 4416 
C 1427 4416 1299 4416 1299 4230 
C 1299 4115 1382 4115 1568 4115 
C 1702 4115 1824 4108 1958 4102 
L 1043 429 
C 1018 326 1011 320 896 307 
C 787 300 659 300 557 300 
C 390 300 378 300 352 288 
C 275 243 275 140 275 115 
C 275 0 390 0 493 0 
L 3731 0 
C 3904 0 3910 0 3962 140 
C 4032 320 4525 1589 4525 1647 
C 4525 1744 4429 1763 4371 1763 
C 4262 1763 4250 1737 4198 1602 
C 4019 1151 3667 300 2579 300 
L 2067 300 
C 1971 300 1958 300 1914 307 
L 2822 3979 
z
" transform="scale(0.015625)"/>
       <path id="CMR17-5b" d="M 1504 -1600 
L 1504 -1376 
L 902 -1376 
L 902 4575 
L 1504 4575 
L 1504 4800 
L 678 4800 
L 678 -1600 
L 1504 -1600 
z
" transform="scale(0.015625)"/>
       <path id="CMR17-6d" d="M 4326 1954 
C 4326 2276 4269 2816 3507 2816 
C 3072 2816 2771 2520 2656 2173 
L 2650 2173 
C 2573 2700 2195 2816 1837 2816 
C 1331 2816 1069 2424 973 2166 
L 966 2166 
L 966 2816 
L 211 2745 
L 211 2578 
C 589 2578 646 2540 646 2231 
L 646 443 
C 646 198 621 166 211 166 
L 211 0 
C 365 12 646 12 813 12 
C 979 12 1267 12 1421 0 
L 1421 166 
C 1011 166 986 192 986 443 
L 986 1678 
C 986 2269 1344 2713 1792 2713 
C 2266 2713 2317 2289 2317 1980 
L 2317 443 
C 2317 198 2291 166 1882 166 
L 1882 0 
C 2035 12 2317 12 2483 12 
C 2650 12 2938 12 3091 0 
L 3091 166 
C 2682 166 2656 192 2656 443 
L 2656 1678 
C 2656 2269 3014 2713 3462 2713 
C 3936 2713 3987 2289 3987 1980 
L 3987 443 
C 3987 198 3962 166 3552 166 
L 3552 0 
C 3706 12 3987 12 4154 12 
C 4320 12 4608 12 4762 0 
L 4762 166 
C 4352 166 4326 192 4326 443 
L 4326 1954 
z
" transform="scale(0.015625)"/>
       <path id="CMR17-5d" d="M 915 4800 
L 90 4800 
L 90 4575 
L 691 4575 
L 691 -1376 
L 90 -1376 
L 90 -1600 
L 915 -1600 
L 915 4800 
z
" transform="scale(0.015625)"/>
      </defs>
      <use xlink:href="#CMMIB10-4c" transform="scale(0.996264)"/>
      <use xlink:href="#CMBX12-32" transform="translate(75.272857 -14.943915) scale(0.697382)"/>
      <use xlink:href="#CMR17-5b" transform="translate(145.074668 0) scale(0.996264)"/>
      <use xlink:href="#CMR17-6d" transform="translate(169.945727 0) scale(0.996264)"/>
      <use xlink:href="#CMR17-5d" transform="translate(246.865316 0) scale(0.996264)"/>
     </g>
    </g>
   </g>
   <g id="matplotlib.axis_2">
    <g id="ytick_1">
     <g id="line2d_5">
      <defs>
       <path id="m43954a6929" d="M 0 0 
L -3.5 0 
" style="stroke: #000000; stroke-width: 0.8"/>
      </defs>
      <g>
       <use xlink:href="#m43954a6929" x="53.187009" y="230.28762" style="stroke: #000000; stroke-width: 0.8"/>
      </g>
     </g>
     <g id="text_6">
      <!-- $\mathdefault{0.5}$ -->
      <g transform="translate(26.04036 235.130559) scale(0.14 -0.14)">
       <defs>
        <path id="CMBX12-30" d="M 3309 2060 
C 3309 2677 3309 4224 1798 4224 
C 282 4224 282 2683 282 2060 
C 282 1444 282 -64 1792 -64 
C 3302 -64 3309 1424 3309 2060 
z
M 1798 147 
C 1594 147 1440 230 1312 365 
C 1152 526 1050 628 1050 2137 
C 1050 2587 1050 2998 1101 3331 
C 1190 3967 1651 4012 1792 4012 
C 1997 4012 2394 3916 2483 3376 
C 2541 3049 2541 2529 2541 2137 
C 2541 622 2445 532 2253 339 
C 2125 211 1952 147 1798 147 
z
" transform="scale(0.015625)"/>
        <path id="CMMIB10-3a" d="M 1517 499 
C 1517 774 1293 998 1018 998 
C 742 998 518 774 518 499 
C 518 224 742 0 1018 0 
C 1293 0 1517 224 1517 499 
z
" transform="scale(0.015625)"/>
        <path id="CMBX12-35" d="M 986 3359 
C 1203 3308 1376 3308 1472 3308 
C 1626 3308 1990 3308 2419 3571 
C 2618 3692 2950 3980 2950 4115 
C 2950 4147 2950 4224 2874 4224 
C 2867 4224 2854 4224 2790 4191 
C 2496 4090 2182 4032 1824 4032 
C 1459 4032 1152 4090 851 4198 
C 806 4211 787 4224 768 4224 
C 691 4224 691 4159 691 4058 
L 691 2179 
C 691 2055 691 1984 819 1984 
C 883 1984 896 1991 947 2055 
C 1024 2146 1254 2432 1798 2432 
C 2387 2432 2387 1822 2387 1312 
C 2387 851 2387 192 1600 192 
C 1363 192 960 280 742 640 
C 1082 640 1165 896 1165 1036 
C 1165 1267 998 1440 762 1440 
C 570 1440 358 1324 358 1024 
C 358 469 864 -64 1626 -64 
C 2611 -64 3232 501 3232 1292 
C 3232 2081 2701 2643 1824 2643 
C 1568 2643 1261 2592 986 2386 
L 986 3359 
z
" transform="scale(0.015625)"/>
       </defs>
       <use xlink:href="#CMBX12-30" transform="scale(0.996264)"/>
       <use xlink:href="#CMMIB10-3a" transform="translate(56.039851 0) scale(0.996264)"/>
       <use xlink:href="#CMBX12-35" transform="translate(87.864782 0) scale(0.996264)"/>
      </g>
     </g>
    </g>
    <g id="ytick_2">
     <g id="line2d_6">
      <g>
       <use xlink:href="#m43954a6929" x="53.187009" y="192.112449" style="stroke: #000000; stroke-width: 0.8"/>
      </g>
     </g>
     <g id="text_7">
      <!-- $\mathdefault{1.0}$ -->
      <g transform="translate(26.04036 196.955387) scale(0.14 -0.14)">
       <use xlink:href="#CMBX12-31" transform="scale(0.996264)"/>
       <use xlink:href="#CMMIB10-3a" transform="translate(56.039851 0) scale(0.996264)"/>
       <use xlink:href="#CMBX12-30" transform="translate(87.864782 0) scale(0.996264)"/>
      </g>
     </g>
    </g>
    <g id="ytick_3">
     <g id="line2d_7">
      <g>
       <use xlink:href="#m43954a6929" x="53.187009" y="153.937278" style="stroke: #000000; stroke-width: 0.8"/>
      </g>
     </g>
     <g id="text_8">
      <!-- $\mathdefault{1.5}$ -->
      <g transform="translate(26.04036 158.780216) scale(0.14 -0.14)">
       <use xlink:href="#CMBX12-31" transform="scale(0.996264)"/>
       <use xlink:href="#CMMIB10-3a" transform="translate(56.039851 0) scale(0.996264)"/>
       <use xlink:href="#CMBX12-35" transform="translate(87.864782 0) scale(0.996264)"/>
      </g>
     </g>
    </g>
    <g id="ytick_4">
     <g id="line2d_8">
      <g>
       <use xlink:href="#m43954a6929" x="53.187009" y="115.762107" style="stroke: #000000; stroke-width: 0.8"/>
      </g>
     </g>
     <g id="text_9">
      <!-- $\mathdefault{2.0}$ -->
      <g transform="translate(26.04036 120.605045) scale(0.14 -0.14)">
       <use xlink:href="#CMBX12-32" transform="scale(0.996264)"/>
       <use xlink:href="#CMMIB10-3a" transform="translate(56.039851 0) scale(0.996264)"/>
       <use xlink:href="#CMBX12-30" transform="translate(87.864782 0) scale(0.996264)"/>
      </g>
     </g>
    </g>
    <g id="ytick_5">
     <g id="line2d_9">
      <g>
       <use xlink:href="#m43954a6929" x="53.187009" y="77.586936" style="stroke: #000000; stroke-width: 0.8"/>
      </g>
     </g>
     <g id="text_10">
      <!-- $\mathdefault{2.5}$ -->
      <g transform="translate(26.04036 82.429874) scale(0.14 -0.14)">
       <use xlink:href="#CMBX12-32" transform="scale(0.996264)"/>
       <use xlink:href="#CMMIB10-3a" transform="translate(56.039851 0) scale(0.996264)"/>
       <use xlink:href="#CMBX12-35" transform="translate(87.864782 0) scale(0.996264)"/>
      </g>
     </g>
    </g>
    <g id="ytick_6">
     <g id="line2d_10">
      <g>
       <use xlink:href="#m43954a6929" x="53.187009" y="39.411765" style="stroke: #000000; stroke-width: 0.8"/>
      </g>
     </g>
     <g id="text_11">
      <!-- $\mathdefault{3.0}$ -->
      <g transform="translate(26.04036 44.254703) scale(0.14 -0.14)">
       <use xlink:href="#CMBX12-33" transform="scale(0.996264)"/>
       <use xlink:href="#CMMIB10-3a" transform="translate(56.039851 0) scale(0.996264)"/>
       <use xlink:href="#CMBX12-30" transform="translate(87.864782 0) scale(0.996264)"/>
      </g>
     </g>
    </g>
    <g id="text_12">
     <!-- FOM [n/s/cm$^2$/meV] -->
     <g transform="translate(18.553436 202.898861) rotate(-90) scale(0.14 -0.14)">
      <defs>
       <path id="CMR17-46" d="M 3482 4339 
L 326 4339 
L 326 4172 
C 768 4172 838 4172 838 3883 
L 838 450 
C 838 166 768 166 326 166 
L 326 0 
C 512 12 870 12 1069 12 
C 1331 12 1638 12 1901 0 
L 1901 166 
L 1760 166 
C 1274 166 1261 229 1261 456 
L 1261 2073 
L 1837 2073 
C 2432 2073 2490 1865 2490 1334 
L 2605 1334 
L 2605 2991 
L 2490 2991 
C 2490 2451 2432 2240 1837 2240 
L 1261 2240 
L 1261 3922 
C 1261 4140 1274 4172 1530 4172 
L 2355 4172 
C 3322 4172 3430 3774 3520 2920 
L 3635 2920 
L 3482 4339 
z
" transform="scale(0.015625)"/>
       <path id="CMR17-4f" d="M 4307 2166 
C 4307 3488 3366 4480 2304 4480 
C 1216 4480 294 3475 294 2166 
C 294 857 1229 -128 2298 -128 
C 3392 -128 4307 876 4307 2166 
z
M 2304 -13 
C 1574 -13 781 722 781 2250 
C 781 3771 1651 4364 2298 4364 
C 2976 4364 3821 3752 3821 2250 
C 3821 696 3008 -13 2304 -13 
z
" transform="scale(0.015625)"/>
       <path id="CMR17-4d" d="M 1338 4249 
C 1299 4345 1293 4352 1158 4352 
L 339 4352 
L 339 4185 
C 781 4185 851 4185 851 3898 
L 851 624 
C 851 465 851 166 339 166 
L 339 0 
C 486 12 755 12 915 12 
C 1075 12 1344 12 1491 0 
L 1491 166 
C 979 166 979 465 979 624 
L 979 4159 
L 986 4159 
L 2490 102 
C 2515 38 2528 0 2579 0 
C 2630 0 2643 38 2669 102 
L 4186 4191 
L 4192 4191 
L 4192 453 
C 4192 166 4122 166 3680 166 
L 3680 0 
C 3853 12 4198 12 4384 12 
C 4570 12 4922 12 5094 0 
L 5094 166 
C 4653 166 4582 166 4582 453 
L 4582 3898 
C 4582 4185 4653 4185 5094 4185 
L 5094 4352 
L 4282 4352 
C 4147 4352 4141 4345 4102 4249 
L 2720 516 
L 1338 4249 
z
" transform="scale(0.015625)"/>
       <path id="CMR17-6e" d="M 2656 1954 
C 2656 2282 2592 2816 1837 2816 
C 1331 2816 1069 2424 973 2166 
L 966 2166 
L 966 2816 
L 211 2745 
L 211 2578 
C 589 2578 646 2540 646 2231 
L 646 443 
C 646 198 621 166 211 166 
L 211 0 
C 365 12 646 12 813 12 
C 979 12 1267 12 1421 0 
L 1421 166 
C 1011 166 986 192 986 443 
L 986 1678 
C 986 2269 1344 2713 1792 2713 
C 2266 2713 2317 2289 2317 1980 
L 2317 443 
C 2317 198 2291 166 1882 166 
L 1882 0 
C 2035 12 2317 12 2483 12 
C 2650 12 2938 12 3091 0 
L 3091 166 
C 2682 166 2656 192 2656 443 
L 2656 1954 
z
" transform="scale(0.015625)"/>
       <path id="CMR17-2f" d="M 2605 4575 
C 2637 4658 2637 4671 2637 4684 
C 2637 4761 2579 4800 2528 4800 
C 2451 4800 2426 4748 2400 4671 
L 326 -1376 
C 294 -1460 294 -1472 294 -1485 
C 294 -1562 352 -1600 403 -1600 
C 480 -1600 506 -1549 531 -1472 
L 2605 4575 
z
" transform="scale(0.015625)"/>
       <path id="CMR17-73" d="M 1978 2688 
C 1978 2803 1971 2809 1933 2809 
C 1907 2809 1901 2803 1824 2707 
C 1805 2681 1747 2617 1728 2592 
C 1523 2809 1235 2816 1126 2816 
C 416 2816 160 2444 160 2073 
C 160 1497 813 1363 998 1324 
C 1402 1241 1542 1216 1677 1100 
C 1760 1024 1901 883 1901 652 
C 1901 384 1747 38 1158 38 
C 602 38 403 460 288 1024 
C 269 1113 269 1120 218 1120 
C 166 1120 160 1113 160 985 
L 160 64 
C 160 -52 166 -58 205 -58 
C 237 -58 243 -52 275 0 
C 314 57 410 211 448 275 
C 576 102 800 -64 1158 -64 
C 1792 -64 2131 281 2131 780 
C 2131 1107 1958 1280 1875 1356 
C 1683 1555 1459 1600 1190 1651 
C 838 1728 390 1817 390 2208 
C 390 2374 480 2726 1126 2726 
C 1811 2726 1850 2086 1862 1881 
C 1869 1849 1901 1843 1920 1843 
C 1978 1843 1978 1862 1978 1971 
L 1978 2688 
z
" transform="scale(0.015625)"/>
       <path id="CMR17-63" d="M 2234 2240 
C 2112 2240 1933 2240 1933 2015 
C 1933 1836 2080 1785 2163 1785 
C 2208 1785 2394 1804 2394 2028 
C 2394 2476 1958 2816 1466 2816 
C 787 2816 211 2201 211 1379 
C 211 521 813 -64 1466 -64 
C 2259 -64 2458 676 2458 747 
C 2458 773 2451 792 2406 792 
C 2362 792 2355 786 2330 702 
C 2163 180 1798 51 1523 51 
C 1114 51 621 431 621 1385 
C 621 2358 1094 2700 1472 2700 
C 1722 2700 2093 2582 2234 2240 
z
" transform="scale(0.015625)"/>
       <path id="CMR17-65" d="M 2438 1503 
C 2464 1529 2464 1542 2464 1606 
C 2464 2251 2118 2816 1389 2816 
C 710 2816 173 2175 173 1394 
C 173 554 781 -64 1459 -64 
C 2176 -64 2458 619 2458 755 
C 2458 800 2419 800 2406 800 
C 2362 800 2355 787 2330 709 
C 2189 270 1837 51 1504 51 
C 1229 51 954 206 781 490 
C 582 819 582 1200 582 1503 
L 2438 1503 
z
M 589 1600 
C 634 2511 1126 2713 1382 2713 
C 1818 2713 2112 2308 2118 1600 
L 589 1600 
z
" transform="scale(0.015625)"/>
       <path id="CMR17-56" d="M 3776 3762 
C 3834 3903 3936 4179 4365 4185 
L 4365 4352 
C 4218 4339 4051 4339 3891 4339 
C 3738 4339 3475 4339 3328 4352 
L 3328 4185 
C 3648 4166 3661 3942 3661 3903 
C 3661 3833 3642 3788 3622 3737 
L 2362 448 
L 1043 3903 
C 1024 3948 1011 3980 1011 4012 
C 1011 4185 1267 4185 1402 4185 
L 1402 4352 
C 1197 4339 896 4339 685 4339 
C 518 4339 218 4339 64 4352 
L 64 4185 
C 435 4185 506 4160 582 3955 
L 2106 -26 
C 2138 -116 2144 -128 2214 -128 
C 2285 -128 2291 -116 2323 -26 
L 3776 3762 
z
" transform="scale(0.015625)"/>
      </defs>
      <use xlink:href="#CMR17-46" transform="scale(0.996264)"/>
      <use xlink:href="#CMR17-4f" transform="translate(57.381393 0) scale(0.996264)"/>
      <use xlink:href="#CMR17-4d" transform="translate(129.096181 0) scale(0.996264)"/>
      <use xlink:href="#CMR17-5b" transform="translate(243.859088 0) scale(0.996264)"/>
      <use xlink:href="#CMR17-6e" transform="translate(268.730146 0) scale(0.996264)"/>
      <use xlink:href="#CMR17-2f" transform="translate(319.625516 0) scale(0.996264)"/>
      <use xlink:href="#CMR17-73" transform="translate(365.315993 0) scale(0.996264)"/>
      <use xlink:href="#CMR17-2f" transform="translate(401.117331 0) scale(0.996264)"/>
      <use xlink:href="#CMR17-63" transform="translate(446.807808 0) scale(0.996264)"/>
      <use xlink:href="#CMR17-6d" transform="translate(487.293469 0) scale(0.996264)"/>
      <use xlink:href="#CMBX12-32" transform="translate(564.213058 36.153639) scale(0.697382)"/>
      <use xlink:href="#CMR17-2f" transform="translate(603.938903 0) scale(0.996264)"/>
      <use xlink:href="#CMR17-6d" transform="translate(649.629381 0) scale(0.996264)"/>
      <use xlink:href="#CMR17-65" transform="translate(726.54897 0) scale(0.996264)"/>
      <use xlink:href="#CMR17-56" transform="translate(767.034631 0) scale(0.996264)"/>
      <use xlink:href="#CMR17-5d" transform="translate(836.107061 0) scale(0.996264)"/>
     </g>
    </g>
    <g id="text_13">
     <!-- $\times\mathdefault{10^{7}}\mathdefault{}$ -->
     <g transform="translate(53.187009 17.701072) scale(0.14 -0.14)">
      <defs>
       <path id="CMBSY10-2" d="M 2586 1603 
L 1165 179 
C 1114 128 1069 77 1069 6 
C 1069 -103 1158 -192 1267 -192 
C 1344 -192 1382 -154 1453 -84 
L 2861 1321 
L 4333 -154 
C 4352 -167 4378 -192 4454 -192 
C 4544 -192 4646 -116 4646 6 
C 4646 38 4634 77 4621 102 
C 4589 141 4397 333 4282 448 
L 3136 1596 
C 3462 1930 4563 3020 4595 3058 
C 4627 3103 4646 3142 4646 3193 
C 4646 3315 4544 3392 4454 3392 
C 4378 3392 4346 3360 4282 3296 
L 2861 1878 
C 2528 2205 1440 3308 1402 3340 
C 1357 3372 1318 3392 1267 3392 
C 1158 3392 1069 3302 1069 3193 
C 1069 3122 1101 3090 1165 3026 
L 2586 1603 
z
" transform="scale(0.015625)"/>
       <path id="CMBX12-37" d="M 3430 3859 
C 3488 3923 3488 3936 3488 4147 
L 2138 4147 
C 2093 4147 1139 4179 1062 4192 
C 902 4217 890 4287 877 4352 
L 608 4352 
L 397 2768 
L 666 2768 
C 672 2833 723 3282 832 3353 
C 890 3392 1421 3392 1523 3392 
L 2682 3392 
C 1939 2486 1856 2383 1658 2004 
C 1280 1258 1222 680 1222 365 
C 1222 -64 1549 -64 1600 -64 
C 1760 -64 1850 19 1894 64 
C 1978 166 1978 243 1978 526 
C 1978 1509 2067 2229 2470 2711 
L 3430 3859 
z
" transform="scale(0.015625)"/>
      </defs>
      <use xlink:href="#CMBSY10-2" transform="scale(0.996264)"/>
      <use xlink:href="#CMBX12-31" transform="translate(89.109808 0) scale(0.996264)"/>
      <use xlink:href="#CMBX12-30" transform="translate(145.149659 0) scale(0.996264)"/>
      <use xlink:href="#CMBX12-37" transform="translate(201.189509 36.153639) scale(0.697382)"/>
     </g>
    </g>
   </g>
   <g id="line2d_11">
    <path d="M 65.431235 59.477952 
L 71.553349 43.177749 
L 77.675462 42.098182 
L 83.797576 58.896455 
L 89.919689 31.415314 
L 96.041803 47.36531 
L 102.163916 55.033572 
L 108.28603 67.241533 
L 114.408143 61.768105 
L 120.530256 82.785771 
L 126.65237 96.969875 
L 132.774483 95.469729 
L 138.896597 95.731898 
L 145.01871 120.805335 
L 151.140824 129.781411 
L 157.262937 142.67728 
L 163.385051 136.472394 
L 169.507164 140.890263 
L 175.629277 145.479247 
L 181.751391 153.582684 
L 187.873504 160.208056 
L 193.995618 173.211951 
L 200.117731 170.845153 
L 206.239845 183.300978 
L 212.361958 191.704978 
L 218.484071 181.98366 
L 224.606185 203.071962 
L 230.728298 197.961911 
L 236.850412 198.831236 
L 242.972525 205.560012 
L 249.094639 209.185008 
L 255.216752 212.295191 
L 261.338866 220.759313 
L 267.460979 230.791882 
L 273.583092 222.782904 
L 279.705206 227.779258 
L 285.827319 208.729088 
L 291.949433 219.740378 
L 298.071546 227.062683 
L 304.19366 218.973205 
L 310.315773 245.700157 
" clip-path="url(#p2fa86aa32c)" style="fill: none; stroke: #1f77b4; stroke-width: 1.5; stroke-linecap: square"/>
   </g>
   <g id="LineCollection_1">
    <path d="M 89.919689 245.700157 
L 89.919689 31.415314 
" clip-path="url(#p2fa86aa32c)" style="fill: none; stroke-dasharray: 5.55,2.4; stroke-dashoffset: 0; stroke: #000000; stroke-width: 1.5"/>
   </g>
   <g id="patch_3">
    <path d="M 53.187009 256.414399 
L 53.187009 20.701072 
" style="fill: none; stroke: #000000; stroke-width: 1.75; stroke-linejoin: miter; stroke-linecap: square"/>
   </g>
   <g id="patch_4">
    <path d="M 322.56 256.414399 
L 322.56 20.701072 
" style="fill: none; stroke: #000000; stroke-width: 1.75; stroke-linejoin: miter; stroke-linecap: square"/>
   </g>
   <g id="patch_5">
    <path d="M 53.187009 256.414399 
L 322.56 256.414399 
" style="fill: none; stroke: #000000; stroke-width: 1.75; stroke-linejoin: miter; stroke-linecap: square"/>
   </g>
   <g id="patch_6">
    <path d="M 53.187009 20.701072 
L 322.56 20.701072 
" style="fill: none; stroke: #000000; stroke-width: 1.75; stroke-linejoin: miter; stroke-linecap: square"/>
   </g>
   <g id="text_14">
    <!-- $L_2=0.90$ -->
    <g transform="translate(95.429591 245.700157) scale(0.14 -0.14)">
     <defs>
      <path id="CMBX12-3d" d="M 4934 2112 
C 5030 2112 5197 2112 5197 2291 
C 5197 2464 5024 2464 4941 2464 
L 653 2464 
C 570 2464 397 2464 397 2291 
C 397 2112 563 2112 659 2112 
L 4934 2112 
z
M 4941 735 
C 5024 735 5197 735 5197 908 
C 5197 1088 5030 1088 4934 1088 
L 659 1088 
C 563 1088 397 1088 397 908 
C 397 735 570 735 653 735 
L 4941 735 
z
" transform="scale(0.015625)"/>
      <path id="CMBX12-39" d="M 2477 1818 
C 2477 1366 2477 192 1478 192 
C 1280 192 1050 238 915 332 
C 1101 371 1235 505 1235 710 
C 1235 940 1062 1088 858 1088 
C 691 1088 480 979 480 697 
C 480 256 832 -64 1491 -64 
C 2304 -64 3290 454 3290 2120 
C 3290 2552 3290 4224 1811 4224 
C 928 4224 301 3710 301 2828 
C 301 1934 915 1452 1683 1452 
C 1952 1452 2272 1548 2477 2005 
L 2477 1818 
z
M 1747 1664 
C 1114 1664 1114 2185 1114 2815 
C 1114 3433 1114 3993 1811 3993 
C 2221 3993 2368 3626 2394 3556 
C 2458 3362 2470 2963 2470 2751 
C 2470 2301 2285 1664 1747 1664 
z
" transform="scale(0.015625)"/>
     </defs>
     <use xlink:href="#CMMIB10-4c" transform="scale(0.996264)"/>
     <use xlink:href="#CMBX12-32" transform="translate(75.272857 -14.943915) scale(0.697382)"/>
     <use xlink:href="#CMBX12-3d" transform="translate(146.823633 0) scale(0.996264)"/>
     <use xlink:href="#CMBX12-30" transform="translate(265.821665 0) scale(0.996264)"/>
     <use xlink:href="#CMMIB10-3a" transform="translate(321.861516 0) scale(0.996264)"/>
     <use xlink:href="#CMBX12-39" transform="translate(353.686447 0) scale(0.996264)"/>
     <use xlink:href="#CMBX12-30" transform="translate(409.726298 0) scale(0.996264)"/>
    </g>
   </g>
  </g>
 </g>
 <defs>
  <clipPath id="p2fa86aa32c">
   <rect x="53.187009" y="20.701072" width="269.372991" height="235.713327"/>
  </clipPath>
 </defs>
</svg>
