<?xml version="1.0" encoding="utf-8" standalone="no"?>
<!DOCTYPE svg PUBLIC "-//W3C//DTD SVG 1.1//EN"
  "http://www.w3.org/Graphics/SVG/1.1/DTD/svg11.dtd">
<svg xmlns:xlink="http://www.w3.org/1999/xlink" width="329.76pt" height="300.96pt" viewBox="0 0 329.76 300.96" xmlns="http://www.w3.org/2000/svg" version="1.1">
 <metadata>
  <rdf:RDF xmlns:dc="http://purl.org/dc/elements/1.1/" xmlns:cc="http://creativecommons.org/ns#" xmlns:rdf="http://www.w3.org/1999/02/22-rdf-syntax-ns#">
   <cc:Work>
    <dc:type rdf:resource="http://purl.org/dc/dcmitype/StillImage"/>
    <dc:date>2024-05-22T11:59:05.239915</dc:date>
    <dc:format>image/svg+xml</dc:format>
    <dc:creator>
     <cc:Agent>
      <dc:title>Matplotlib v3.6.3, https://matplotlib.org/</dc:title>
     </cc:Agent>
    </dc:creator>
   </cc:Work>
  </rdf:RDF>
 </metadata>
 <defs>
  <style type="text/css">*{stroke-linejoin: round; stroke-linecap: butt}</style>
 </defs>
 <g id="figure_1">
  <g id="patch_1">
   <path d="M 0 300.96 
L 329.76 300.96 
L 329.76 0 
L 0 0 
z
" style="fill: #ffffff"/>
  </g>
  <g id="axes_1">
   <g id="patch_2">
    <path d="M 53.187009 256.414399 
L 322.56 256.414399 
L 322.56 20.701072 
L 53.187009 20.701072 
z
" style="fill: #ffffff"/>
   </g>
   <g id="matplotlib.axis_1">
    <g id="xtick_1">
     <g id="line2d_1">
      <defs>
       <path id="md87b4669d0" d="M 0 0 
L 0 3.5 
" style="stroke: #000000; stroke-width: 0.8"/>
      </defs>
      <g>
       <use xlink:href="#md87b4669d0" x="96.041803" y="256.414399" style="stroke: #000000; stroke-width: 0.8"/>
      </g>
     </g>
     <g id="text_1">
      <!-- $\mathdefault{1}$ -->
      <g transform="translate(92.119013 273.100275) scale(0.14 -0.14)">
       <defs>
        <path id="CMBX12-31" d="M 2214 4034 
C 2214 4224 2202 4224 1997 4224 
C 1523 3795 813 3795 672 3795 
L 550 3795 
L 550 3520 
L 672 3520 
C 896 3520 1235 3558 1491 3641 
L 1491 275 
L 602 275 
L 602 0 
C 870 12 1542 12 1843 12 
C 2144 12 2822 12 3091 0 
L 3091 275 
L 2214 275 
L 2214 4034 
z
" transform="scale(0.015625)"/>
       </defs>
       <use xlink:href="#CMBX12-31" transform="scale(0.996264)"/>
      </g>
     </g>
    </g>
    <g id="xtick_2">
     <g id="line2d_2">
      <g>
       <use xlink:href="#md87b4669d0" x="157.262937" y="256.414399" style="stroke: #000000; stroke-width: 0.8"/>
      </g>
     </g>
     <g id="text_2">
      <!-- $\mathdefault{2}$ -->
      <g transform="translate(153.340148 273.100275) scale(0.14 -0.14)">
       <defs>
        <path id="CMBX12-32" d="M 3232 1378 
L 2963 1378 
C 2944 1243 2899 864 2803 800 
C 2752 755 2253 755 2157 755 
L 1165 755 
C 1408 960 1990 1448 2086 1519 
C 2797 2052 3232 2379 3232 2995 
C 3232 3759 2547 4224 1702 4224 
C 979 4224 358 3806 358 3187 
C 358 2848 634 2752 781 2752 
C 979 2752 1210 2886 1210 3180 
C 1210 3449 1011 3584 813 3610 
C 1069 3921 1408 3948 1542 3948 
C 2131 3948 2413 3449 2413 2988 
C 2413 2488 2074 2026 1811 1750 
L 422 294 
C 358 236 358 224 358 108 
L 358 0 
L 3046 0 
L 3232 1378 
z
" transform="scale(0.015625)"/>
       </defs>
       <use xlink:href="#CMBX12-32" transform="scale(0.996264)"/>
      </g>
     </g>
    </g>
    <g id="xtick_3">
     <g id="line2d_3">
      <g>
       <use xlink:href="#md87b4669d0" x="218.484071" y="256.414399" style="stroke: #000000; stroke-width: 0.8"/>
      </g>
     </g>
     <g id="text_3">
      <!-- $\mathdefault{3}$ -->
      <g transform="translate(214.561282 273.100275) scale(0.14 -0.14)">
       <defs>
        <path id="CMBX12-33" d="M 1670 2143 
C 2387 2143 2387 1473 2387 1164 
C 2387 876 2387 192 1696 192 
C 1562 192 1139 211 832 434 
C 1107 492 1203 691 1203 883 
C 1203 1145 1018 1331 755 1331 
C 486 1331 301 1145 301 876 
C 301 283 941 -64 1728 -64 
C 2784 -64 3290 524 3290 1164 
C 3290 1479 3130 2092 2138 2265 
C 2701 2436 3091 2824 3091 3327 
C 3091 3812 2630 4224 1741 4224 
C 1024 4224 499 3839 499 3315 
C 499 2995 749 2892 915 2892 
C 1101 2892 1325 3014 1325 3308 
C 1325 3455 1261 3673 960 3718 
C 1229 3993 1664 3993 1702 3993 
C 2272 3993 2272 3539 2272 3347 
C 2272 3155 2246 2861 2042 2605 
C 1875 2392 1709 2380 1466 2368 
C 1389 2361 1261 2355 1235 2342 
C 1197 2323 1197 2278 1197 2252 
C 1197 2143 1235 2143 1363 2143 
L 1670 2143 
z
" transform="scale(0.015625)"/>
       </defs>
       <use xlink:href="#CMBX12-33" transform="scale(0.996264)"/>
      </g>
     </g>
    </g>
    <g id="xtick_4">
     <g id="line2d_4">
      <g>
       <use xlink:href="#md87b4669d0" x="279.705206" y="256.414399" style="stroke: #000000; stroke-width: 0.8"/>
      </g>
     </g>
     <g id="text_4">
      <!-- $\mathdefault{4}$ -->
      <g transform="translate(275.782416 273.100275) scale(0.14 -0.14)">
       <defs>
        <path id="CMBX12-34" d="M 2771 1004 
L 3392 1004 
L 3392 1280 
L 2771 1280 
L 2771 4038 
C 2771 4198 2765 4224 2605 4224 
C 2490 4224 2477 4224 2400 4127 
L 198 1280 
L 198 1004 
L 2016 1004 
L 2016 275 
L 1318 275 
L 1318 0 
C 1504 12 2138 12 2368 12 
C 2586 12 3219 12 3392 0 
L 3392 275 
L 2771 275 
L 2771 1004 
z
M 2074 3324 
L 2074 1280 
L 493 1280 
L 2074 3324 
z
" transform="scale(0.015625)"/>
       </defs>
       <use xlink:href="#CMBX12-34" transform="scale(0.996264)"/>
      </g>
     </g>
    </g>
    <g id="text_5">
     <!-- $L_2$ [m] -->
     <g transform="translate(167.706881 290.273076) scale(0.14 -0.14)">
      <defs>
       <path id="CMMIB10-4c" d="M 2822 3979 
C 2848 4070 2854 4076 2867 4083 
C 2880 4089 2989 4115 3322 4115 
L 3533 4115 
C 3661 4115 3763 4115 3763 4300 
C 3763 4416 3642 4416 3616 4416 
C 3430 4416 3238 4403 3046 4403 
C 2867 4403 2688 4396 2509 4396 
C 2330 4396 2150 4403 1978 4403 
C 1811 4403 1645 4416 1485 4416 
C 1427 4416 1299 4416 1299 4230 
C 1299 4115 1382 4115 1568 4115 
C 1702 4115 1824 4108 1958 4102 
L 1043 429 
C 1018 326 1011 320 896 307 
C 787 300 659 300 557 300 
C 390 300 378 300 352 288 
C 275 243 275 140 275 115 
C 275 0 390 0 493 0 
L 3731 0 
C 3904 0 3910 0 3962 140 
C 4032 320 4525 1589 4525 1647 
C 4525 1744 4429 1763 4371 1763 
C 4262 1763 4250 1737 4198 1602 
C 4019 1151 3667 300 2579 300 
L 2067 300 
C 1971 300 1958 300 1914 307 
L 2822 3979 
z
" transform="scale(0.015625)"/>
       <path id="CMR17-5b" d="M 1504 -1600 
L 1504 -1376 
L 902 -1376 
L 902 4575 
L 1504 4575 
L 1504 4800 
L 678 4800 
L 678 -1600 
L 1504 -1600 
z
" transform="scale(0.015625)"/>
       <path id="CMR17-6d" d="M 4326 1954 
C 4326 2276 4269 2816 3507 2816 
C 3072 2816 2771 2520 2656 2173 
L 2650 2173 
C 2573 2700 2195 2816 1837 2816 
C 1331 2816 1069 2424 973 2166 
L 966 2166 
L 966 2816 
L 211 2745 
L 211 2578 
C 589 2578 646 2540 646 2231 
L 646 443 
C 646 198 621 166 211 166 
L 211 0 
C 365 12 646 12 813 12 
C 979 12 1267 12 1421 0 
L 1421 166 
C 1011 166 986 192 986 443 
L 986 1678 
C 986 2269 1344 2713 1792 2713 
C 2266 2713 2317 2289 2317 1980 
L 2317 443 
C 2317 198 2291 166 1882 166 
L 1882 0 
C 2035 12 2317 12 2483 12 
C 2650 12 2938 12 3091 0 
L 3091 166 
C 2682 166 2656 192 2656 443 
L 2656 1678 
C 2656 2269 3014 2713 3462 2713 
C 3936 2713 3987 2289 3987 1980 
L 3987 443 
C 3987 198 3962 166 3552 166 
L 3552 0 
C 3706 12 3987 12 4154 12 
C 4320 12 4608 12 4762 0 
L 4762 166 
C 4352 166 4326 192 4326 443 
L 4326 1954 
z
" transform="scale(0.015625)"/>
       <path id="CMR17-5d" d="M 915 4800 
L 90 4800 
L 90 4575 
L 691 4575 
L 691 -1376 
L 90 -1376 
L 90 -1600 
L 915 -1600 
L 915 4800 
z
" transform="scale(0.015625)"/>
      </defs>
      <use xlink:href="#CMMIB10-4c" transform="scale(0.996264)"/>
      <use xlink:href="#CMBX12-32" transform="translate(75.272857 -14.943915) scale(0.697382)"/>
      <use xlink:href="#CMR17-5b" transform="translate(145.074668 0) scale(0.996264)"/>
      <use xlink:href="#CMR17-6d" transform="translate(169.945727 0) scale(0.996264)"/>
      <use xlink:href="#CMR17-5d" transform="translate(246.865316 0) scale(0.996264)"/>
     </g>
    </g>
   </g>
   <g id="matplotlib.axis_2">
    <g id="ytick_1">
     <g id="line2d_5">
      <defs>
       <path id="m8a5ec9b69a" d="M 0 0 
L -3.5 0 
" style="stroke: #000000; stroke-width: 0.8"/>
      </defs>
      <g>
       <use xlink:href="#m8a5ec9b69a" x="53.187009" y="228.09536" style="stroke: #000000; stroke-width: 0.8"/>
      </g>
     </g>
     <g id="text_6">
      <!-- $\mathdefault{0.5}$ -->
      <g transform="translate(26.04036 232.938298) scale(0.14 -0.14)">
       <defs>
        <path id="CMBX12-30" d="M 3309 2060 
C 3309 2677 3309 4224 1798 4224 
C 282 4224 282 2683 282 2060 
C 282 1444 282 -64 1792 -64 
C 3302 -64 3309 1424 3309 2060 
z
M 1798 147 
C 1594 147 1440 230 1312 365 
C 1152 526 1050 628 1050 2137 
C 1050 2587 1050 2998 1101 3331 
C 1190 3967 1651 4012 1792 4012 
C 1997 4012 2394 3916 2483 3376 
C 2541 3049 2541 2529 2541 2137 
C 2541 622 2445 532 2253 339 
C 2125 211 1952 147 1798 147 
z
" transform="scale(0.015625)"/>
        <path id="CMMIB10-3a" d="M 1517 499 
C 1517 774 1293 998 1018 998 
C 742 998 518 774 518 499 
C 518 224 742 0 1018 0 
C 1293 0 1517 224 1517 499 
z
" transform="scale(0.015625)"/>
        <path id="CMBX12-35" d="M 986 3359 
C 1203 3308 1376 3308 1472 3308 
C 1626 3308 1990 3308 2419 3571 
C 2618 3692 2950 3980 2950 4115 
C 2950 4147 2950 4224 2874 4224 
C 2867 4224 2854 4224 2790 4191 
C 2496 4090 2182 4032 1824 4032 
C 1459 4032 1152 4090 851 4198 
C 806 4211 787 4224 768 4224 
C 691 4224 691 4159 691 4058 
L 691 2179 
C 691 2055 691 1984 819 1984 
C 883 1984 896 1991 947 2055 
C 1024 2146 1254 2432 1798 2432 
C 2387 2432 2387 1822 2387 1312 
C 2387 851 2387 192 1600 192 
C 1363 192 960 280 742 640 
C 1082 640 1165 896 1165 1036 
C 1165 1267 998 1440 762 1440 
C 570 1440 358 1324 358 1024 
C 358 469 864 -64 1626 -64 
C 2611 -64 3232 501 3232 1292 
C 3232 2081 2701 2643 1824 2643 
C 1568 2643 1261 2592 986 2386 
L 986 3359 
z
" transform="scale(0.015625)"/>
       </defs>
       <use xlink:href="#CMBX12-30" transform="scale(0.996264)"/>
       <use xlink:href="#CMMIB10-3a" transform="translate(56.039851 0) scale(0.996264)"/>
       <use xlink:href="#CMBX12-35" transform="translate(87.864782 0) scale(0.996264)"/>
      </g>
     </g>
    </g>
    <g id="ytick_2">
     <g id="line2d_6">
      <g>
       <use xlink:href="#m8a5ec9b69a" x="53.187009" y="194.680924" style="stroke: #000000; stroke-width: 0.8"/>
      </g>
     </g>
     <g id="text_7">
      <!-- $\mathdefault{1.0}$ -->
      <g transform="translate(26.04036 199.523862) scale(0.14 -0.14)">
       <use xlink:href="#CMBX12-31" transform="scale(0.996264)"/>
       <use xlink:href="#CMMIB10-3a" transform="translate(56.039851 0) scale(0.996264)"/>
       <use xlink:href="#CMBX12-30" transform="translate(87.864782 0) scale(0.996264)"/>
      </g>
     </g>
    </g>
    <g id="ytick_3">
     <g id="line2d_7">
      <g>
       <use xlink:href="#m8a5ec9b69a" x="53.187009" y="161.266487" style="stroke: #000000; stroke-width: 0.8"/>
      </g>
     </g>
     <g id="text_8">
      <!-- $\mathdefault{1.5}$ -->
      <g transform="translate(26.04036 166.109425) scale(0.14 -0.14)">
       <use xlink:href="#CMBX12-31" transform="scale(0.996264)"/>
       <use xlink:href="#CMMIB10-3a" transform="translate(56.039851 0) scale(0.996264)"/>
       <use xlink:href="#CMBX12-35" transform="translate(87.864782 0) scale(0.996264)"/>
      </g>
     </g>
    </g>
    <g id="ytick_4">
     <g id="line2d_8">
      <g>
       <use xlink:href="#m8a5ec9b69a" x="53.187009" y="127.852051" style="stroke: #000000; stroke-width: 0.8"/>
      </g>
     </g>
     <g id="text_9">
      <!-- $\mathdefault{2.0}$ -->
      <g transform="translate(26.04036 132.694989) scale(0.14 -0.14)">
       <use xlink:href="#CMBX12-32" transform="scale(0.996264)"/>
       <use xlink:href="#CMMIB10-3a" transform="translate(56.039851 0) scale(0.996264)"/>
       <use xlink:href="#CMBX12-30" transform="translate(87.864782 0) scale(0.996264)"/>
      </g>
     </g>
    </g>
    <g id="ytick_5">
     <g id="line2d_9">
      <g>
       <use xlink:href="#m8a5ec9b69a" x="53.187009" y="94.437614" style="stroke: #000000; stroke-width: 0.8"/>
      </g>
     </g>
     <g id="text_10">
      <!-- $\mathdefault{2.5}$ -->
      <g transform="translate(26.04036 99.280553) scale(0.14 -0.14)">
       <use xlink:href="#CMBX12-32" transform="scale(0.996264)"/>
       <use xlink:href="#CMMIB10-3a" transform="translate(56.039851 0) scale(0.996264)"/>
       <use xlink:href="#CMBX12-35" transform="translate(87.864782 0) scale(0.996264)"/>
      </g>
     </g>
    </g>
    <g id="ytick_6">
     <g id="line2d_10">
      <g>
       <use xlink:href="#m8a5ec9b69a" x="53.187009" y="61.023178" style="stroke: #000000; stroke-width: 0.8"/>
      </g>
     </g>
     <g id="text_11">
      <!-- $\mathdefault{3.0}$ -->
      <g transform="translate(26.04036 65.866116) scale(0.14 -0.14)">
       <use xlink:href="#CMBX12-33" transform="scale(0.996264)"/>
       <use xlink:href="#CMMIB10-3a" transform="translate(56.039851 0) scale(0.996264)"/>
       <use xlink:href="#CMBX12-30" transform="translate(87.864782 0) scale(0.996264)"/>
      </g>
     </g>
    </g>
    <g id="ytick_7">
     <g id="line2d_11">
      <g>
       <use xlink:href="#m8a5ec9b69a" x="53.187009" y="27.608742" style="stroke: #000000; stroke-width: 0.8"/>
      </g>
     </g>
     <g id="text_12">
      <!-- $\mathdefault{3.5}$ -->
      <g transform="translate(26.04036 32.45168) scale(0.14 -0.14)">
       <use xlink:href="#CMBX12-33" transform="scale(0.996264)"/>
       <use xlink:href="#CMMIB10-3a" transform="translate(56.039851 0) scale(0.996264)"/>
       <use xlink:href="#CMBX12-35" transform="translate(87.864782 0) scale(0.996264)"/>
      </g>
     </g>
    </g>
    <g id="text_13">
     <!-- Intensity [n/s/cm$^2$] -->
     <g transform="translate(18.553436 196.017091) rotate(-90) scale(0.14 -0.14)">
      <defs>
       <path id="CMR17-49" d="M 1261 3898 
C 1261 4185 1338 4185 1798 4185 
L 1798 4352 
C 1594 4339 1267 4339 1050 4339 
C 832 4339 506 4339 301 4352 
L 301 4185 
C 762 4185 838 4185 838 3898 
L 838 453 
C 838 166 762 166 301 166 
L 301 0 
C 506 12 832 12 1050 12 
C 1267 12 1594 12 1798 0 
L 1798 166 
C 1338 166 1261 166 1261 453 
L 1261 3898 
z
" transform="scale(0.015625)"/>
       <path id="CMR17-6e" d="M 2656 1954 
C 2656 2282 2592 2816 1837 2816 
C 1331 2816 1069 2424 973 2166 
L 966 2166 
L 966 2816 
L 211 2745 
L 211 2578 
C 589 2578 646 2540 646 2231 
L 646 443 
C 646 198 621 166 211 166 
L 211 0 
C 365 12 646 12 813 12 
C 979 12 1267 12 1421 0 
L 1421 166 
C 1011 166 986 192 986 443 
L 986 1678 
C 986 2269 1344 2713 1792 2713 
C 2266 2713 2317 2289 2317 1980 
L 2317 443 
C 2317 198 2291 166 1882 166 
L 1882 0 
C 2035 12 2317 12 2483 12 
C 2650 12 2938 12 3091 0 
L 3091 166 
C 2682 166 2656 192 2656 443 
L 2656 1954 
z
" transform="scale(0.015625)"/>
       <path id="CMR17-74" d="M 966 2585 
L 1862 2585 
L 1862 2752 
L 966 2752 
L 966 3968 
L 851 3968 
C 838 3292 614 2700 70 2687 
L 70 2585 
L 627 2585 
L 627 778 
C 627 655 627 -64 1370 -64 
C 1747 -64 1965 308 1965 784 
L 1965 1151 
L 1850 1151 
L 1850 790 
C 1850 347 1677 51 1408 51 
C 1222 51 966 179 966 765 
L 966 2585 
z
" transform="scale(0.015625)"/>
       <path id="CMR17-65" d="M 2438 1503 
C 2464 1529 2464 1542 2464 1606 
C 2464 2251 2118 2816 1389 2816 
C 710 2816 173 2175 173 1394 
C 173 554 781 -64 1459 -64 
C 2176 -64 2458 619 2458 755 
C 2458 800 2419 800 2406 800 
C 2362 800 2355 787 2330 709 
C 2189 270 1837 51 1504 51 
C 1229 51 954 206 781 490 
C 582 819 582 1200 582 1503 
L 2438 1503 
z
M 589 1600 
C 634 2511 1126 2713 1382 2713 
C 1818 2713 2112 2308 2118 1600 
L 589 1600 
z
" transform="scale(0.015625)"/>
       <path id="CMR17-73" d="M 1978 2688 
C 1978 2803 1971 2809 1933 2809 
C 1907 2809 1901 2803 1824 2707 
C 1805 2681 1747 2617 1728 2592 
C 1523 2809 1235 2816 1126 2816 
C 416 2816 160 2444 160 2073 
C 160 1497 813 1363 998 1324 
C 1402 1241 1542 1216 1677 1100 
C 1760 1024 1901 883 1901 652 
C 1901 384 1747 38 1158 38 
C 602 38 403 460 288 1024 
C 269 1113 269 1120 218 1120 
C 166 1120 160 1113 160 985 
L 160 64 
C 160 -52 166 -58 205 -58 
C 237 -58 243 -52 275 0 
C 314 57 410 211 448 275 
C 576 102 800 -64 1158 -64 
C 1792 -64 2131 281 2131 780 
C 2131 1107 1958 1280 1875 1356 
C 1683 1555 1459 1600 1190 1651 
C 838 1728 390 1817 390 2208 
C 390 2374 480 2726 1126 2726 
C 1811 2726 1850 2086 1862 1881 
C 1869 1849 1901 1843 1920 1843 
C 1978 1843 1978 1862 1978 1971 
L 1978 2688 
z
" transform="scale(0.015625)"/>
       <path id="CMR17-69" d="M 992 3961 
C 992 4102 877 4224 730 4224 
C 589 4224 467 4108 467 3961 
C 467 3820 582 3699 730 3699 
C 870 3699 992 3814 992 3961 
z
M 243 2745 
L 243 2579 
C 602 2579 653 2540 653 2231 
L 653 443 
C 653 198 627 166 218 166 
L 218 0 
C 371 12 646 12 806 12 
C 960 12 1222 12 1370 0 
L 1370 166 
C 992 166 979 205 979 436 
L 979 2816 
L 243 2745 
z
" transform="scale(0.015625)"/>
       <path id="CMR17-79" d="M 2496 2183 
C 2656 2579 2944 2585 3034 2585 
L 3034 2752 
C 2912 2745 2752 2739 2630 2739 
C 2496 2739 2285 2739 2157 2752 
L 2157 2585 
C 2400 2566 2406 2384 2406 2332 
C 2406 2268 2394 2235 2362 2158 
L 1664 409 
L 902 2300 
C 870 2378 870 2423 870 2430 
C 870 2572 1018 2585 1171 2585 
L 1171 2752 
C 1018 2739 742 2739 582 2739 
C 410 2739 205 2739 64 2752 
L 64 2585 
C 410 2585 448 2553 531 2345 
L 1485 -31 
C 1197 -795 1030 -1242 627 -1242 
C 557 -1242 397 -1223 282 -1106 
C 429 -1093 493 -1002 493 -892 
C 493 -782 416 -685 288 -685 
C 147 -685 77 -782 77 -899 
C 77 -1158 339 -1344 627 -1344 
C 998 -1344 1229 -983 1357 -659 
L 2496 2183 
z
" transform="scale(0.015625)"/>
       <path id="CMR17-2f" d="M 2605 4575 
C 2637 4658 2637 4671 2637 4684 
C 2637 4761 2579 4800 2528 4800 
C 2451 4800 2426 4748 2400 4671 
L 326 -1376 
C 294 -1460 294 -1472 294 -1485 
C 294 -1562 352 -1600 403 -1600 
C 480 -1600 506 -1549 531 -1472 
L 2605 4575 
z
" transform="scale(0.015625)"/>
       <path id="CMR17-63" d="M 2234 2240 
C 2112 2240 1933 2240 1933 2015 
C 1933 1836 2080 1785 2163 1785 
C 2208 1785 2394 1804 2394 2028 
C 2394 2476 1958 2816 1466 2816 
C 787 2816 211 2201 211 1379 
C 211 521 813 -64 1466 -64 
C 2259 -64 2458 676 2458 747 
C 2458 773 2451 792 2406 792 
C 2362 792 2355 786 2330 702 
C 2163 180 1798 51 1523 51 
C 1114 51 621 431 621 1385 
C 621 2358 1094 2700 1472 2700 
C 1722 2700 2093 2582 2234 2240 
z
" transform="scale(0.015625)"/>
      </defs>
      <use xlink:href="#CMR17-49" transform="scale(0.996264)"/>
      <use xlink:href="#CMR17-6e" transform="translate(32.638409 0) scale(0.996264)"/>
      <use xlink:href="#CMR17-74" transform="translate(80.931325 0) scale(0.996264)"/>
      <use xlink:href="#CMR17-65" transform="translate(116.212093 0) scale(0.996264)"/>
      <use xlink:href="#CMR17-6e" transform="translate(156.697753 0) scale(0.996264)"/>
      <use xlink:href="#CMR17-73" transform="translate(207.593123 0) scale(0.996264)"/>
      <use xlink:href="#CMR17-69" transform="translate(243.394461 0) scale(0.996264)"/>
      <use xlink:href="#CMR17-74" transform="translate(268.265519 0) scale(0.996264)"/>
      <use xlink:href="#CMR17-79" transform="translate(300.943833 0) scale(0.996264)"/>
      <use xlink:href="#CMR17-5b" transform="translate(379.312715 0) scale(0.996264)"/>
      <use xlink:href="#CMR17-6e" transform="translate(404.183774 0) scale(0.996264)"/>
      <use xlink:href="#CMR17-2f" transform="translate(455.079144 0) scale(0.996264)"/>
      <use xlink:href="#CMR17-73" transform="translate(500.769621 0) scale(0.996264)"/>
      <use xlink:href="#CMR17-2f" transform="translate(536.570958 0) scale(0.996264)"/>
      <use xlink:href="#CMR17-63" transform="translate(582.261435 0) scale(0.996264)"/>
      <use xlink:href="#CMR17-6d" transform="translate(622.747096 0) scale(0.996264)"/>
      <use xlink:href="#CMBX12-32" transform="translate(699.666686 36.153639) scale(0.697382)"/>
      <use xlink:href="#CMR17-5d" transform="translate(739.392531 0) scale(0.996264)"/>
     </g>
    </g>
    <g id="text_14">
     <!-- $\times\mathdefault{10^{7}}\mathdefault{}$ -->
     <g transform="translate(53.187009 17.701072) scale(0.14 -0.14)">
      <defs>
       <path id="CMBSY10-2" d="M 2586 1603 
L 1165 179 
C 1114 128 1069 77 1069 6 
C 1069 -103 1158 -192 1267 -192 
C 1344 -192 1382 -154 1453 -84 
L 2861 1321 
L 4333 -154 
C 4352 -167 4378 -192 4454 -192 
C 4544 -192 4646 -116 4646 6 
C 4646 38 4634 77 4621 102 
C 4589 141 4397 333 4282 448 
L 3136 1596 
C 3462 1930 4563 3020 4595 3058 
C 4627 3103 4646 3142 4646 3193 
C 4646 3315 4544 3392 4454 3392 
C 4378 3392 4346 3360 4282 3296 
L 2861 1878 
C 2528 2205 1440 3308 1402 3340 
C 1357 3372 1318 3392 1267 3392 
C 1158 3392 1069 3302 1069 3193 
C 1069 3122 1101 3090 1165 3026 
L 2586 1603 
z
" transform="scale(0.015625)"/>
       <path id="CMBX12-37" d="M 3430 3859 
C 3488 3923 3488 3936 3488 4147 
L 2138 4147 
C 2093 4147 1139 4179 1062 4192 
C 902 4217 890 4287 877 4352 
L 608 4352 
L 397 2768 
L 666 2768 
C 672 2833 723 3282 832 3353 
C 890 3392 1421 3392 1523 3392 
L 2682 3392 
C 1939 2486 1856 2383 1658 2004 
C 1280 1258 1222 680 1222 365 
C 1222 -64 1549 -64 1600 -64 
C 1760 -64 1850 19 1894 64 
C 1978 166 1978 243 1978 526 
C 1978 1509 2067 2229 2470 2711 
L 3430 3859 
z
" transform="scale(0.015625)"/>
      </defs>
      <use xlink:href="#CMBSY10-2" transform="scale(0.996264)"/>
      <use xlink:href="#CMBX12-31" transform="translate(89.109808 0) scale(0.996264)"/>
      <use xlink:href="#CMBX12-30" transform="translate(145.149659 0) scale(0.996264)"/>
      <use xlink:href="#CMBX12-37" transform="translate(201.189509 36.153639) scale(0.697382)"/>
     </g>
    </g>
   </g>
   <g id="line2d_12">
    <path d="M 65.431235 31.415314 
L 71.553349 33.551165 
L 77.675462 36.104028 
L 83.797576 42.337157 
L 89.919689 59.929858 
L 96.041803 69.865974 
L 102.163916 82.185209 
L 108.28603 95.837679 
L 114.408143 108.537838 
L 120.530256 109.447379 
L 126.65237 128.68407 
L 132.774483 129.756005 
L 138.896597 142.855801 
L 145.01871 154.484693 
L 151.140824 162.56965 
L 157.262937 168.993242 
L 163.385051 183.475058 
L 169.507164 181.265027 
L 175.629277 188.773251 
L 181.751391 193.95984 
L 187.873504 201.289297 
L 193.995618 205.970659 
L 200.117731 207.715361 
L 206.239845 214.295866 
L 212.361958 218.24171 
L 218.484071 216.994416 
L 224.606185 226.377925 
L 230.728298 223.461312 
L 236.850412 228.917689 
L 242.972525 228.344164 
L 249.094639 231.370844 
L 255.216752 235.371354 
L 261.338866 237.619611 
L 267.460979 233.314294 
L 273.583092 240.094217 
L 279.705206 242.136975 
L 285.827319 240.778678 
L 291.949433 242.49344 
L 298.071546 243.379792 
L 304.19366 245.700157 
L 310.315773 244.695184 
" clip-path="url(#pbd7151e24b)" style="fill: none; stroke: #1f77b4; stroke-width: 1.5; stroke-linecap: square"/>
   </g>
   <g id="LineCollection_1">
    <path d="M 65.431235 245.700157 
L 65.431235 31.415314 
" clip-path="url(#pbd7151e24b)" style="fill: none; stroke-dasharray: 5.55,2.4; stroke-dashoffset: 0; stroke: #000000; stroke-width: 1.5"/>
   </g>
   <g id="patch_3">
    <path d="M 53.187009 256.414399 
L 53.187009 20.701072 
" style="fill: none; stroke: #000000; stroke-width: 1.75; stroke-linejoin: miter; stroke-linecap: square"/>
   </g>
   <g id="patch_4">
    <path d="M 322.56 256.414399 
L 322.56 20.701072 
" style="fill: none; stroke: #000000; stroke-width: 1.75; stroke-linejoin: miter; stroke-linecap: square"/>
   </g>
   <g id="patch_5">
    <path d="M 53.187009 256.414399 
L 322.56 256.414399 
" style="fill: none; stroke: #000000; stroke-width: 1.75; stroke-linejoin: miter; stroke-linecap: square"/>
   </g>
   <g id="patch_6">
    <path d="M 53.187009 20.701072 
L 322.56 20.701072 
" style="fill: none; stroke: #000000; stroke-width: 1.75; stroke-linejoin: miter; stroke-linecap: square"/>
   </g>
   <g id="text_15">
    <!-- $L_2=0.50$ -->
    <g transform="translate(68.492292 245.700157) scale(0.14 -0.14)">
     <defs>
      <path id="CMBX12-3d" d="M 4934 2112 
C 5030 2112 5197 2112 5197 2291 
C 5197 2464 5024 2464 4941 2464 
L 653 2464 
C 570 2464 397 2464 397 2291 
C 397 2112 563 2112 659 2112 
L 4934 2112 
z
M 4941 735 
C 5024 735 5197 735 5197 908 
C 5197 1088 5030 1088 4934 1088 
L 659 1088 
C 563 1088 397 1088 397 908 
C 397 735 570 735 653 735 
L 4941 735 
z
" transform="scale(0.015625)"/>
     </defs>
     <use xlink:href="#CMMIB10-4c" transform="scale(0.996264)"/>
     <use xlink:href="#CMBX12-32" transform="translate(75.272857 -14.943915) scale(0.697382)"/>
     <use xlink:href="#CMBX12-3d" transform="translate(146.823633 0) scale(0.996264)"/>
     <use xlink:href="#CMBX12-30" transform="translate(265.821665 0) scale(0.996264)"/>
     <use xlink:href="#CMMIB10-3a" transform="translate(321.861516 0) scale(0.996264)"/>
     <use xlink:href="#CMBX12-35" transform="translate(353.686447 0) scale(0.996264)"/>
     <use xlink:href="#CMBX12-30" transform="translate(409.726298 0) scale(0.996264)"/>
    </g>
   </g>
  </g>
 </g>
 <defs>
  <clipPath id="pbd7151e24b">
   <rect x="53.187009" y="20.701072" width="269.372991" height="235.713327"/>
  </clipPath>
 </defs>
</svg>
